AsbirSans-DisplayBlack.ufo
<glyph name="exclam" format="2">
  <advance width="552"/>
  <unicode hex="0021"/>
  <outline>
    <contour>
      <point x="102" y="472" type="line"/>
      <point x="450" y="472" type="line"/>
      <point x="488" y="1490" type="line"/>
      <point x="64" y="1490" type="line"/>
    </contour>
    <contour>
      <point x="276" y="-19" type="curve" smooth="yes"/>
      <point x="391" y="-19"/>
      <point x="484" y="74"/>
      <point x="484" y="189" type="curve" smooth="yes"/>
      <point x="484" y="304"/>
      <point x="391" y="397"/>
      <point x="276" y="397" type="curve" smooth="yes"/>
      <point x="161" y="397"/>
      <point x="68" y="304"/>
      <point x="68" y="189" type="curve" smooth="yes"/>
      <point x="68" y="74"/>
      <point x="161" y="-19"/>
    </contour>
  </outline>
</glyph>
<glyph name="numbersign" format="2">
  <advance width="1324"/>
  <unicode hex="0023"/>
  <outline>
    <contour>
      <point x="656" y="0" type="line"/>
      <point x="946" y="0" type="line"/>
      <point x="1192" y="1490" type="line"/>
      <point x="900" y="1490" type="line"/>
    </contour>
    <contour>
      <point x="-4" y="340" type="line"/>
      <point x="1194" y="340" type="line"/>
      <point x="1244" y="632" type="line"/>
      <point x="46" y="632" type="line"/>
    </contour>
    <contour>
      <point x="132" y="0" type="line"/>
      <point x="424" y="0" type="line"/>
      <point x="668" y="1490" type="line"/>
      <point x="376" y="1490" type="line"/>
    </contour>
    <contour>
      <point x="80" y="858" type="line"/>
      <point x="1278" y="858" type="line"/>
      <point x="1328" y="1150" type="line"/>
      <point x="130" y="1150" type="line"/>
    </contour>
  </outline>
</glyph>
<glyph name="ampersand" format="2">
  <advance width="1392"/>
  <unicode hex="0026"/>
  <outline>
    <contour>
      <point x="562" y="-24" type="curve" smooth="yes"/>
      <point x="687" y="-24"/>
      <point x="830" y="11"/>
      <point x="949" y="88" type="curve"/>
      <point x="1060" y="140" type="line"/>
      <point x="1254" y="276"/>
      <point x="1330" y="518"/>
      <point x="1330" y="776" type="curve"/>
      <point x="1012" y="776" type="line"/>
      <point x="1012" y="495"/>
      <point x="789" y="290"/>
      <point x="590" y="290" type="curve" smooth="yes"/>
      <point x="493" y="290"/>
      <point x="430" y="340"/>
      <point x="430" y="424" type="curve" smooth="yes"/>
      <point x="430" y="492"/>
      <point x="471" y="531"/>
      <point x="518" y="564" type="curve" smooth="yes"/>
      <point x="826" y="782" type="line" smooth="yes"/>
      <point x="954" y="873"/>
      <point x="1024" y="996"/>
      <point x="1024" y="1134" type="curve" smooth="yes"/>
      <point x="1024" y="1341"/>
      <point x="870" y="1512"/>
      <point x="620" y="1512" type="curve" smooth="yes"/>
      <point x="358" y="1512"/>
      <point x="184" y="1327"/>
      <point x="184" y="1100" type="curve" smooth="yes"/>
      <point x="184" y="896"/>
      <point x="324" y="735"/>
      <point x="414" y="640" type="curve" smooth="yes"/>
      <point x="1018" y="0" type="line"/>
      <point x="1420" y="0" type="line"/>
      <point x="698" y="794" type="line" smooth="yes"/>
      <point x="586" y="917"/>
      <point x="510" y="1007"/>
      <point x="510" y="1094" type="curve" smooth="yes"/>
      <point x="510" y="1156"/>
      <point x="552" y="1196"/>
      <point x="620" y="1196" type="curve" smooth="yes"/>
      <point x="693" y="1196"/>
      <point x="728" y="1153"/>
      <point x="728" y="1106" type="curve" smooth="yes"/>
      <point x="728" y="1069"/>
      <point x="708" y="1020"/>
      <point x="640" y="978" type="curve" smooth="yes"/>
      <point x="302" y="768" type="line" smooth="yes"/>
      <point x="144" y="670"/>
      <point x="46" y="563"/>
      <point x="46" y="396" type="curve" smooth="yes"/>
      <point x="46" y="165"/>
      <point x="241" y="-24"/>
    </contour>
  </outline>
</glyph>
<glyph name="quotesingle" format="2">
  <advance width="586"/>
  <unicode hex="0027"/>
  <outline>
    <contour>
      <point x="151" y="880" type="line"/>
      <point x="435" y="880" type="line"/>
      <point x="470" y="1490" type="line"/>
      <point x="116" y="1490" type="line"/>
    </contour>
  </outline>
</glyph>
<glyph name="parenleft" format="2">
  <advance width="736"/>
  <unicode hex="0028"/>
  <outline>
    <contour>
      <point x="96" y="592" type="curve" smooth="yes"/>
      <point x="96" y="264"/>
      <point x="174" y="-43"/>
      <point x="322" y="-294" type="curve"/>
      <point x="704" y="-294" type="line"/>
      <point x="575" y="45"/>
      <point x="500" y="296"/>
      <point x="500" y="592" type="curve" smooth="yes"/>
      <point x="500" y="930"/>
      <point x="591" y="1292"/>
      <point x="704" y="1566" type="curve"/>
      <point x="322" y="1566" type="line"/>
      <point x="187" y="1344"/>
      <point x="96" y="951"/>
    </contour>
  </outline>
</glyph>
<glyph name="parenright" format="2">
  <advance width="736"/>
  <unicode hex="0029"/>
  <outline>
    <contour>
      <point x="32" y="-294" type="curve"/>
      <point x="414" y="-294" type="line"/>
      <point x="562" y="-43"/>
      <point x="640" y="264"/>
      <point x="640" y="592" type="curve" smooth="yes"/>
      <point x="640" y="951"/>
      <point x="549" y="1344"/>
      <point x="414" y="1566" type="curve"/>
      <point x="32" y="1566" type="line"/>
      <point x="145" y="1292"/>
      <point x="236" y="930"/>
      <point x="236" y="592" type="curve" smooth="yes"/>
      <point x="236" y="296"/>
      <point x="161" y="45"/>
    </contour>
  </outline>
</glyph>
<glyph name="asterisk" format="2">
  <advance width="1214"/>
  <unicode hex="002A"/>
  <outline>
    <contour>
      <point x="490" y="652" type="line"/>
      <point x="722" y="652" type="line"/>
      <point x="700" y="908" type="line"/>
      <point x="912" y="760" type="line"/>
      <point x="1028" y="962" type="line"/>
      <point x="796" y="1070" type="line"/>
      <point x="1028" y="1178" type="line"/>
      <point x="912" y="1382" type="line"/>
      <point x="700" y="1234" type="line"/>
      <point x="722" y="1490" type="line"/>
      <point x="490" y="1490" type="line"/>
      <point x="514" y="1234" type="line"/>
      <point x="302" y="1382" type="line"/>
      <point x="184" y="1178" type="line"/>
      <point x="418" y="1070" type="line"/>
      <point x="184" y="962" type="line"/>
      <point x="302" y="760" type="line"/>
      <point x="514" y="908" type="line"/>
    </contour>
  </outline>
</glyph>
<glyph name="plus" format="2">
  <advance width="1388"/>
  <unicode hex="002B"/>
  <outline>
    <contour>
      <point x="531" y="36" type="line"/>
      <point x="857" y="36" type="line"/>
      <point x="857" y="1114" type="line"/>
      <point x="531" y="1114" type="line"/>
    </contour>
    <contour>
      <point x="156" y="420" type="line"/>
      <point x="1232" y="420" type="line"/>
      <point x="1232" y="730" type="line"/>
      <point x="156" y="730" type="line"/>
    </contour>
  </outline>
</glyph>
<glyph name="hyphen" format="2">
  <advance width="940"/>
  <unicode hex="002D"/>
  <outline>
    <contour>
      <point x="819" y="720" type="line"/>
      <point x="121" y="720" type="line"/>
      <point x="121" y="418" type="line"/>
      <point x="819" y="418" type="line"/>
    </contour>
  </outline>
</glyph>
<glyph name="period" format="2">
  <advance width="544"/>
  <unicode hex="002E"/>
  <outline>
    <contour>
      <point x="272" y="-19" type="curve" smooth="yes"/>
      <point x="387" y="-19"/>
      <point x="480" y="74"/>
      <point x="480" y="189" type="curve" smooth="yes"/>
      <point x="480" y="304"/>
      <point x="387" y="397"/>
      <point x="272" y="397" type="curve" smooth="yes"/>
      <point x="157" y="397"/>
      <point x="64" y="304"/>
      <point x="64" y="189" type="curve" smooth="yes"/>
      <point x="64" y="74"/>
      <point x="157" y="-19"/>
    </contour>
  </outline>
</glyph>
<glyph name="slash" format="2">
  <advance width="812"/>
  <unicode hex="002F"/>
  <outline>
    <contour>
      <point x="816" y="1560" type="line"/>
      <point x="476" y="1560" type="line"/>
      <point x="-4" y="-224" type="line"/>
      <point x="336" y="-224" type="line"/>
    </contour>
  </outline>
</glyph>
<glyph name="zero" format="2">
  <advance width="1396"/>
  <unicode hex="0030"/>
  <anchor x="698" y="745" name="center"/>
  <anchor x="698" y="1490" name="top"/>
  <outline>
    <contour>
      <point x="698" y="-24" type="curve" smooth="yes"/>
      <point x="1111" y="-24"/>
      <point x="1356" y="267"/>
      <point x="1356" y="744" type="curve" smooth="yes"/>
      <point x="1356" y="1222"/>
      <point x="1111" y="1514"/>
      <point x="698" y="1514" type="curve" smooth="yes"/>
      <point x="285" y="1514"/>
      <point x="40" y="1221"/>
      <point x="40" y="744" type="curve" smooth="yes"/>
      <point x="40" y="268"/>
      <point x="285" y="-24"/>
    </contour>
    <contour>
      <point x="698" y="296" type="curve" smooth="yes"/>
      <point x="533" y="296"/>
      <point x="432" y="466"/>
      <point x="432" y="744" type="curve" smooth="yes"/>
      <point x="432" y="1023"/>
      <point x="533" y="1194"/>
      <point x="698" y="1194" type="curve" smooth="yes"/>
      <point x="863" y="1194"/>
      <point x="964" y="1023"/>
      <point x="964" y="744" type="curve" smooth="yes"/>
      <point x="964" y="466"/>
      <point x="863" y="296"/>
    </contour>
  </outline>
</glyph>
<glyph name="two" format="2">
  <advance width="1291"/>
  <unicode hex="0032"/>
  <anchor x="739" y="649" name="cross"/>
  <anchor x="642" y="1490" name="top"/>
  <outline>
    <contour>
      <point x="75" y="0" type="line"/>
      <point x="1219" y="0" type="line"/>
      <point x="1219" y="322" type="line"/>
      <point x="639" y="322" type="line"/>
      <point x="639" y="324" type="line"/>
      <point x="880" y="520" type="line" smooth="yes"/>
      <point x="1078" y="681"/>
      <point x="1215" y="816"/>
      <point x="1215" y="1039" type="curve" smooth="yes"/>
      <point x="1215" y="1335"/>
      <point x="975" y="1514"/>
      <point x="645" y="1514" type="curve" smooth="yes"/>
      <point x="284" y="1514"/>
      <point x="60" y="1299"/>
      <point x="60" y="952" type="curve"/>
      <point x="441" y="952" type="line"/>
      <point x="441" y="1107"/>
      <point x="523" y="1194"/>
      <point x="644" y="1194" type="curve" smooth="yes"/>
      <point x="755" y="1194"/>
      <point x="829" y="1122"/>
      <point x="829" y="1016" type="curve" smooth="yes"/>
      <point x="829" y="887"/>
      <point x="718" y="809"/>
      <point x="635" y="742" type="curve" smooth="yes"/>
      <point x="75" y="290" type="line"/>
    </contour>
  </outline>
</glyph>
<glyph name="three" format="2">
  <advance width="1306"/>
  <unicode hex="0033"/>
  <anchor x="658" y="1490" name="top"/>
  <outline>
    <contour>
      <point x="654" y="-24" type="curve" smooth="yes"/>
      <point x="1019" y="-24"/>
      <point x="1266" y="165"/>
      <point x="1266" y="420" type="curve" smooth="yes"/>
      <point x="1266" y="598"/>
      <point x="1146" y="756"/>
      <point x="922" y="779" type="curve"/>
      <point x="922" y="782" type="line"/>
      <point x="1091" y="802"/>
      <point x="1220" y="918"/>
      <point x="1220" y="1100" type="curve" smooth="yes"/>
      <point x="1220" y="1343"/>
      <point x="988" y="1514"/>
      <point x="658" y="1514" type="curve" smooth="yes"/>
      <point x="294" y="1514"/>
      <point x="78" y="1305"/>
      <point x="78" y="1032" type="curve"/>
      <point x="466" y="1032" type="line"/>
      <point x="466" y="1139"/>
      <point x="548" y="1214"/>
      <point x="658" y="1214" type="curve" smooth="yes"/>
      <point x="763" y="1214"/>
      <point x="839" y="1145"/>
      <point x="839" y="1050" type="curve" smooth="yes"/>
      <point x="839" y="953"/>
      <point x="760" y="896"/>
      <point x="626" y="896" type="curve" smooth="yes"/>
      <point x="482" y="896" type="line"/>
      <point x="482" y="616" type="line"/>
      <point x="626" y="616" type="line" smooth="yes"/>
      <point x="765" y="616"/>
      <point x="854" y="551"/>
      <point x="854" y="451" type="curve" smooth="yes"/>
      <point x="854" y="354"/>
      <point x="771" y="286"/>
      <point x="652" y="286" type="curve" smooth="yes"/>
      <point x="520" y="286"/>
      <point x="440" y="371"/>
      <point x="440" y="512" type="curve"/>
      <point x="50" y="512" type="line"/>
      <point x="50" y="234"/>
      <point x="228" y="-24"/>
    </contour>
  </outline>
</glyph>
<glyph name="four" format="2">
  <advance width="1414"/>
  <unicode hex="0034"/>
  <outline>
    <contour>
      <point x="64" y="288" type="line"/>
      <point x="1348" y="288" type="line"/>
      <point x="1348" y="594" type="line"/>
      <point x="471" y="594" type="line"/>
      <point x="471" y="596" type="line"/>
      <point x="1074" y="1490" type="line"/>
      <point x="671" y="1490" type="line"/>
      <point x="64" y="602" type="line"/>
    </contour>
    <contour>
      <point x="792" y="0" type="line"/>
      <point x="1174" y="0" type="line"/>
      <point x="1174" y="928" type="line"/>
      <point x="792" y="928" type="line"/>
      <point x="792" y="522" type="line"/>
      <point x="792" y="384" type="line"/>
    </contour>
  </outline>
</glyph>
<glyph name="five" format="2">
  <advance width="1270"/>
  <unicode hex="0035"/>
  <outline>
    <contour>
      <point x="632" y="-24" type="curve" smooth="yes"/>
      <point x="994" y="-24"/>
      <point x="1230" y="200"/>
      <point x="1230" y="512" type="curve" smooth="yes"/>
      <point x="1230" y="795"/>
      <point x="980" y="1017"/>
      <point x="715" y="1017" type="curve" smooth="yes"/>
      <point x="605" y="1017"/>
      <point x="512" y="985"/>
      <point x="451" y="925" type="curve"/>
      <point x="449" y="925" type="line"/>
      <point x="468" y="1166" type="line"/>
      <point x="1138" y="1166" type="line"/>
      <point x="1138" y="1490" type="line"/>
      <point x="104" y="1490" type="line"/>
      <point x="62" y="600" type="line"/>
      <point x="434" y="600" type="line"/>
      <point x="457" y="674"/>
      <point x="532" y="724"/>
      <point x="635" y="724" type="curve" smooth="yes"/>
      <point x="755" y="724"/>
      <point x="840" y="631"/>
      <point x="840" y="500" type="curve" smooth="yes"/>
      <point x="840" y="370"/>
      <point x="757" y="282"/>
      <point x="635" y="282" type="curve" smooth="yes"/>
      <point x="515" y="282"/>
      <point x="425" y="366"/>
      <point x="425" y="480" type="curve"/>
      <point x="40" y="480" type="line"/>
      <point x="60" y="166"/>
      <point x="288" y="-24"/>
    </contour>
  </outline>
</glyph>
<glyph name="six" format="2">
  <advance width="1322"/>
  <unicode hex="0036"/>
  <outline>
    <contour>
      <point x="686" y="-24" type="curve" smooth="yes"/>
      <point x="1034" y="-24"/>
      <point x="1282" y="186"/>
      <point x="1282" y="498" type="curve" smooth="yes"/>
      <point x="1282" y="789"/>
      <point x="1062" y="1000"/>
      <point x="758" y="1000" type="curve" smooth="yes"/>
      <point x="609" y="1000"/>
      <point x="498" y="950"/>
      <point x="420" y="838" type="curve"/>
      <point x="418" y="838" type="line"/>
      <point x="418" y="1069"/>
      <point x="498" y="1210"/>
      <point x="673" y="1210" type="curve" smooth="yes"/>
      <point x="786" y="1210"/>
      <point x="863" y="1150"/>
      <point x="880" y="1056" type="curve"/>
      <point x="1262" y="1056" type="line"/>
      <point x="1237" y="1311"/>
      <point x="1017" y="1514"/>
      <point x="688" y="1514" type="curve" smooth="yes"/>
      <point x="282" y="1514"/>
      <point x="40" y="1210"/>
      <point x="40" y="728" type="curve" smooth="yes"/>
      <point x="40" y="254"/>
      <point x="279" y="-24"/>
    </contour>
    <contour>
      <point x="682" y="288" type="curve" smooth="yes"/>
      <point x="563" y="288"/>
      <point x="476" y="376"/>
      <point x="476" y="498" type="curve" smooth="yes"/>
      <point x="476" y="620"/>
      <point x="563" y="708"/>
      <point x="682" y="708" type="curve" smooth="yes"/>
      <point x="803" y="708"/>
      <point x="890" y="620"/>
      <point x="890" y="498" type="curve" smooth="yes"/>
      <point x="890" y="376"/>
      <point x="803" y="288"/>
    </contour>
  </outline>
</glyph>
<glyph name="seven" format="2">
  <advance width="1186"/>
  <unicode hex="0037"/>
  <outline>
    <contour>
      <point x="142" y="0" type="line"/>
      <point x="558" y="0" type="line"/>
      <point x="1146" y="1166" type="line"/>
      <point x="1146" y="1490" type="line"/>
      <point x="40" y="1490" type="line"/>
      <point x="40" y="1152" type="line"/>
      <point x="726" y="1152" type="line"/>
      <point x="726" y="1150" type="line"/>
    </contour>
  </outline>
</glyph>
<glyph name="eight" format="2">
  <advance width="1314"/>
  <unicode hex="0038"/>
  <outline>
    <contour>
      <point x="656" y="-24" type="curve" smooth="yes"/>
      <point x="1029" y="-24"/>
      <point x="1274" y="146"/>
      <point x="1274" y="404" type="curve" smooth="yes"/>
      <point x="1274" y="609"/>
      <point x="1124" y="740"/>
      <point x="880" y="772" type="curve"/>
      <point x="880" y="771" type="line"/>
      <point x="1098" y="803"/>
      <point x="1228" y="919"/>
      <point x="1228" y="1106" type="curve" smooth="yes"/>
      <point x="1228" y="1355"/>
      <point x="1005" y="1514"/>
      <point x="656" y="1514" type="curve" smooth="yes"/>
      <point x="315" y="1514"/>
      <point x="86" y="1350"/>
      <point x="86" y="1106" type="curve" smooth="yes"/>
      <point x="86" y="919"/>
      <point x="217" y="802"/>
      <point x="434" y="771" type="curve"/>
      <point x="434" y="772" type="line"/>
      <point x="190" y="740"/>
      <point x="40" y="609"/>
      <point x="40" y="404" type="curve" smooth="yes"/>
      <point x="40" y="146"/>
      <point x="284" y="-24"/>
    </contour>
    <contour>
      <point x="656" y="254" type="curve" smooth="yes"/>
      <point x="542" y="254"/>
      <point x="460" y="330"/>
      <point x="460" y="436" type="curve" smooth="yes"/>
      <point x="460" y="541"/>
      <point x="542" y="616"/>
      <point x="656" y="616" type="curve" smooth="yes"/>
      <point x="771" y="616"/>
      <point x="854" y="541"/>
      <point x="854" y="436" type="curve" smooth="yes"/>
      <point x="854" y="331"/>
      <point x="770" y="254"/>
    </contour>
    <contour>
      <point x="656" y="907" type="curve" smooth="yes"/>
      <point x="550" y="907"/>
      <point x="482" y="969"/>
      <point x="482" y="1066" type="curve" smooth="yes"/>
      <point x="482" y="1163"/>
      <point x="550" y="1225"/>
      <point x="656" y="1225" type="curve" smooth="yes"/>
      <point x="763" y="1225"/>
      <point x="832" y="1163"/>
      <point x="832" y="1066" type="curve" smooth="yes"/>
      <point x="832" y="969"/>
      <point x="763" y="907"/>
    </contour>
  </outline>
</glyph>
<glyph name="nine" format="2">
  <advance width="1322"/>
  <unicode hex="0039"/>
  <outline>
    <contour>
      <point x="634" y="-24" type="curve" smooth="yes"/>
      <point x="1040" y="-24"/>
      <point x="1282" y="280"/>
      <point x="1282" y="762" type="curve" smooth="yes"/>
      <point x="1282" y="1236"/>
      <point x="1043" y="1514"/>
      <point x="636" y="1514" type="curve" smooth="yes"/>
      <point x="288" y="1514"/>
      <point x="40" y="1304"/>
      <point x="40" y="992" type="curve" smooth="yes"/>
      <point x="40" y="701"/>
      <point x="260" y="490"/>
      <point x="564" y="490" type="curve" smooth="yes"/>
      <point x="713" y="490"/>
      <point x="824" y="540"/>
      <point x="902" y="652" type="curve"/>
      <point x="904" y="652" type="line"/>
      <point x="904" y="421"/>
      <point x="824" y="280"/>
      <point x="649" y="280" type="curve" smooth="yes"/>
      <point x="536" y="280"/>
      <point x="459" y="340"/>
      <point x="442" y="434" type="curve"/>
      <point x="60" y="434" type="line"/>
      <point x="85" y="179"/>
      <point x="305" y="-24"/>
    </contour>
    <contour>
      <point x="640" y="782" type="curve" smooth="yes"/>
      <point x="519" y="782"/>
      <point x="432" y="870"/>
      <point x="432" y="992" type="curve" smooth="yes"/>
      <point x="432" y="1114"/>
      <point x="519" y="1202"/>
      <point x="640" y="1202" type="curve" smooth="yes"/>
      <point x="759" y="1202"/>
      <point x="846" y="1114"/>
      <point x="846" y="992" type="curve" smooth="yes"/>
      <point x="846" y="870"/>
      <point x="759" y="782"/>
    </contour>
  </outline>
</glyph>
<glyph name="less" format="2">
  <advance width="1388"/>
  <unicode hex="003C"/>
  <outline>
    <contour>
      <point x="144" y="430" type="line"/>
      <point x="1226" y="-2" type="line"/>
      <point x="1226" y="364" type="line"/>
      <point x="538" y="602" type="line"/>
      <point x="550" y="584" type="line"/>
      <point x="550" y="626" type="line"/>
      <point x="538" y="608" type="line"/>
      <point x="1226" y="846" type="line"/>
      <point x="1226" y="1214" type="line"/>
      <point x="144" y="780" type="line"/>
    </contour>
  </outline>
</glyph>
<glyph name="equal" format="2">
  <advance width="1388"/>
  <unicode hex="003D"/>
  <outline>
    <contour>
      <point x="156" y="702" type="line"/>
      <point x="1232" y="702" type="line"/>
      <point x="1232" y="1026" type="line"/>
      <point x="156" y="1026" type="line"/>
    </contour>
    <contour>
      <point x="156" y="184" type="line"/>
      <point x="1232" y="184" type="line"/>
      <point x="1232" y="510" type="line"/>
      <point x="156" y="510" type="line"/>
    </contour>
  </outline>
</glyph>
<glyph name="greater" format="2">
  <advance width="1388"/>
  <unicode hex="003E"/>
  <outline>
    <contour>
      <point x="1244" y="430" type="line"/>
      <point x="1244" y="780" type="line"/>
      <point x="162" y="1214" type="line"/>
      <point x="162" y="846" type="line"/>
      <point x="852" y="608" type="line"/>
      <point x="840" y="626" type="line"/>
      <point x="840" y="584" type="line"/>
      <point x="852" y="602" type="line"/>
      <point x="162" y="364" type="line"/>
      <point x="162" y="-2" type="line"/>
    </contour>
  </outline>
</glyph>
<glyph name="question" format="2">
  <advance width="1238"/>
  <unicode hex="003F"/>
  <outline>
    <contour>
      <point x="416" y="472" type="line"/>
      <point x="758" y="472" type="line"/>
      <point x="758" y="508" type="line" smooth="yes"/>
      <point x="758" y="609"/>
      <point x="852" y="669"/>
      <point x="969" y="744" type="curve" smooth="yes"/>
      <point x="1097" y="826"/>
      <point x="1158" y="945"/>
      <point x="1158" y="1100" type="curve" smooth="yes"/>
      <point x="1158" y="1340"/>
      <point x="937" y="1510"/>
      <point x="620" y="1510" type="curve" smooth="yes"/>
      <point x="286" y="1510"/>
      <point x="64" y="1302"/>
      <point x="64" y="1018" type="curve"/>
      <point x="436" y="1018" type="line"/>
      <point x="436" y="1126"/>
      <point x="507" y="1198"/>
      <point x="614" y="1198" type="curve" smooth="yes"/>
      <point x="710" y="1198"/>
      <point x="776" y="1138"/>
      <point x="776" y="1052" type="curve" smooth="yes"/>
      <point x="776" y="982"/>
      <point x="733" y="920"/>
      <point x="641" y="875" type="curve" smooth="yes"/>
      <point x="468" y="790"/>
      <point x="416" y="710"/>
      <point x="416" y="530" type="curve" smooth="yes"/>
    </contour>
    <contour>
      <point x="593" y="-19" type="curve" smooth="yes"/>
      <point x="708" y="-19"/>
      <point x="801" y="74"/>
      <point x="801" y="189" type="curve" smooth="yes"/>
      <point x="801" y="304"/>
      <point x="708" y="397"/>
      <point x="593" y="397" type="curve" smooth="yes"/>
      <point x="478" y="397"/>
      <point x="385" y="304"/>
      <point x="385" y="189" type="curve" smooth="yes"/>
      <point x="385" y="74"/>
      <point x="478" y="-19"/>
    </contour>
  </outline>
</glyph>
<glyph name="at" format="2">
  <advance width="2120"/>
  <unicode hex="0040"/>
  <outline>
    <contour>
      <point x="1085" y="-457" type="curve" smooth="yes"/>
      <point x="1347" y="-457"/>
      <point x="1529" y="-394"/>
      <point x="1623" y="-351" type="curve"/>
      <point x="1510" y="-74" type="line"/>
      <point x="1446" y="-102"/>
      <point x="1281" y="-155"/>
      <point x="1083" y="-155" type="curve" smooth="yes"/>
      <point x="643" y="-155"/>
      <point x="366" y="107"/>
      <point x="366" y="527" type="curve" smooth="yes"/>
      <point x="366" y="946"/>
      <point x="643" y="1211"/>
      <point x="1086" y="1211" type="curve" smooth="yes"/>
      <point x="1496" y="1211"/>
      <point x="1754" y="983"/>
      <point x="1754" y="595" type="curve" smooth="yes"/>
      <point x="1754" y="397"/>
      <point x="1687" y="262"/>
      <point x="1591" y="262" type="curve" smooth="yes"/>
      <point x="1564" y="262"/>
      <point x="1537" y="273"/>
      <point x="1537" y="329" type="curve" smooth="yes"/>
      <point x="1537" y="1019" type="line"/>
      <point x="1281" y="1019" type="line"/>
      <point x="1281" y="924" type="line"/>
      <point x="1279" y="924" type="line"/>
      <point x="1244" y="993"/>
      <point x="1132" y="1041"/>
      <point x="999" y="1041" type="curve" smooth="yes"/>
      <point x="753" y="1041"/>
      <point x="524" y="876"/>
      <point x="524" y="528" type="curve" smooth="yes"/>
      <point x="524" y="207"/>
      <point x="719" y="-4"/>
      <point x="1010" y="-4" type="curve" smooth="yes"/>
      <point x="1175" y="-4"/>
      <point x="1278" y="65"/>
      <point x="1308" y="142" type="curve"/>
      <point x="1310" y="142" type="line"/>
      <point x="1328" y="47"/>
      <point x="1434" y="-13"/>
      <point x="1590" y="-13" type="curve" smooth="yes"/>
      <point x="1890" y="-13"/>
      <point x="2080" y="208"/>
      <point x="2080" y="597" type="curve" smooth="yes"/>
      <point x="2080" y="1149"/>
      <point x="1696" y="1513"/>
      <point x="1078" y="1513" type="curve" smooth="yes"/>
      <point x="443" y="1513"/>
      <point x="40" y="1129"/>
      <point x="40" y="526" type="curve" smooth="yes"/>
      <point x="40" y="-78"/>
      <point x="443" y="-457"/>
    </contour>
    <contour>
      <point x="1042" y="292" type="curve" smooth="yes"/>
      <point x="899" y="292"/>
      <point x="819" y="377"/>
      <point x="819" y="528" type="curve" smooth="yes"/>
      <point x="819" y="680"/>
      <point x="899" y="765"/>
      <point x="1042" y="765" type="curve" smooth="yes"/>
      <point x="1177" y="765"/>
      <point x="1253" y="680"/>
      <point x="1253" y="528" type="curve" smooth="yes"/>
      <point x="1253" y="377"/>
      <point x="1177" y="292"/>
    </contour>
  </outline>
</glyph>
<glyph name="A" format="2">
  <advance width="1565"/>
  <unicode hex="0041"/>
  <anchor x="783" y="0" name="bottom"/>
  <anchor x="1565" y="0" name="ogonek"/>
  <anchor x="430" y="1490" name="tonos"/>
  <anchor x="783" y="1490" name="top"/>
  <outline>
    <contour>
      <point x="0" y="0" type="line"/>
      <point x="455" y="0" type="line"/>
      <point x="628" y="578" type="line" smooth="yes"/>
      <point x="703" y="829"/>
      <point x="771" y="1067"/>
      <point x="838" y="1331" type="curve"/>
      <point x="726" y="1331" type="line"/>
      <point x="790" y="1067"/>
      <point x="858" y="829"/>
      <point x="930" y="578" type="curve" smooth="yes"/>
      <point x="1097" y="0" type="line"/>
      <point x="1565" y="0" type="line"/>
      <point x="1060" y="1490" type="line"/>
      <point x="500" y="1490" type="line"/>
    </contour>
    <contour>
      <point x="373" y="245" type="line"/>
      <point x="1193" y="245" type="line"/>
      <point x="1193" y="565" type="line"/>
      <point x="373" y="565" type="line"/>
    </contour>
  </outline>
</glyph>
<glyph name="B" format="2">
  <advance width="1331"/>
  <unicode hex="0042"/>
  <anchor x="648" y="0" name="bottom"/>
  <anchor x="312" y="459" name="cross"/>
  <anchor x="650" y="1490" name="top"/>
  <anchor x="80" y="1490" name="topl"/>
  <outline>
    <contour>
      <point x="80" y="0" type="line"/>
      <point x="782" y="0" type="line" smooth="yes"/>
      <point x="1105" y="0"/>
      <point x="1296" y="178"/>
      <point x="1296" y="422" type="curve" smooth="yes"/>
      <point x="1296" y="632"/>
      <point x="1150" y="776"/>
      <point x="958" y="783" type="curve"/>
      <point x="958" y="785" type="line"/>
      <point x="1131" y="818"/>
      <point x="1246" y="945"/>
      <point x="1246" y="1118" type="curve" smooth="yes"/>
      <point x="1246" y="1335"/>
      <point x="1066" y="1490"/>
      <point x="726" y="1490" type="curve" smooth="yes"/>
      <point x="80" y="1490" type="line"/>
    </contour>
    <contour>
      <point x="484" y="312" type="line"/>
      <point x="484" y="606" type="line"/>
      <point x="704" y="606" type="line" smooth="yes"/>
      <point x="805" y="606"/>
      <point x="870" y="548"/>
      <point x="870" y="459" type="curve" smooth="yes"/>
      <point x="870" y="370"/>
      <point x="805" y="312"/>
      <point x="704" y="312" type="curve" smooth="yes"/>
    </contour>
    <contour>
      <point x="484" y="900" type="line"/>
      <point x="484" y="1178" type="line"/>
      <point x="679" y="1178" type="line" smooth="yes"/>
      <point x="771" y="1178"/>
      <point x="830" y="1123"/>
      <point x="830" y="1039" type="curve" smooth="yes"/>
      <point x="830" y="955"/>
      <point x="771" y="900"/>
      <point x="679" y="900" type="curve" smooth="yes"/>
    </contour>
  </outline>
</glyph>
<glyph name="C" format="2">
  <advance width="1494"/>
  <unicode hex="0043"/>
  <anchor x="750" y="6" name="cedilla"/>
  <anchor x="757" y="745" name="center"/>
  <anchor x="758" y="1490" name="top"/>
  <anchor x="1456" y="928" name="topr"/>
  <outline>
    <contour>
      <point x="764" y="-24" type="curve" smooth="yes"/>
      <point x="1145" y="-24"/>
      <point x="1414" y="208"/>
      <point x="1456" y="560" type="curve"/>
      <point x="1037" y="560" type="line"/>
      <point x="1011" y="420"/>
      <point x="915" y="336"/>
      <point x="772" y="336" type="curve" smooth="yes"/>
      <point x="569" y="336"/>
      <point x="460" y="484"/>
      <point x="460" y="744" type="curve" smooth="yes"/>
      <point x="460" y="1005"/>
      <point x="570" y="1154"/>
      <point x="772" y="1154" type="curve" smooth="yes"/>
      <point x="915" y="1154"/>
      <point x="1012" y="1069"/>
      <point x="1037" y="928" type="curve"/>
      <point x="1456" y="928" type="line"/>
      <point x="1415" y="1280"/>
      <point x="1145" y="1514"/>
      <point x="764" y="1514" type="curve" smooth="yes"/>
      <point x="357" y="1514"/>
      <point x="40" y="1242"/>
      <point x="40" y="744" type="curve" smooth="yes"/>
      <point x="40" y="250"/>
      <point x="357" y="-24"/>
    </contour>
  </outline>
</glyph>
<glyph name="D" format="2">
  <advance width="1456"/>
  <unicode hex="0044"/>
  <anchor x="666" y="0" name="bottom"/>
  <anchor x="377" y="745" name="cross"/>
  <anchor x="586" y="1490" name="top"/>
  <anchor x="80" y="1490" name="topl"/>
  <outline>
    <contour>
      <point x="662" y="0" type="line"/>
      <point x="1121" y="0"/>
      <point x="1416" y="292"/>
      <point x="1416" y="744" type="curve" smooth="yes"/>
      <point x="1416" y="1197"/>
      <point x="1116" y="1490"/>
      <point x="656" y="1490" type="curve" smooth="yes"/>
      <point x="248" y="1490" type="line"/>
      <point x="248" y="1146" type="line"/>
      <point x="630" y="1146" type="line" smooth="yes"/>
      <point x="881" y="1146"/>
      <point x="996" y="1017"/>
      <point x="996" y="744" type="curve" smooth="yes"/>
      <point x="996" y="473"/>
      <point x="885" y="344"/>
      <point x="642" y="344" type="curve" smooth="yes"/>
      <point x="254" y="344" type="line"/>
      <point x="254" y="0" type="line"/>
    </contour>
    <contour>
      <point x="496" y="1490" type="line"/>
      <point x="80" y="1490" type="line"/>
      <point x="80" y="0" type="line"/>
      <point x="496" y="0" type="line"/>
    </contour>
  </outline>
</glyph>
<glyph name="E" format="2">
  <advance width="1294"/>
  <unicode hex="0045"/>
  <anchor x="657" y="0" name="bottom"/>
  <anchor x="655" y="0" name="cedilla"/>
  <anchor x="1234" y="0" name="ogonek"/>
  <anchor x="80" y="1490" name="tonos"/>
  <anchor x="657" y="1490" name="top"/>
  <outline>
    <contour>
      <point x="80" y="0" type="line"/>
      <point x="1234" y="0" type="line"/>
      <point x="1234" y="352" type="line"/>
      <point x="496" y="352" type="line"/>
      <point x="496" y="574" type="line"/>
      <point x="1177" y="574" type="line"/>
      <point x="1177" y="914" type="line"/>
      <point x="496" y="914" type="line"/>
      <point x="496" y="1138" type="line"/>
      <point x="1234" y="1138" type="line"/>
      <point x="1234" y="1490" type="line"/>
      <point x="80" y="1490" type="line"/>
    </contour>
  </outline>
</glyph>
<glyph name="F" format="2">
  <advance width="1239"/>
  <unicode hex="0046"/>
  <anchor x="288" y="0" name="bottom"/>
  <anchor x="288" y="250" name="cross"/>
  <anchor x="80" y="0" name="lfthook"/>
  <anchor x="637" y="1490" name="top"/>
  <outline>
    <contour>
      <point x="80" y="0" type="line"/>
      <point x="496" y="0" type="line"/>
      <point x="496" y="536" type="line"/>
      <point x="1159" y="536" type="line"/>
      <point x="1159" y="874" type="line"/>
      <point x="496" y="874" type="line"/>
      <point x="496" y="1138" type="line"/>
      <point x="1199" y="1138" type="line"/>
      <point x="1199" y="1490" type="line"/>
      <point x="80" y="1490" type="line"/>
    </contour>
  </outline>
</glyph>
<glyph name="H" format="2">
  <advance width="1488"/>
  <unicode hex="0048"/>
  <anchor x="744" y="0" name="bottom"/>
  <anchor x="288" y="0" name="cedilla"/>
  <anchor x="1408" y="0" name="cyrtic"/>
  <anchor x="992" y="0" name="lfthook"/>
  <anchor x="1408" y="0" name="right"/>
  <anchor x="80" y="1490" name="tonos"/>
  <anchor x="744" y="1490" name="top"/>
  <outline>
    <contour>
      <point x="80" y="0" type="line"/>
      <point x="496" y="0" type="line"/>
      <point x="496" y="581" type="line"/>
      <point x="992" y="581" type="line"/>
      <point x="992" y="0" type="line"/>
      <point x="1408" y="0" type="line"/>
      <point x="1408" y="1490" type="line"/>
      <point x="992" y="1490" type="line"/>
      <point x="992" y="933" type="line"/>
      <point x="496" y="933" type="line"/>
      <point x="496" y="1490" type="line"/>
      <point x="80" y="1490" type="line"/>
    </contour>
  </outline>
</glyph>
<glyph name="I" format="2">
  <advance width="576"/>
  <unicode hex="0049"/>
  <anchor x="288" y="0" name="bottom"/>
  <anchor x="288" y="788" name="cross"/>
  <anchor x="496" y="0" name="ogonek"/>
  <anchor x="522" y="0" name="right"/>
  <anchor x="80" y="1490" name="tonos"/>
  <anchor x="288" y="1490" name="top"/>
  <outline>
    <contour>
      <point x="548" y="1490" type="line"/>
      <point x="28" y="1490" type="line"/>
      <point x="28" y="1382" type="line"/>
      <point x="80" y="1382" type="line"/>
      <point x="80" y="108" type="line"/>
      <point x="28" y="108" type="line"/>
      <point x="28" y="0" type="line"/>
      <point x="548" y="0" type="line"/>
      <point x="548" y="108" type="line"/>
      <point x="496" y="108" type="line"/>
      <point x="496" y="1382" type="line"/>
      <point x="548" y="1382" type="line"/>
    </contour>
  </outline>
</glyph>
<glyph name="J" format="2">
  <advance width="1199"/>
  <unicode hex="004A"/>
  <anchor x="911" y="884" name="cross"/>
  <anchor x="911" y="1490" name="top"/>
  <outline>
    <contour>
      <point x="573" y="-24" type="curve" smooth="yes"/>
      <point x="924" y="-24"/>
      <point x="1119" y="150"/>
      <point x="1119" y="462" type="curve" smooth="yes"/>
      <point x="1119" y="1490" type="line"/>
      <point x="703" y="1490" type="line"/>
      <point x="703" y="470" type="line" smooth="yes"/>
      <point x="703" y="374"/>
      <point x="654" y="320"/>
      <point x="566" y="320" type="curve" smooth="yes"/>
      <point x="478" y="320"/>
      <point x="429" y="374"/>
      <point x="429" y="470" type="curve" smooth="yes"/>
      <point x="429" y="592" type="line"/>
      <point x="45" y="592" type="line"/>
      <point x="45" y="474" type="line" smooth="yes"/>
      <point x="45" y="154"/>
      <point x="234" y="-24"/>
    </contour>
  </outline>
</glyph>
<glyph name="L" format="2">
  <advance width="1178"/>
  <unicode hex="004C"/>
  <anchor x="588" y="0" name="bottom"/>
  <anchor x="381" y="745" name="cross"/>
  <anchor x="594" y="872" name="dot"/>
  <anchor x="692" y="1490" name="raccent"/>
  <anchor x="288" y="1490" name="top"/>
  <outline>
    <contour>
      <point x="80" y="0" type="line"/>
      <point x="1138" y="0" type="line"/>
      <point x="1138" y="352" type="line"/>
      <point x="496" y="352" type="line"/>
      <point x="496" y="1490" type="line"/>
      <point x="80" y="1490" type="line"/>
    </contour>
  </outline>
</glyph>
<glyph name="M" format="2">
  <advance width="1894"/>
  <unicode hex="004D"/>
  <anchor x="947" y="0" name="bottom"/>
  <anchor x="1814" y="0" name="cyrtic"/>
  <anchor x="947" y="1490" name="top"/>
  <outline>
    <contour>
      <point x="80" y="0" type="line"/>
      <point x="488" y="0" type="line"/>
      <point x="488" y="576" type="line" smooth="yes"/>
      <point x="488" y="712"/>
      <point x="472" y="1035"/>
      <point x="472" y="1264" type="curve"/>
      <point x="419" y="1264" type="line"/>
      <point x="478" y="1035"/>
      <point x="560" y="719"/>
      <point x="604" y="576" type="curve" smooth="yes"/>
      <point x="780" y="0" type="line"/>
      <point x="1116" y="0" type="line"/>
      <point x="1289" y="576" type="line" smooth="yes"/>
      <point x="1332" y="719"/>
      <point x="1412" y="1035"/>
      <point x="1469" y="1264" type="curve"/>
      <point x="1422" y="1264" type="line"/>
      <point x="1422" y="1035"/>
      <point x="1406" y="712"/>
      <point x="1406" y="576" type="curve" smooth="yes"/>
      <point x="1406" y="0" type="line"/>
      <point x="1814" y="0" type="line"/>
      <point x="1814" y="1490" type="line"/>
      <point x="1191" y="1490" type="line"/>
      <point x="1059" y="1024" type="line" smooth="yes"/>
      <point x="1014" y="864"/>
      <point x="929" y="528"/>
      <point x="895" y="368" type="curve"/>
      <point x="1002" y="368" type="line"/>
      <point x="968" y="528"/>
      <point x="882" y="864"/>
      <point x="836" y="1024" type="curve" smooth="yes"/>
      <point x="702" y="1490" type="line"/>
      <point x="80" y="1490" type="line"/>
    </contour>
  </outline>
</glyph>
<glyph name="N" format="2">
  <advance width="1512"/>
  <unicode hex="004E"/>
  <anchor x="758" y="0" name="bottom"/>
  <anchor x="80" y="0" name="lfthook"/>
  <anchor x="1432" y="0" name="lfthook2"/>
  <anchor x="758" y="1490" name="top"/>
  <outline>
    <contour>
      <point x="80" y="0" type="line"/>
      <point x="496" y="0" type="line"/>
      <point x="496" y="544" type="line" smooth="yes"/>
      <point x="496" y="633"/>
      <point x="496" y="845"/>
      <point x="480" y="1056" type="curve"/>
      <point x="398" y="1032" type="line"/>
      <point x="499" y="835"/>
      <point x="608" y="641"/>
      <point x="669" y="544" type="curve" smooth="yes"/>
      <point x="1008" y="0" type="line"/>
      <point x="1432" y="0" type="line"/>
      <point x="1432" y="1490" type="line"/>
      <point x="1016" y="1490" type="line"/>
      <point x="1016" y="944" type="line" smooth="yes"/>
      <point x="1016" y="825"/>
      <point x="1020" y="566"/>
      <point x="1030" y="404" type="curve"/>
      <point x="1080" y="520" type="line"/>
      <point x="1010" y="652"/>
      <point x="914" y="829"/>
      <point x="867" y="905" type="curve" smooth="yes"/>
      <point x="504" y="1490" type="line"/>
      <point x="80" y="1490" type="line"/>
    </contour>
  </outline>
</glyph>
<glyph name="O" format="2">
  <advance width="1528"/>
  <unicode hex="004F"/>
  <anchor x="764" y="0" name="bottom"/>
  <anchor x="764" y="745" name="center"/>
  <anchor x="1488" y="744" name="ogonek"/>
  <anchor x="194" y="1490" name="tonos"/>
  <anchor x="764" y="1490" name="top"/>
  <anchor x="764" y="1514" name="tophorn"/>
  <outline>
    <contour>
      <point x="764" y="-24" type="curve" smooth="yes"/>
      <point x="1169" y="-24"/>
      <point x="1488" y="247"/>
      <point x="1488" y="744" type="curve" smooth="yes"/>
      <point x="1488" y="1242"/>
      <point x="1169" y="1514"/>
      <point x="764" y="1514" type="curve" smooth="yes"/>
      <point x="357" y="1514"/>
      <point x="40" y="1242"/>
      <point x="40" y="744" type="curve" smooth="yes"/>
      <point x="40" y="250"/>
      <point x="357" y="-24"/>
    </contour>
    <contour>
      <point x="764" y="336" type="curve" smooth="yes"/>
      <point x="569" y="336"/>
      <point x="460" y="487"/>
      <point x="460" y="744" type="curve" smooth="yes"/>
      <point x="460" y="1002"/>
      <point x="569" y="1154"/>
      <point x="764" y="1154" type="curve" smooth="yes"/>
      <point x="960" y="1154"/>
      <point x="1068" y="1002"/>
      <point x="1068" y="744" type="curve" smooth="yes"/>
      <point x="1068" y="487"/>
      <point x="960" y="336"/>
    </contour>
  </outline>
</glyph>
<glyph name="P" format="2">
  <advance width="1327"/>
  <unicode hex="0050"/>
  <anchor x="72" y="1490" name="tonos"/>
  <anchor x="654" y="1490" name="top"/>
  <anchor x="84" y="1490" name="topl"/>
  <outline>
    <contour>
      <point x="80" y="0" type="line"/>
      <point x="496" y="0" type="line"/>
      <point x="496" y="1148" type="line"/>
      <point x="682" y="1148" type="line" smooth="yes"/>
      <point x="807" y="1148"/>
      <point x="886" y="1079"/>
      <point x="886" y="970" type="curve" smooth="yes"/>
      <point x="886" y="861"/>
      <point x="807" y="792"/>
      <point x="682" y="792" type="curve" smooth="yes"/>
      <point x="319" y="792" type="line"/>
      <point x="319" y="450" type="line"/>
      <point x="713" y="450" type="line" smooth="yes"/>
      <point x="1069" y="450"/>
      <point x="1292" y="651"/>
      <point x="1292" y="970" type="curve" smooth="yes"/>
      <point x="1292" y="1289"/>
      <point x="1069" y="1490"/>
      <point x="713" y="1490" type="curve" smooth="yes"/>
      <point x="80" y="1490" type="line"/>
    </contour>
  </outline>
</glyph>
<glyph name="Q" format="2">
  <advance width="1528"/>
  <unicode hex="0051"/>
  <anchor x="764" y="0" name="bottom"/>
  <anchor x="764" y="745" name="center"/>
  <anchor x="1488" y="744" name="ogonek"/>
  <anchor x="194" y="1490" name="tonos"/>
  <anchor x="764" y="1490" name="top"/>
  <anchor x="764" y="1514" name="tophorn"/>
  <outline>
    <contour>
      <point x="608" y="552" type="line"/>
      <point x="824" y="268" type="line"/>
      <point x="966" y="96" type="line"/>
      <point x="1136" y="-110" type="line"/>
      <point x="1486" y="-110" type="line"/>
      <point x="1228" y="192" type="line"/>
      <point x="1036" y="410" type="line"/>
      <point x="922" y="552" type="line"/>
    </contour>
    <component base="O"/>
  </outline>
</glyph>
<glyph name="R" format="2">
  <advance width="1363"/>
  <unicode hex="0052"/>
  <anchor x="688" y="0" name="bottom"/>
  <anchor x="680" y="1490" name="top"/>
  <outline>
    <contour>
      <point x="80" y="0" type="line"/>
      <point x="496" y="0" type="line"/>
      <point x="496" y="1152" type="line"/>
      <point x="682" y="1152" type="line" smooth="yes"/>
      <point x="807" y="1152"/>
      <point x="886" y="1079"/>
      <point x="886" y="970" type="curve" smooth="yes"/>
      <point x="886" y="861"/>
      <point x="807" y="788"/>
      <point x="682" y="788" type="curve" smooth="yes"/>
      <point x="336" y="788" type="line"/>
      <point x="336" y="466" type="line"/>
      <point x="691" y="466" type="line" smooth="yes"/>
      <point x="1060" y="466"/>
      <point x="1292" y="660"/>
      <point x="1292" y="970" type="curve" smooth="yes"/>
      <point x="1292" y="1289"/>
      <point x="1069" y="1490"/>
      <point x="713" y="1490" type="curve" smooth="yes"/>
      <point x="80" y="1490" type="line"/>
    </contour>
    <contour>
      <point x="905" y="0" type="line"/>
      <point x="1338" y="0" type="line"/>
      <point x="1006" y="676" type="line"/>
      <point x="581" y="676" type="line"/>
    </contour>
  </outline>
</glyph>
<glyph name="S" format="2">
  <advance width="1403"/>
  <unicode hex="0053"/>
  <anchor x="704" y="0" name="bottom"/>
  <anchor x="701" y="0" name="cedilla"/>
  <anchor x="701" y="1490" name="top"/>
  <outline>
    <contour>
      <point x="704" y="-24" type="curve" smooth="yes"/>
      <point x="1108" y="-24"/>
      <point x="1339" y="154"/>
      <point x="1339" y="466" type="curve" smooth="yes"/>
      <point x="1339" y="704"/>
      <point x="1194" y="836"/>
      <point x="852" y="899" type="curve" smooth="yes"/>
      <point x="732" y="921" type="line" smooth="yes"/>
      <point x="577" y="949"/>
      <point x="510" y="987"/>
      <point x="510" y="1058" type="curve" smooth="yes"/>
      <point x="510" y="1133"/>
      <point x="592" y="1186"/>
      <point x="709" y="1186" type="curve" smooth="yes"/>
      <point x="833" y="1186"/>
      <point x="916" y="1122"/>
      <point x="926" y="1018" type="curve"/>
      <point x="1308" y="1018" type="line"/>
      <point x="1298" y="1330"/>
      <point x="1073" y="1514"/>
      <point x="701" y="1514" type="curve" smooth="yes"/>
      <point x="339" y="1514"/>
      <point x="92" y="1321"/>
      <point x="92" y="1038" type="curve" smooth="yes"/>
      <point x="92" y="817"/>
      <point x="248" y="664"/>
      <point x="536" y="609" type="curve" smooth="yes"/>
      <point x="684" y="581" type="line" smooth="yes"/>
      <point x="852" y="549"/>
      <point x="928" y="507"/>
      <point x="928" y="435" type="curve" smooth="yes"/>
      <point x="928" y="357"/>
      <point x="840" y="304"/>
      <point x="709" y="304" type="curve" smooth="yes"/>
      <point x="558" y="304"/>
      <point x="463" y="375"/>
      <point x="457" y="496" type="curve"/>
      <point x="64" y="496" type="line"/>
      <point x="64" y="161"/>
      <point x="291" y="-24"/>
    </contour>
  </outline>
</glyph>
<glyph name="T" format="2">
  <advance width="1344"/>
  <unicode hex="0054"/>
  <anchor x="671" y="0" name="bottom"/>
  <anchor x="880" y="0" name="bottomr"/>
  <anchor x="673" y="0" name="cedilla"/>
  <anchor x="671" y="666" name="cross"/>
  <anchor x="880" y="0" name="cyrtic"/>
  <anchor x="825" y="0" name="right"/>
  <anchor x="673" y="1490" name="top"/>
  <outline>
    <contour>
      <point x="40" y="1138" type="line"/>
      <point x="464" y="1138" type="line"/>
      <point x="464" y="0" type="line"/>
      <point x="880" y="0" type="line"/>
      <point x="880" y="1138" type="line"/>
      <point x="1304" y="1138" type="line"/>
      <point x="1304" y="1490" type="line"/>
      <point x="40" y="1490" type="line"/>
    </contour>
  </outline>
</glyph>
<glyph name="U" format="2">
  <advance width="1444"/>
  <unicode hex="0055"/>
  <anchor x="722" y="0" name="bottom"/>
  <anchor x="1364" y="530" name="ogonek"/>
  <anchor x="850" y="0" name="right"/>
  <anchor x="960" y="1490" name="rtophorn"/>
  <anchor x="722" y="1490" name="top"/>
  <outline>
    <contour>
      <point x="722" y="-24" type="curve" smooth="yes"/>
      <point x="1111" y="-24"/>
      <point x="1364" y="194"/>
      <point x="1364" y="530" type="curve" smooth="yes"/>
      <point x="1364" y="1490" type="line"/>
      <point x="960" y="1490" type="line"/>
      <point x="960" y="564" type="line" smooth="yes"/>
      <point x="960" y="425"/>
      <point x="862" y="326"/>
      <point x="722" y="326" type="curve" smooth="yes"/>
      <point x="584" y="326"/>
      <point x="484" y="426"/>
      <point x="484" y="564" type="curve" smooth="yes"/>
      <point x="484" y="1490" type="line"/>
      <point x="80" y="1490" type="line"/>
      <point x="80" y="530" type="line" smooth="yes"/>
      <point x="80" y="193"/>
      <point x="332" y="-24"/>
    </contour>
  </outline>
</glyph>
<glyph name="V" format="2">
  <advance width="1536"/>
  <unicode hex="0056"/>
  <anchor x="768" y="0" name="bottom"/>
  <anchor x="768" y="1490" name="top"/>
  <outline>
    <contour>
      <point x="500" y="0" type="line"/>
      <point x="1052" y="0" type="line"/>
      <point x="1536" y="1490" type="line"/>
      <point x="1084" y="1490" type="line"/>
      <point x="919" y="912" type="line" smooth="yes"/>
      <point x="847" y="661"/>
      <point x="783" y="410"/>
      <point x="719" y="159" type="curve"/>
      <point x="841" y="159" type="line"/>
      <point x="774" y="410"/>
      <point x="706" y="661"/>
      <point x="631" y="912" type="curve" smooth="yes"/>
      <point x="458" y="1490" type="line"/>
      <point x="0" y="1490" type="line"/>
    </contour>
  </outline>
</glyph>
<glyph name="W" format="2">
  <advance width="2124"/>
  <unicode hex="0057"/>
  <anchor x="1062" y="0" name="bottom"/>
  <anchor x="1062" y="1490" name="top"/>
  <outline>
    <contour>
      <point x="395" y="0" type="line"/>
      <point x="852" y="0" type="line"/>
      <point x="1021" y="688" type="line" smooth="yes"/>
      <point x="1047" y="794"/>
      <point x="1072" y="944"/>
      <point x="1123" y="1168" type="curve"/>
      <point x="1001" y="1168" type="line"/>
      <point x="1052" y="944"/>
      <point x="1077" y="794"/>
      <point x="1103" y="688" type="curve" smooth="yes"/>
      <point x="1272" y="0" type="line"/>
      <point x="1729" y="0" type="line"/>
      <point x="2124" y="1490" type="line"/>
      <point x="1672" y="1490" type="line"/>
      <point x="1552" y="912" type="line" smooth="yes"/>
      <point x="1507" y="693"/>
      <point x="1469" y="475"/>
      <point x="1432" y="256" type="curve"/>
      <point x="1529" y="256" type="line"/>
      <point x="1487" y="475"/>
      <point x="1446" y="693"/>
      <point x="1396" y="912" type="curve" smooth="yes"/>
      <point x="1264" y="1490" type="line"/>
      <point x="860" y="1490" type="line"/>
      <point x="728" y="912" type="line" smooth="yes"/>
      <point x="678" y="693"/>
      <point x="637" y="475"/>
      <point x="595" y="256" type="curve"/>
      <point x="691" y="256" type="line"/>
      <point x="654" y="475"/>
      <point x="616" y="693"/>
      <point x="571" y="912" type="curve" smooth="yes"/>
      <point x="452" y="1490" type="line"/>
      <point x="0" y="1490" type="line"/>
    </contour>
  </outline>
</glyph>
<glyph name="X" format="2">
  <advance width="1518"/>
  <unicode hex="0058"/>
  <anchor x="759" y="0" name="bottom"/>
  <anchor x="759" y="766" name="cross"/>
  <anchor x="1491" y="0" name="cyrtic"/>
  <anchor x="759" y="1490" name="top"/>
  <outline>
    <contour>
      <point x="0" y="0" type="line"/>
      <point x="470" y="0" type="line"/>
      <point x="641" y="256" type="line" smooth="yes"/>
      <point x="692" y="332"/>
      <point x="738" y="407"/>
      <point x="785" y="483" type="curve"/>
      <point x="731" y="483" type="line"/>
      <point x="778" y="407"/>
      <point x="825" y="332"/>
      <point x="873" y="256" type="curve" smooth="yes"/>
      <point x="1035" y="0" type="line"/>
      <point x="1518" y="0" type="line"/>
      <point x="896" y="915" type="line"/>
      <point x="896" y="626" type="line"/>
      <point x="1460" y="1490" type="line"/>
      <point x="1003" y="1490" type="line"/>
      <point x="882" y="1296" type="line" smooth="yes"/>
      <point x="819" y="1196"/>
      <point x="761" y="1095"/>
      <point x="702" y="995" type="curve"/>
      <point x="824" y="995" type="line"/>
      <point x="767" y="1095"/>
      <point x="709" y="1196"/>
      <point x="648" y="1296" type="curve" smooth="yes"/>
      <point x="529" y="1490" type="line"/>
      <point x="60" y="1490" type="line"/>
      <point x="642" y="602" type="line"/>
      <point x="642" y="911" type="line"/>
    </contour>
  </outline>
</glyph>
<glyph name="Y" format="2">
  <advance width="1496"/>
  <unicode hex="0059"/>
  <anchor x="754" y="0" name="bottom"/>
  <anchor x="756" y="307" name="cross"/>
  <anchor x="956" y="0" name="ogonek"/>
  <anchor x="0" y="1490" name="tonos"/>
  <anchor x="748" y="1490" name="top"/>
  <outline>
    <contour>
      <point x="555" y="0" type="line"/>
      <point x="957" y="0" type="line"/>
      <point x="957" y="508" type="line"/>
      <point x="1496" y="1490" type="line"/>
      <point x="1023" y="1490" type="line"/>
      <point x="822" y="1072" type="line" smooth="yes"/>
      <point x="789" y="1003"/>
      <point x="759" y="933"/>
      <point x="730" y="864" type="curve"/>
      <point x="789" y="864" type="line"/>
      <point x="757" y="933"/>
      <point x="725" y="1003"/>
      <point x="690" y="1072" type="curve" smooth="yes"/>
      <point x="476" y="1490" type="line"/>
      <point x="0" y="1490" type="line"/>
      <point x="555" y="508" type="line"/>
    </contour>
  </outline>
</glyph>
<glyph name="Z" format="2">
  <advance width="1336"/>
  <unicode hex="005A"/>
  <anchor x="668" y="0" name="bottom"/>
  <anchor x="1286" y="0" name="bottomr"/>
  <anchor x="668" y="745" name="cross"/>
  <anchor x="668" y="1490" name="top"/>
  <outline>
    <contour>
      <point x="50" y="0" type="line"/>
      <point x="1286" y="0" type="line"/>
      <point x="1286" y="352" type="line"/>
      <point x="816" y="352" type="line" smooth="yes"/>
      <point x="677" y="352"/>
      <point x="538" y="352"/>
      <point x="399" y="352" type="curve"/>
      <point x="446" y="213" type="line"/>
      <point x="544" y="318"/>
      <point x="641" y="423"/>
      <point x="730" y="528" type="curve" smooth="yes"/>
      <point x="1280" y="1178" type="line"/>
      <point x="1280" y="1490" type="line"/>
      <point x="64" y="1490" type="line"/>
      <point x="64" y="1138" type="line"/>
      <point x="528" y="1138" type="line" smooth="yes"/>
      <point x="666" y="1138"/>
      <point x="805" y="1138"/>
      <point x="943" y="1138" type="curve"/>
      <point x="896" y="1276" type="line"/>
      <point x="794" y="1169"/>
      <point x="698" y="1065"/>
      <point x="607" y="959" type="curve" smooth="yes"/>
      <point x="50" y="312" type="line"/>
    </contour>
  </outline>
</glyph>
<glyph name="bracketleft" format="2">
  <advance width="736"/>
  <unicode hex="005B"/>
  <anchor x="308" y="636" name="cross"/>
  <outline>
    <contour>
      <point x="108" y="-294" type="line"/>
      <point x="676" y="-294" type="line"/>
      <point x="676" y="10" type="line"/>
      <point x="508" y="10" type="line"/>
      <point x="508" y="1262" type="line"/>
      <point x="676" y="1262" type="line"/>
      <point x="676" y="1566" type="line"/>
      <point x="108" y="1566" type="line"/>
    </contour>
  </outline>
</glyph>
<glyph name="backslash" format="2">
  <advance width="812"/>
  <unicode hex="005C"/>
  <outline>
    <contour>
      <point x="476" y="-224" type="line"/>
      <point x="816" y="-224" type="line"/>
      <point x="336" y="1560" type="line"/>
      <point x="-4" y="1560" type="line"/>
    </contour>
  </outline>
</glyph>
<glyph name="bracketright" format="2">
  <advance width="736"/>
  <unicode hex="005D"/>
  <anchor x="428" y="636" name="cross"/>
  <outline>
    <contour>
      <point x="60" y="-294" type="line"/>
      <point x="628" y="-294" type="line"/>
      <point x="628" y="1566" type="line"/>
      <point x="60" y="1566" type="line"/>
      <point x="60" y="1262" type="line"/>
      <point x="228" y="1262" type="line"/>
      <point x="228" y="10" type="line"/>
      <point x="60" y="10" type="line"/>
    </contour>
  </outline>
</glyph>
<glyph name="asciicircum" format="2">
  <advance width="992"/>
  <unicode hex="005E"/>
  <outline>
    <contour>
      <point x="470" y="1306" type="line"/>
      <point x="470" y="1222" type="line"/>
      <point x="522" y="1222" type="line"/>
      <point x="522" y="1306" type="line"/>
    </contour>
    <contour>
      <point x="42" y="814" type="line"/>
      <point x="318" y="814" type="line"/>
      <point x="502" y="1250" type="line"/>
      <point x="490" y="1250" type="line"/>
      <point x="674" y="814" type="line"/>
      <point x="950" y="814" type="line"/>
      <point x="638" y="1466" type="line"/>
      <point x="354" y="1466" type="line"/>
    </contour>
  </outline>
</glyph>
<glyph name="underscore" format="2">
  <advance width="1010"/>
  <unicode hex="005F"/>
  <anchor x="505" y="137" name="_bottom"/>
  <outline>
    <contour>
      <point x="1010" y="0" type="line"/>
      <point x="0" y="0" type="line"/>
      <point x="0" y="-286" type="line"/>
      <point x="1010" y="-286" type="line"/>
    </contour>
  </outline>
</glyph>
<glyph name="b" format="2">
  <advance width="1280"/>
  <unicode hex="0062"/>
  <anchor x="636" y="0" name="bottom"/>
  <anchor x="382" y="1262" name="cross"/>
  <anchor x="820" y="1304" name="top"/>
  <anchor x="86" y="1490" name="topbar"/>
  <outline>
    <contour>
      <point x="778" y="-24" type="curve" smooth="yes"/>
      <point x="1055" y="-24"/>
      <point x="1234" y="194"/>
      <point x="1234" y="530" type="curve" smooth="yes"/>
      <point x="1234" y="853"/>
      <point x="1047" y="1080"/>
      <point x="782" y="1080" type="curve" smooth="yes"/>
      <point x="645" y="1080"/>
      <point x="554" y="1029"/>
      <point x="487" y="918" type="curve"/>
      <point x="486" y="918" type="line"/>
      <point x="486" y="1490" type="line"/>
      <point x="86" y="1490" type="line"/>
      <point x="86" y="0" type="line"/>
      <point x="482" y="0" type="line"/>
      <point x="482" y="164" type="line"/>
      <point x="483" y="164" type="line"/>
      <point x="531" y="40"/>
      <point x="638" y="-24"/>
    </contour>
    <contour>
      <point x="659" y="290" type="curve" smooth="yes"/>
      <point x="550" y="290"/>
      <point x="472" y="384"/>
      <point x="472" y="530" type="curve" smooth="yes"/>
      <point x="472" y="675"/>
      <point x="550" y="768"/>
      <point x="659" y="768" type="curve" smooth="yes"/>
      <point x="768" y="768"/>
      <point x="830" y="675"/>
      <point x="830" y="530" type="curve" smooth="yes"/>
      <point x="830" y="384"/>
      <point x="768" y="290"/>
    </contour>
  </outline>
</glyph>
<glyph name="c" format="2">
  <advance width="1194"/>
  <unicode hex="0063"/>
  <anchor x="610" y="0" name="bottom"/>
  <anchor x="610" y="0" name="cedilla"/>
  <anchor x="618" y="528" name="center"/>
  <anchor x="610" y="1056" name="top"/>
  <anchor x="1150" y="618" name="topr"/>
  <outline>
    <contour>
      <point x="610" y="-24" type="curve" smooth="yes"/>
      <point x="928" y="-24"/>
      <point x="1150" y="168"/>
      <point x="1150" y="442" type="curve"/>
      <point x="768" y="442" type="line"/>
      <point x="761" y="346"/>
      <point x="703" y="286"/>
      <point x="618" y="286" type="curve" smooth="yes"/>
      <point x="513" y="286"/>
      <point x="450" y="377"/>
      <point x="450" y="528" type="curve" smooth="yes"/>
      <point x="450" y="680"/>
      <point x="512" y="770"/>
      <point x="618" y="770" type="curve" smooth="yes"/>
      <point x="703" y="770"/>
      <point x="761" y="712"/>
      <point x="768" y="618" type="curve"/>
      <point x="1150" y="618" type="line"/>
      <point x="1140" y="892"/>
      <point x="920" y="1080"/>
      <point x="610" y="1080" type="curve" smooth="yes"/>
      <point x="272" y="1080"/>
      <point x="46" y="858"/>
      <point x="46" y="528" type="curve" smooth="yes"/>
      <point x="46" y="197"/>
      <point x="271" y="-24"/>
    </contour>
  </outline>
</glyph>
<glyph name="e" format="2">
  <advance width="1194"/>
  <unicode hex="0065"/>
  <anchor x="599" y="0" name="bottom"/>
  <anchor x="608" y="0" name="cedilla"/>
  <anchor x="1148" y="345" name="ogonek"/>
  <anchor x="599" y="1056" name="top"/>
  <outline>
    <contour>
      <point x="607" y="-24" type="curve" smooth="yes"/>
      <point x="885" y="-24"/>
      <point x="1109" y="129"/>
      <point x="1148" y="345" type="curve"/>
      <point x="794" y="345" type="line"/>
      <point x="772" y="288"/>
      <point x="708" y="254"/>
      <point x="623" y="254" type="curve" smooth="yes"/>
      <point x="504" y="254"/>
      <point x="434" y="323"/>
      <point x="434" y="440" type="curve" smooth="yes"/>
      <point x="434" y="617" type="line" smooth="yes"/>
      <point x="434" y="728"/>
      <point x="499" y="794"/>
      <point x="610" y="794" type="curve" smooth="yes"/>
      <point x="721" y="794"/>
      <point x="786" y="728"/>
      <point x="786" y="617" type="curve"/>
      <point x="970" y="656" type="line"/>
      <point x="164" y="656" type="line"/>
      <point x="164" y="432" type="line"/>
      <point x="1152" y="432" type="line"/>
      <point x="1152" y="539" type="line" smooth="yes"/>
      <point x="1152" y="856"/>
      <point x="923" y="1080"/>
      <point x="599" y="1080" type="curve" smooth="yes"/>
      <point x="275" y="1080"/>
      <point x="46" y="851"/>
      <point x="46" y="528" type="curve" smooth="yes"/>
      <point x="46" y="205"/>
      <point x="278" y="-24"/>
    </contour>
  </outline>
</glyph>
<glyph name="f" format="2">
  <advance width="872"/>
  <unicode hex="0066"/>
  <anchor x="414" y="0" name="bottom"/>
  <anchor x="414" y="768" name="cross"/>
  <anchor x="470" y="1490" name="top"/>
  <outline>
    <contour>
      <point x="832" y="1056" type="line"/>
      <point x="20" y="1056" type="line"/>
      <point x="20" y="752" type="line"/>
      <point x="832" y="752" type="line"/>
    </contour>
    <component base="_part.f_base" xOffset="46"/>
  </outline>
</glyph>
<glyph name="g" format="2">
  <advance width="1280"/>
  <unicode hex="0067"/>
  <anchor x="634" y="-418" name="bottom"/>
  <anchor x="989" y="568" name="cross"/>
  <anchor x="620" y="1056" name="top"/>
  <anchor x="1194" y="1056" name="topr"/>
  <outline>
    <contour>
      <point x="632" y="-432" type="curve" smooth="yes"/>
      <point x="989" y="-432"/>
      <point x="1194" y="-278"/>
      <point x="1194" y="76" type="curve" smooth="yes"/>
      <point x="1194" y="1056" type="line"/>
      <point x="796" y="1056" type="line"/>
      <point x="796" y="914" type="line"/>
      <point x="795" y="914" type="line"/>
      <point x="732" y="1019"/>
      <point x="635" y="1080"/>
      <point x="498" y="1080" type="curve" smooth="yes"/>
      <point x="233" y="1080"/>
      <point x="46" y="853"/>
      <point x="46" y="542" type="curve" smooth="yes"/>
      <point x="46" y="237"/>
      <point x="225" y="16"/>
      <point x="502" y="16" type="curve" smooth="yes"/>
      <point x="640" y="16"/>
      <point x="747" y="70"/>
      <point x="796" y="195" type="curve"/>
      <point x="797" y="195" type="line"/>
      <point x="797" y="32" type="line" smooth="yes"/>
      <point x="797" y="-96"/>
      <point x="743" y="-158"/>
      <point x="632" y="-158" type="curve" smooth="yes"/>
      <point x="545" y="-158"/>
      <point x="490" y="-123"/>
      <point x="476" y="-72" type="curve"/>
      <point x="98" y="-72" type="line"/>
      <point x="131" y="-274"/>
      <point x="280" y="-432"/>
    </contour>
    <contour>
      <point x="621" y="322" type="curve" smooth="yes"/>
      <point x="512" y="322"/>
      <point x="450" y="411"/>
      <point x="450" y="550" type="curve" smooth="yes"/>
      <point x="450" y="688"/>
      <point x="512" y="776"/>
      <point x="621" y="776" type="curve" smooth="yes"/>
      <point x="730" y="776"/>
      <point x="808" y="688"/>
      <point x="808" y="550" type="curve" smooth="yes"/>
      <point x="808" y="411"/>
      <point x="730" y="322"/>
    </contour>
  </outline>
</glyph>
<glyph name="m" format="2">
  <advance width="1888"/>
  <unicode hex="006D"/>
  <anchor x="944" y="0" name="bottom"/>
  <anchor x="1402" y="0" name="lfthook"/>
  <anchor x="944" y="1056" name="top"/>
  <outline>
    <contour>
      <point x="86" y="0" type="line"/>
      <point x="486" y="0" type="line"/>
      <point x="486" y="606" type="line" smooth="yes"/>
      <point x="486" y="702"/>
      <point x="538" y="762"/>
      <point x="619" y="762" type="curve" smooth="yes"/>
      <point x="702" y="762"/>
      <point x="754" y="702"/>
      <point x="754" y="606" type="curve" smooth="yes"/>
      <point x="754" y="0" type="line"/>
      <point x="1134" y="0" type="line"/>
      <point x="1134" y="606" type="line" smooth="yes"/>
      <point x="1134" y="702"/>
      <point x="1186" y="762"/>
      <point x="1266" y="762" type="curve" smooth="yes"/>
      <point x="1349" y="762"/>
      <point x="1402" y="702"/>
      <point x="1402" y="606" type="curve" smooth="yes"/>
      <point x="1402" y="0" type="line"/>
      <point x="1802" y="0" type="line"/>
      <point x="1802" y="706" type="line" smooth="yes"/>
      <point x="1802" y="933"/>
      <point x="1656" y="1080"/>
      <point x="1444" y="1080" type="curve" smooth="yes"/>
      <point x="1276" y="1080"/>
      <point x="1120" y="987"/>
      <point x="1086" y="800" type="curve"/>
      <point x="1114" y="800" type="line"/>
      <point x="1091" y="989"/>
      <point x="953" y="1080"/>
      <point x="796" y="1080" type="curve" smooth="yes"/>
      <point x="643" y="1080"/>
      <point x="504" y="994"/>
      <point x="455" y="800" type="curve"/>
      <point x="470" y="800" type="line"/>
      <point x="470" y="1056" type="line"/>
      <point x="86" y="1056" type="line"/>
    </contour>
  </outline>
</glyph>
<glyph name="o" format="2">
  <advance width="1244"/>
  <unicode hex="006F"/>
  <anchor x="622" y="0" name="bottom"/>
  <anchor x="622" y="528" name="center"/>
  <anchor x="1198" y="528" name="ogonek"/>
  <anchor x="622" y="1056" name="top"/>
  <anchor x="622" y="1080" name="tophorn"/>
  <outline>
    <contour>
      <point x="622" y="-24" type="curve" smooth="yes"/>
      <point x="966" y="-24"/>
      <point x="1198" y="190"/>
      <point x="1198" y="528" type="curve" smooth="yes"/>
      <point x="1198" y="865"/>
      <point x="966" y="1080"/>
      <point x="622" y="1080" type="curve" smooth="yes"/>
      <point x="279" y="1080"/>
      <point x="46" y="865"/>
      <point x="46" y="528" type="curve" smooth="yes"/>
      <point x="46" y="189"/>
      <point x="279" y="-24"/>
    </contour>
    <contour>
      <point x="622" y="288" type="curve" smooth="yes"/>
      <point x="527" y="288"/>
      <point x="450" y="369"/>
      <point x="450" y="528" type="curve" smooth="yes"/>
      <point x="450" y="687"/>
      <point x="527" y="768"/>
      <point x="622" y="768" type="curve" smooth="yes"/>
      <point x="717" y="768"/>
      <point x="794" y="687"/>
      <point x="794" y="528" type="curve" smooth="yes"/>
      <point x="794" y="369"/>
      <point x="717" y="288"/>
    </contour>
  </outline>
</glyph>
<glyph name="p" format="2">
  <advance width="1280"/>
  <unicode hex="0070"/>
  <anchor x="286" y="-418" name="bottom"/>
  <anchor x="286" y="-162" name="cross"/>
  <anchor x="639" y="1056" name="top"/>
  <anchor x="486" y="1056" name="topr"/>
  <outline>
    <contour>
      <point x="86" y="-418" type="line"/>
      <point x="486" y="-418" type="line"/>
      <point x="486" y="156" type="line"/>
      <point x="490" y="156" type="line"/>
      <point x="538" y="40"/>
      <point x="638" y="-24"/>
      <point x="778" y="-24" type="curve" smooth="yes"/>
      <point x="1055" y="-24"/>
      <point x="1234" y="194"/>
      <point x="1234" y="530" type="curve" smooth="yes"/>
      <point x="1234" y="853"/>
      <point x="1047" y="1080"/>
      <point x="782" y="1080" type="curve" smooth="yes"/>
      <point x="645" y="1080"/>
      <point x="549" y="1027"/>
      <point x="487" y="924" type="curve"/>
      <point x="482" y="924" type="line"/>
      <point x="482" y="1056" type="line"/>
      <point x="86" y="1056" type="line"/>
    </contour>
    <contour>
      <point x="659" y="290" type="curve" smooth="yes"/>
      <point x="550" y="290"/>
      <point x="472" y="384"/>
      <point x="472" y="530" type="curve" smooth="yes"/>
      <point x="472" y="675"/>
      <point x="550" y="768"/>
      <point x="659" y="768" type="curve" smooth="yes"/>
      <point x="768" y="768"/>
      <point x="830" y="675"/>
      <point x="830" y="530" type="curve" smooth="yes"/>
      <point x="830" y="384"/>
      <point x="768" y="290"/>
    </contour>
  </outline>
</glyph>
<glyph name="r" format="2">
  <advance width="852"/>
  <unicode hex="0072"/>
  <anchor x="286" y="0" name="bottom"/>
  <anchor x="486" y="0" name="bottomr"/>
  <anchor x="286" y="528" name="cross"/>
  <anchor x="466" y="1056" name="top"/>
  <outline>
    <contour>
      <point x="86" y="0" type="line"/>
      <point x="486" y="0" type="line"/>
      <point x="486" y="506" type="line" smooth="yes"/>
      <point x="486" y="647"/>
      <point x="565" y="736"/>
      <point x="690" y="736" type="curve" smooth="yes"/>
      <point x="740" y="736"/>
      <point x="808" y="736"/>
      <point x="836" y="736" type="curve"/>
      <point x="836" y="1056" type="line"/>
      <point x="804" y="1056"/>
      <point x="774" y="1056"/>
      <point x="736" y="1056" type="curve" smooth="yes"/>
      <point x="591" y="1056"/>
      <point x="514" y="1006"/>
      <point x="476" y="864" type="curve"/>
      <point x="474" y="864" type="line"/>
      <point x="474" y="1056" type="line"/>
      <point x="86" y="1056" type="line"/>
    </contour>
  </outline>
</glyph>
<glyph name="s" format="2">
  <advance width="1144"/>
  <unicode hex="0073"/>
  <anchor x="576" y="0" name="bottom"/>
  <anchor x="573" y="0" name="cedilla"/>
  <anchor x="36" y="345" name="rthook"/>
  <anchor x="576" y="1056" name="top"/>
  <outline>
    <contour>
      <point x="584" y="-27" type="curve" smooth="yes"/>
      <point x="900" y="-27"/>
      <point x="1108" y="129"/>
      <point x="1108" y="353" type="curve" smooth="yes"/>
      <point x="1108" y="511"/>
      <point x="1004" y="602"/>
      <point x="782" y="639" type="curve" smooth="yes"/>
      <point x="556" y="677" type="line" smooth="yes"/>
      <point x="493" y="688"/>
      <point x="458" y="712"/>
      <point x="458" y="745" type="curve" smooth="yes"/>
      <point x="458" y="784"/>
      <point x="501" y="813"/>
      <point x="578" y="813" type="curve" smooth="yes"/>
      <point x="655" y="813"/>
      <point x="714" y="766"/>
      <point x="716" y="705" type="curve"/>
      <point x="1080" y="705" type="line"/>
      <point x="1074" y="934"/>
      <point x="881" y="1077"/>
      <point x="562" y="1077" type="curve" smooth="yes"/>
      <point x="246" y="1077"/>
      <point x="60" y="941"/>
      <point x="60" y="723" type="curve" smooth="yes"/>
      <point x="60" y="552"/>
      <point x="174" y="443"/>
      <point x="386" y="409" type="curve" smooth="yes"/>
      <point x="584" y="377" type="line" smooth="yes"/>
      <point x="664" y="364"/>
      <point x="702" y="341"/>
      <point x="702" y="307" type="curve" smooth="yes"/>
      <point x="702" y="266"/>
      <point x="657" y="239"/>
      <point x="578" y="239" type="curve" smooth="yes"/>
      <point x="492" y="239"/>
      <point x="439" y="282"/>
      <point x="430" y="345" type="curve"/>
      <point x="36" y="345" type="line"/>
      <point x="57" y="122"/>
      <point x="270" y="-27"/>
    </contour>
  </outline>
</glyph>
<glyph name="t" format="2">
  <advance width="744"/>
  <unicode hex="0074"/>
  <anchor x="376" y="0" name="bottom"/>
  <anchor x="428" y="0" name="cedilla"/>
  <anchor x="704" y="0" name="lfthook"/>
  <anchor x="286" y="1344" name="top"/>
  <anchor x="618" y="1490" name="raccent"/>
  <outline>
    <contour>
      <point x="704" y="1056" type="line"/>
      <point x="296" y="1056" type="line"/>
      <point x="296" y="752" type="line"/>
      <point x="704" y="752" type="line"/>
    </contour>
    <component base="_part.t_base" xOffset="-72"/>
  </outline>
</glyph>
<glyph name="u" format="2">
  <advance width="1266"/>
  <unicode hex="0075"/>
  <anchor x="657" y="0" name="bottom"/>
  <anchor x="1180" y="0" name="ogonek"/>
  <anchor x="780" y="1056" name="rtophorn"/>
  <anchor x="633" y="1056" name="top"/>
  <outline>
    <contour>
      <point x="442" y="-24" type="curve" smooth="yes"/>
      <point x="656" y="-24"/>
      <point x="772" y="107"/>
      <point x="837" y="291" type="curve"/>
      <point x="785" y="291" type="line"/>
      <point x="785" y="0" type="line"/>
      <point x="1180" y="0" type="line"/>
      <point x="1180" y="1056" type="line"/>
      <point x="780" y="1056" type="line"/>
      <point x="780" y="496" type="line" smooth="yes"/>
      <point x="780" y="374"/>
      <point x="727" y="314"/>
      <point x="633" y="314" type="curve" smooth="yes"/>
      <point x="539" y="314"/>
      <point x="486" y="374"/>
      <point x="486" y="480" type="curve" smooth="yes"/>
      <point x="486" y="1056" type="line"/>
      <point x="86" y="1056" type="line"/>
      <point x="86" y="390" type="line" smooth="yes"/>
      <point x="86" y="136"/>
      <point x="207" y="-24"/>
    </contour>
  </outline>
</glyph>
<glyph name="v" format="2">
  <advance width="1208"/>
  <unicode hex="0076"/>
  <anchor x="604" y="0" name="bottom"/>
  <anchor x="604" y="1056" name="top"/>
  <outline>
    <contour>
      <point x="374" y="0" type="line"/>
      <point x="834" y="0" type="line"/>
      <point x="1212" y="1056" type="line"/>
      <point x="800" y="1056" type="line"/>
      <point x="674" y="608" type="line" smooth="yes"/>
      <point x="634" y="464"/>
      <point x="598" y="320"/>
      <point x="562" y="176" type="curve"/>
      <point x="657" y="176" type="line"/>
      <point x="620" y="320"/>
      <point x="582" y="464"/>
      <point x="541" y="608" type="curve" smooth="yes"/>
      <point x="412" y="1056" type="line"/>
      <point x="-4" y="1056" type="line"/>
    </contour>
  </outline>
</glyph>
<glyph name="w" format="2">
  <advance width="1792"/>
  <unicode hex="0077"/>
  <anchor x="896" y="0" name="bottom"/>
  <anchor x="896" y="1056" name="top"/>
  <outline>
    <contour>
      <point x="320" y="0" type="line"/>
      <point x="732" y="0" type="line"/>
      <point x="841" y="368" type="line" smooth="yes"/>
      <point x="872" y="474"/>
      <point x="899" y="589"/>
      <point x="928" y="704" type="curve"/>
      <point x="864" y="704" type="line"/>
      <point x="893" y="589"/>
      <point x="920" y="474"/>
      <point x="951" y="368" type="curve" smooth="yes"/>
      <point x="1060" y="0" type="line"/>
      <point x="1472" y="0" type="line"/>
      <point x="1796" y="1056" type="line"/>
      <point x="1368" y="1056" type="line"/>
      <point x="1306" y="768" type="line" smooth="yes"/>
      <point x="1272" y="608"/>
      <point x="1242" y="432"/>
      <point x="1210" y="264" type="curve"/>
      <point x="1261" y="264" type="line"/>
      <point x="1222" y="432"/>
      <point x="1183" y="609"/>
      <point x="1143" y="768" type="curve" smooth="yes"/>
      <point x="1070" y="1056" type="line"/>
      <point x="722" y="1056" type="line"/>
      <point x="649" y="768" type="line" smooth="yes"/>
      <point x="609" y="609"/>
      <point x="570" y="432"/>
      <point x="531" y="264" type="curve"/>
      <point x="584" y="264" type="line"/>
      <point x="550" y="432"/>
      <point x="518" y="609"/>
      <point x="482" y="768" type="curve" smooth="yes"/>
      <point x="416" y="1056" type="line"/>
      <point x="-4" y="1056" type="line"/>
    </contour>
  </outline>
</glyph>
<glyph name="x" format="2">
  <advance width="1152"/>
  <unicode hex="0078"/>
  <anchor x="576" y="0" name="bottom"/>
  <anchor x="1070" y="0" name="cyrtic"/>
  <anchor x="942" y="0" name="right"/>
  <anchor x="576" y="1056" name="top"/>
  <outline>
    <contour>
      <point x="-4" y="0" type="line"/>
      <point x="424" y="0" type="line"/>
      <point x="479" y="96" type="line" smooth="yes"/>
      <point x="533" y="191"/>
      <point x="572" y="269"/>
      <point x="618" y="352" type="curve"/>
      <point x="540" y="352" type="line"/>
      <point x="583" y="269"/>
      <point x="624" y="191"/>
      <point x="675" y="96" type="curve" smooth="yes"/>
      <point x="727" y="0" type="line"/>
      <point x="1156" y="0" type="line"/>
      <point x="759" y="609" type="line"/>
      <point x="749" y="479" type="line"/>
      <point x="1140" y="1056" type="line"/>
      <point x="720" y="1056" type="line"/>
      <point x="668" y="960" type="line" smooth="yes"/>
      <point x="615" y="863"/>
      <point x="575" y="781"/>
      <point x="531" y="696" type="curve"/>
      <point x="634" y="696" type="line"/>
      <point x="592" y="781"/>
      <point x="552" y="862"/>
      <point x="501" y="960" type="curve" smooth="yes"/>
      <point x="451" y="1056" type="line"/>
      <point x="25" y="1056" type="line"/>
      <point x="399" y="479" type="line"/>
      <point x="409" y="609" type="line"/>
    </contour>
  </outline>
</glyph>
<glyph name="y" format="2">
  <advance width="1208"/>
  <unicode hex="0079"/>
  <anchor x="982" y="0" name="bottom"/>
  <anchor x="813" y="0" name="ogonek"/>
  <anchor x="572" y="1056" name="top"/>
  <outline>
    <contour>
      <point x="127" y="-418" type="line"/>
      <point x="215" y="-418"/>
      <point x="311" y="-418"/>
      <point x="399" y="-418" type="curve" smooth="yes"/>
      <point x="589" y="-418"/>
      <point x="689" y="-340"/>
      <point x="766" y="-134" type="curve" smooth="yes"/>
      <point x="1212" y="1056" type="line"/>
      <point x="800" y="1056" type="line"/>
      <point x="662" y="608" type="line" smooth="yes"/>
      <point x="618" y="466"/>
      <point x="582" y="320"/>
      <point x="547" y="176" type="curve"/>
      <point x="662" y="176" type="line"/>
      <point x="625" y="320"/>
      <point x="587" y="465"/>
      <point x="545" y="608" type="curve" smooth="yes"/>
      <point x="412" y="1056" type="line"/>
      <point x="-4" y="1056" type="line"/>
      <point x="401" y="0" type="line"/>
      <point x="396" y="-16" type="line" smooth="yes"/>
      <point x="373" y="-90"/>
      <point x="361" y="-114"/>
      <point x="287" y="-114" type="curve" smooth="yes"/>
      <point x="127" y="-114" type="line"/>
    </contour>
  </outline>
</glyph>
<glyph name="z" format="2">
  <advance width="1148"/>
  <unicode hex="007A"/>
  <anchor x="574" y="0" name="bottom"/>
  <anchor x="1050" y="0" name="bottomr"/>
  <anchor x="575" y="528" name="cross"/>
  <anchor x="572" y="1056" name="top"/>
  <outline>
    <contour>
      <point x="98" y="0" type="line"/>
      <point x="1050" y="0" type="line"/>
      <point x="1050" y="302" type="line"/>
      <point x="576" y="302" type="line"/>
      <point x="576" y="304" type="line"/>
      <point x="1040" y="784" type="line"/>
      <point x="1040" y="1056" type="line"/>
      <point x="98" y="1056" type="line"/>
      <point x="98" y="752" type="line"/>
      <point x="575" y="752" type="line"/>
      <point x="575" y="750" type="line"/>
      <point x="98" y="256" type="line"/>
    </contour>
  </outline>
</glyph>
<glyph name="braceleft" format="2">
  <advance width="995"/>
  <unicode hex="007B"/>
  <outline>
    <contour>
      <point x="121" y="596" type="line"/>
      <point x="637" y="596"/>
      <point x="737" y="773"/>
      <point x="737" y="918" type="curve" smooth="yes"/>
      <point x="737" y="1094" type="line" smooth="yes"/>
      <point x="737" y="1233"/>
      <point x="779" y="1270"/>
      <point x="935" y="1270" type="curve"/>
      <point x="935" y="1566" type="line"/>
      <point x="635" y="1566"/>
      <point x="347" y="1565"/>
      <point x="347" y="1146" type="curve" smooth="yes"/>
      <point x="347" y="1018" type="line" smooth="yes"/>
      <point x="347" y="875"/>
      <point x="290" y="810"/>
      <point x="121" y="810" type="curve"/>
    </contour>
    <contour>
      <point x="935" y="-294" type="curve"/>
      <point x="935" y="2" type="line"/>
      <point x="779" y="2"/>
      <point x="737" y="39"/>
      <point x="737" y="178" type="curve" smooth="yes"/>
      <point x="737" y="354" type="line" smooth="yes"/>
      <point x="737" y="499"/>
      <point x="637" y="676"/>
      <point x="121" y="676" type="curve"/>
      <point x="121" y="462" type="line"/>
      <point x="290" y="462"/>
      <point x="347" y="397"/>
      <point x="347" y="254" type="curve" smooth="yes"/>
      <point x="347" y="126" type="line" smooth="yes"/>
      <point x="347" y="-293"/>
      <point x="635" y="-294"/>
    </contour>
    <contour>
      <point x="121" y="462" type="line"/>
      <point x="481" y="462" type="line"/>
      <point x="481" y="810" type="line"/>
      <point x="121" y="810" type="line"/>
    </contour>
  </outline>
</glyph>
<glyph name="bar" format="2">
  <advance width="798"/>
  <unicode hex="007C"/>
  <outline>
    <contour>
      <point x="594" y="1970" type="line"/>
      <point x="202" y="1970" type="line"/>
      <point x="202" y="-480" type="line"/>
      <point x="594" y="-480" type="line"/>
    </contour>
  </outline>
</glyph>
<glyph name="braceright" format="2">
  <advance width="995"/>
  <unicode hex="007D"/>
  <outline>
    <contour>
      <point x="874" y="596" type="curve"/>
      <point x="874" y="810" type="line"/>
      <point x="705" y="810"/>
      <point x="648" y="875"/>
      <point x="648" y="1018" type="curve" smooth="yes"/>
      <point x="648" y="1146" type="line" smooth="yes"/>
      <point x="648" y="1565"/>
      <point x="360" y="1566"/>
      <point x="60" y="1566" type="curve"/>
      <point x="60" y="1270" type="line"/>
      <point x="216" y="1270"/>
      <point x="258" y="1233"/>
      <point x="258" y="1094" type="curve" smooth="yes"/>
      <point x="258" y="918" type="line" smooth="yes"/>
      <point x="258" y="773"/>
      <point x="358" y="596"/>
    </contour>
    <contour>
      <point x="60" y="-294" type="line"/>
      <point x="360" y="-294"/>
      <point x="648" y="-293"/>
      <point x="648" y="126" type="curve" smooth="yes"/>
      <point x="648" y="254" type="line" smooth="yes"/>
      <point x="648" y="397"/>
      <point x="705" y="462"/>
      <point x="874" y="462" type="curve"/>
      <point x="874" y="676" type="line"/>
      <point x="358" y="676"/>
      <point x="258" y="499"/>
      <point x="258" y="354" type="curve" smooth="yes"/>
      <point x="258" y="178" type="line" smooth="yes"/>
      <point x="258" y="39"/>
      <point x="216" y="2"/>
      <point x="60" y="2" type="curve"/>
    </contour>
    <contour>
      <point x="874" y="462" type="line"/>
      <point x="874" y="810" type="line"/>
      <point x="514" y="810" type="line"/>
      <point x="514" y="462" type="line"/>
    </contour>
  </outline>
</glyph>
<glyph name="asciitilde" format="2">
  <advance width="1388"/>
  <unicode hex="007E"/>
  <outline>
    <contour>
      <point x="132" y="376" type="curve"/>
      <point x="424" y="376" type="line"/>
      <point x="420" y="492"/>
      <point x="467" y="538"/>
      <point x="528" y="538" type="curve" smooth="yes"/>
      <point x="577" y="538"/>
      <point x="597" y="516"/>
      <point x="650" y="468" type="curve" smooth="yes"/>
      <point x="749" y="381"/>
      <point x="829" y="346"/>
      <point x="924" y="346" type="curve" smooth="yes"/>
      <point x="1145" y="346"/>
      <point x="1268" y="537"/>
      <point x="1256" y="834" type="curve"/>
      <point x="964" y="834" type="line"/>
      <point x="968" y="718"/>
      <point x="919" y="672"/>
      <point x="860" y="672" type="curve" smooth="yes"/>
      <point x="809" y="672"/>
      <point x="780" y="702"/>
      <point x="734" y="742" type="curve" smooth="yes"/>
      <point x="628" y="837"/>
      <point x="551" y="864"/>
      <point x="464" y="864" type="curve" smooth="yes"/>
      <point x="234" y="864"/>
      <point x="120" y="673"/>
    </contour>
  </outline>
</glyph>
<glyph name="exclamdown" format="2">
  <advance width="552"/>
  <unicode hex="00A1"/>
  <outline>
    <contour>
      <point x="64" y="-418" type="line"/>
      <point x="488" y="-418" type="line"/>
      <point x="450" y="589" type="line"/>
      <point x="102" y="589" type="line"/>
    </contour>
    <contour>
      <point x="276" y="664" type="curve" smooth="yes"/>
      <point x="391" y="664"/>
      <point x="484" y="757"/>
      <point x="484" y="872" type="curve" smooth="yes"/>
      <point x="484" y="987"/>
      <point x="391" y="1080"/>
      <point x="276" y="1080" type="curve" smooth="yes"/>
      <point x="161" y="1080"/>
      <point x="68" y="987"/>
      <point x="68" y="872" type="curve" smooth="yes"/>
      <point x="68" y="757"/>
      <point x="161" y="664"/>
    </contour>
  </outline>
</glyph>
<glyph name="cent" format="2">
  <advance width="1194"/>
  <unicode hex="00A2"/>
  <anchor x="610" y="217" name="bottom"/>
  <anchor x="610" y="217" name="cedilla"/>
  <anchor x="618" y="745" name="center"/>
  <anchor x="610" y="1273" name="top"/>
  <anchor x="1150" y="835" name="topr"/>
  <outline>
    <contour>
      <point x="564" y="0" type="line"/>
      <point x="668" y="0" type="line"/>
      <point x="668" y="1490" type="line"/>
      <point x="564" y="1490" type="line"/>
    </contour>
    <component base="c" yOffset="217"/>
  </outline>
</glyph>
<glyph name="currency" format="2">
  <advance width="1592"/>
  <unicode hex="00A4"/>
  <outline>
    <contour>
      <point x="798" y="-20" type="curve" smooth="yes"/>
      <point x="1137" y="-20"/>
      <point x="1420" y="253"/>
      <point x="1422" y="608" type="curve" smooth="yes"/>
      <point x="1420" y="963"/>
      <point x="1137" y="1234"/>
      <point x="798" y="1234" type="curve" smooth="yes"/>
      <point x="454" y="1234"/>
      <point x="172" y="963"/>
      <point x="174" y="608" type="curve"/>
      <point x="172" y="253"/>
      <point x="454" y="-20"/>
    </contour>
    <contour>
      <point x="798" y="190" type="curve" smooth="yes"/>
      <point x="559" y="189"/>
      <point x="376" y="369"/>
      <point x="376" y="608" type="curve"/>
      <point x="376" y="849"/>
      <point x="559" y="1026"/>
      <point x="798" y="1026" type="curve" smooth="yes"/>
      <point x="1030" y="1026"/>
      <point x="1220" y="849"/>
      <point x="1220" y="608" type="curve" smooth="yes"/>
      <point x="1220" y="369"/>
      <point x="1030" y="189"/>
    </contour>
    <contour>
      <point x="1256" y="908" type="line"/>
      <point x="1468" y="1114" type="line"/>
      <point x="1310" y="1272" type="line"/>
      <point x="1102" y="1064" type="line"/>
    </contour>
    <contour>
      <point x="1310" y="-32" type="line"/>
      <point x="1468" y="126" type="line"/>
      <point x="1256" y="328" type="line"/>
      <point x="1102" y="174" type="line"/>
    </contour>
    <contour>
      <point x="286" y="-32" type="line"/>
      <point x="498" y="174" type="line"/>
      <point x="342" y="328" type="line"/>
      <point x="132" y="126" type="line"/>
    </contour>
    <contour>
      <point x="342" y="908" type="line"/>
      <point x="498" y="1064" type="line"/>
      <point x="286" y="1272" type="line"/>
      <point x="132" y="1114" type="line"/>
    </contour>
  </outline>
</glyph>
<glyph name="yen" format="2">
  <advance width="1172"/>
  <unicode hex="00A5"/>
  <outline>
    <contour>
      <point x="418" y="1490" type="line"/>
      <point x="14" y="1490" type="line"/>
      <point x="414" y="562" type="line"/>
      <point x="676" y="792" type="line"/>
    </contour>
    <contour>
      <point x="502" y="802" type="line"/>
      <point x="754" y="562" type="line"/>
      <point x="1160" y="1490" type="line"/>
      <point x="754" y="1490" type="line"/>
    </contour>
    <contour>
      <point x="778" y="786" type="line"/>
      <point x="380" y="786" type="line"/>
      <point x="380" y="0" type="line"/>
      <point x="778" y="0" type="line"/>
    </contour>
    <contour>
      <point x="1052" y="786" type="line"/>
      <point x="68" y="786" type="line"/>
      <point x="68" y="574" type="line"/>
      <point x="1052" y="574" type="line"/>
    </contour>
    <contour>
      <point x="1052" y="498" type="line"/>
      <point x="68" y="498" type="line"/>
      <point x="68" y="286" type="line"/>
      <point x="1052" y="286" type="line"/>
    </contour>
  </outline>
</glyph>
<glyph name="brokenbar" format="2">
  <advance width="782"/>
  <unicode hex="00A6"/>
  <outline>
    <contour>
      <point x="214" y="424" type="line"/>
      <point x="214" y="-280" type="line"/>
      <point x="568" y="-280" type="line"/>
      <point x="568" y="424" type="line"/>
    </contour>
    <contour>
      <point x="568" y="1490" type="line"/>
      <point x="214" y="1490" type="line"/>
      <point x="214" y="788" type="line"/>
      <point x="568" y="788" type="line"/>
    </contour>
  </outline>
</glyph>
<glyph name="section" format="2">
  <advance width="1104"/>
  <unicode hex="00A7"/>
  <outline>
    <contour>
      <point x="553" y="-300" type="curve" smooth="yes"/>
      <point x="836" y="-300"/>
      <point x="1028" y="-143"/>
      <point x="1028" y="96" type="curve" smooth="yes"/>
      <point x="1028" y="218"/>
      <point x="978" y="335"/>
      <point x="864" y="398" type="curve"/>
      <point x="864" y="399" type="line"/>
      <point x="956" y="414"/>
      <point x="1064" y="502"/>
      <point x="1064" y="649" type="curve" smooth="yes"/>
      <point x="1064" y="786"/>
      <point x="972" y="891"/>
      <point x="822" y="926" type="curve" smooth="yes"/>
      <point x="577" y="983" type="line" smooth="yes"/>
      <point x="470" y="1008"/>
      <point x="420" y="1054"/>
      <point x="420" y="1113" type="curve" smooth="yes"/>
      <point x="420" y="1168"/>
      <point x="463" y="1198"/>
      <point x="536" y="1198" type="curve" smooth="yes"/>
      <point x="613" y="1198"/>
      <point x="656" y="1164"/>
      <point x="656" y="1108" type="curve"/>
      <point x="1000" y="1108" type="line"/>
      <point x="1000" y="1360"/>
      <point x="824" y="1514"/>
      <point x="534" y="1514" type="curve" smooth="yes"/>
      <point x="248" y="1514"/>
      <point x="74" y="1363"/>
      <point x="74" y="1114" type="curve" smooth="yes"/>
      <point x="74" y="956"/>
      <point x="145" y="864"/>
      <point x="234" y="802" type="curve"/>
      <point x="234" y="801" type="line"/>
      <point x="150" y="791"/>
      <point x="40" y="721"/>
      <point x="40" y="568" type="curve" smooth="yes"/>
      <point x="40" y="425"/>
      <point x="136" y="314"/>
      <point x="293" y="275" type="curve" smooth="yes"/>
      <point x="540" y="214" type="line" smooth="yes"/>
      <point x="639" y="190"/>
      <point x="680" y="148"/>
      <point x="680" y="99" type="curve" smooth="yes"/>
      <point x="680" y="46"/>
      <point x="632" y="16"/>
      <point x="552" y="16" type="curve" smooth="yes"/>
      <point x="463" y="16"/>
      <point x="408" y="53"/>
      <point x="408" y="116" type="curve"/>
      <point x="66" y="116" type="line"/>
      <point x="66" y="-134"/>
      <point x="263" y="-300"/>
    </contour>
    <contour>
      <point x="655" y="470" type="curve" smooth="yes"/>
      <point x="451" y="514" type="line" smooth="yes"/>
      <point x="369" y="532"/>
      <point x="317" y="593"/>
      <point x="334" y="659" type="curve" smooth="yes"/>
      <point x="350" y="721"/>
      <point x="412" y="734"/>
      <point x="450" y="725" type="curve" smooth="yes"/>
      <point x="648" y="677" type="line" smooth="yes"/>
      <point x="751" y="652"/>
      <point x="774" y="588"/>
      <point x="762" y="539" type="curve" smooth="yes"/>
      <point x="748" y="481"/>
      <point x="691" y="462"/>
    </contour>
  </outline>
</glyph>
<glyph name="copyright" format="2">
  <advance width="1840"/>
  <unicode hex="00A9"/>
  <outline>
    <contour>
      <point x="530" y="744" type="curve" smooth="yes"/>
      <point x="529" y="527"/>
      <point x="707" y="350"/>
      <point x="926" y="350" type="curve" smooth="yes"/>
      <point x="1119" y="350"/>
      <point x="1281" y="490"/>
      <point x="1300" y="674" type="curve"/>
      <point x="1058" y="674" type="line"/>
      <point x="1046" y="620"/>
      <point x="990" y="582"/>
      <point x="926" y="582" type="curve" smooth="yes"/>
      <point x="836" y="582"/>
      <point x="762" y="656"/>
      <point x="762" y="746" type="curve" smooth="yes"/>
      <point x="762" y="836"/>
      <point x="836" y="908"/>
      <point x="926" y="908" type="curve" smooth="yes"/>
      <point x="990" y="908"/>
      <point x="1046" y="870"/>
      <point x="1058" y="814" type="curve"/>
      <point x="1300" y="814" type="line"/>
      <point x="1281" y="999"/>
      <point x="1119" y="1140"/>
      <point x="926" y="1140" type="curve" smooth="yes"/>
      <point x="707" y="1140"/>
      <point x="529" y="963"/>
    </contour>
    <component base="circlewhite"/>
  </outline>
</glyph>
<glyph name="ordfeminine" format="2">
  <advance width="947"/>
  <unicode hex="00AA"/>
  <anchor x="468" y="647" name="bottom"/>
  <anchor x="876" y="647" name="ogonek"/>
  <anchor x="470" y="1492" name="top"/>
  <outline>
    <contour>
      <point x="330" y="632" type="curve" smooth="yes"/>
      <point x="442" y="632"/>
      <point x="520" y="668"/>
      <point x="574" y="766" type="curve"/>
      <point x="577" y="766" type="line"/>
      <point x="577" y="647" type="line"/>
      <point x="876" y="647" type="line"/>
      <point x="876" y="1213" type="line" smooth="yes"/>
      <point x="876" y="1403"/>
      <point x="738" y="1511"/>
      <point x="482" y="1511" type="curve" smooth="yes"/>
      <point x="227" y="1511"/>
      <point x="89" y="1403"/>
      <point x="76" y="1214" type="curve"/>
      <point x="357" y="1214" type="line"/>
      <point x="363" y="1267"/>
      <point x="404" y="1296"/>
      <point x="470" y="1296" type="curve" smooth="yes"/>
      <point x="533" y="1296"/>
      <point x="573" y="1269"/>
      <point x="573" y="1228" type="curve" smooth="yes"/>
      <point x="573" y="1224" type="line" smooth="yes"/>
      <point x="573" y="1176"/>
      <point x="516" y="1161"/>
      <point x="364" y="1150" type="curve" smooth="yes"/>
      <point x="184" y="1137"/>
      <point x="42" y="1069"/>
      <point x="42" y="881" type="curve" smooth="yes"/>
      <point x="42" y="713"/>
      <point x="162" y="632"/>
    </contour>
    <contour>
      <point x="428" y="825" type="curve" smooth="yes"/>
      <point x="370" y="825"/>
      <point x="329" y="852"/>
      <point x="329" y="898" type="curve" smooth="yes"/>
      <point x="329" y="944"/>
      <point x="370" y="974"/>
      <point x="440" y="986" type="curve" smooth="yes"/>
      <point x="504" y="997"/>
      <point x="545" y="1006"/>
      <point x="576" y="1018" type="curve"/>
      <point x="576" y="948" type="line" smooth="yes"/>
      <point x="576" y="870"/>
      <point x="504" y="825"/>
    </contour>
  </outline>
</glyph>
<glyph name="logicalnot" format="2">
  <advance width="1388"/>
  <unicode hex="00AC"/>
  <outline>
    <contour>
      <point x="845" y="315" type="line"/>
      <point x="1171" y="315" type="line"/>
      <point x="1171" y="814" type="line"/>
      <point x="207" y="814" type="line"/>
      <point x="207" y="504" type="line"/>
      <point x="845" y="504" type="line"/>
    </contour>
  </outline>
</glyph>
<glyph name="registered" format="2">
  <advance width="1318"/>
  <unicode hex="00AE"/>
  <outline>
    <contour>
      <point x="658" y="346" type="curve" smooth="yes"/>
      <point x="981" y="346"/>
      <point x="1240" y="607"/>
      <point x="1240" y="928" type="curve" smooth="yes"/>
      <point x="1240" y="1249"/>
      <point x="980" y="1510"/>
      <point x="658" y="1510" type="curve" smooth="yes"/>
      <point x="337" y="1510"/>
      <point x="78" y="1249"/>
      <point x="78" y="928" type="curve" smooth="yes"/>
      <point x="78" y="607"/>
      <point x="337" y="346"/>
    </contour>
    <contour>
      <point x="658" y="510" type="curve" smooth="yes"/>
      <point x="428" y="510"/>
      <point x="240" y="697"/>
      <point x="240" y="928" type="curve" smooth="yes"/>
      <point x="240" y="1159"/>
      <point x="428" y="1346"/>
      <point x="658" y="1346" type="curve" smooth="yes"/>
      <point x="890" y="1346"/>
      <point x="1078" y="1159"/>
      <point x="1078" y="928" type="curve" smooth="yes"/>
      <point x="1078" y="696"/>
      <point x="891" y="510"/>
    </contour>
    <contour>
      <point x="743" y="662" type="line"/>
      <point x="921" y="662" type="line"/>
      <point x="804" y="906" type="line"/>
      <point x="638" y="906" type="line"/>
    </contour>
    <contour>
      <point x="432" y="662" type="line"/>
      <point x="603" y="662" type="line"/>
      <point x="603" y="1060" type="line"/>
      <point x="664" y="1060" type="line" smooth="yes"/>
      <point x="707" y="1060"/>
      <point x="735" y="1038"/>
      <point x="735" y="1005" type="curve" smooth="yes"/>
      <point x="735" y="973"/>
      <point x="707" y="951"/>
      <point x="664" y="951" type="curve" smooth="yes"/>
      <point x="538" y="951" type="line"/>
      <point x="538" y="819" type="line"/>
      <point x="668" y="819" type="line" smooth="yes"/>
      <point x="813" y="819"/>
      <point x="902" y="891"/>
      <point x="902" y="1005" type="curve" smooth="yes"/>
      <point x="902" y="1123"/>
      <point x="816" y="1198"/>
      <point x="677" y="1198" type="curve" smooth="yes"/>
      <point x="432" y="1198" type="line"/>
    </contour>
  </outline>
</glyph>
<glyph name="degree" format="2">
  <advance width="916"/>
  <unicode hex="00B0"/>
  <outline>
    <contour>
      <point x="458" y="754" type="curve" smooth="yes"/>
      <point x="664" y="753"/>
      <point x="830" y="920"/>
      <point x="830" y="1126" type="curve" smooth="yes"/>
      <point x="830" y="1332"/>
      <point x="664" y="1498"/>
      <point x="458" y="1498" type="curve" smooth="yes"/>
      <point x="252" y="1498"/>
      <point x="86" y="1332"/>
      <point x="86" y="1126" type="curve" smooth="yes"/>
      <point x="86" y="920"/>
      <point x="252" y="753"/>
    </contour>
    <contour>
      <point x="458" y="1000" type="curve" smooth="yes"/>
      <point x="389" y="1001"/>
      <point x="334" y="1057"/>
      <point x="334" y="1126" type="curve" smooth="yes"/>
      <point x="334" y="1195"/>
      <point x="389" y="1250"/>
      <point x="458" y="1250" type="curve" smooth="yes"/>
      <point x="527" y="1250"/>
      <point x="584" y="1195"/>
      <point x="584" y="1126" type="curve" smooth="yes"/>
      <point x="584" y="1057"/>
      <point x="527" y="1001"/>
    </contour>
  </outline>
</glyph>
<glyph name="plusminus" format="2">
  <advance width="1388"/>
  <unicode hex="00B1"/>
  <outline>
    <contour>
      <point x="152" y="46" type="line"/>
      <point x="1234" y="46" type="line"/>
      <point x="1234" y="350" type="line"/>
      <point x="152" y="350" type="line"/>
    </contour>
    <contour>
      <point x="152" y="664" type="line"/>
      <point x="1234" y="664" type="line"/>
      <point x="1234" y="954" type="line"/>
      <point x="152" y="954" type="line"/>
    </contour>
    <contour>
      <point x="530" y="442" type="line"/>
      <point x="856" y="442" type="line"/>
      <point x="856" y="1176" type="line"/>
      <point x="530" y="1176" type="line"/>
    </contour>
  </outline>
</glyph>
<glyph name="two.sups" format="2">
  <advance width="831"/>
  <unicode hex="00B2"/>
  <anchor x="473" y="1228" name="cross"/>
  <anchor x="412" y="1696" name="top"/>
  <outline>
    <contour>
      <point x="64" y="854" type="line"/>
      <point x="769" y="854" type="line"/>
      <point x="769" y="1067" type="line"/>
      <point x="440" y="1067" type="line"/>
      <point x="440" y="1068" type="line"/>
      <point x="564" y="1148" type="line" smooth="yes"/>
      <point x="682" y="1224"/>
      <point x="767" y="1301"/>
      <point x="767" y="1436" type="curve" smooth="yes"/>
      <point x="767" y="1609"/>
      <point x="619" y="1710"/>
      <point x="415" y="1710" type="curve" smooth="yes"/>
      <point x="191" y="1710"/>
      <point x="53" y="1586"/>
      <point x="53" y="1379" type="curve"/>
      <point x="307" y="1379" type="line"/>
      <point x="307" y="1458"/>
      <point x="351" y="1499"/>
      <point x="414" y="1499" type="curve" smooth="yes"/>
      <point x="471" y="1499"/>
      <point x="510" y="1467"/>
      <point x="510" y="1420" type="curve" smooth="yes"/>
      <point x="510" y="1354"/>
      <point x="436" y="1316"/>
      <point x="403" y="1292" type="curve" smooth="yes"/>
      <point x="64" y="1045" type="line"/>
    </contour>
  </outline>
</glyph>
<glyph name="three.sups" format="2">
  <advance width="846"/>
  <unicode hex="00B3"/>
  <anchor x="431" y="1696" name="top"/>
  <outline>
    <contour>
      <point x="428" y="840" type="curve" smooth="yes"/>
      <point x="654" y="840"/>
      <point x="806" y="948"/>
      <point x="806" y="1093" type="curve" smooth="yes"/>
      <point x="806" y="1194"/>
      <point x="734" y="1285"/>
      <point x="598" y="1296" type="curve"/>
      <point x="598" y="1298" type="line"/>
      <point x="698" y="1305"/>
      <point x="778" y="1368"/>
      <point x="778" y="1474" type="curve" smooth="yes"/>
      <point x="778" y="1613"/>
      <point x="636" y="1710"/>
      <point x="431" y="1710" type="curve" smooth="yes"/>
      <point x="204" y="1710"/>
      <point x="72" y="1587"/>
      <point x="72" y="1430" type="curve"/>
      <point x="331" y="1430" type="line"/>
      <point x="331" y="1478"/>
      <point x="375" y="1513"/>
      <point x="432" y="1513" type="curve" smooth="yes"/>
      <point x="485" y="1513"/>
      <point x="525" y="1481"/>
      <point x="525" y="1439" type="curve" smooth="yes"/>
      <point x="525" y="1396"/>
      <point x="485" y="1371"/>
      <point x="412" y="1371" type="curve" smooth="yes"/>
      <point x="319" y="1371" type="line"/>
      <point x="319" y="1188" type="line"/>
      <point x="412" y="1188" type="line" smooth="yes"/>
      <point x="484" y="1188"/>
      <point x="531" y="1160"/>
      <point x="531" y="1115" type="curve" smooth="yes"/>
      <point x="531" y="1073"/>
      <point x="487" y="1044"/>
      <point x="427" y="1044" type="curve" smooth="yes"/>
      <point x="357" y="1044"/>
      <point x="315" y="1085"/>
      <point x="315" y="1155" type="curve"/>
      <point x="56" y="1155" type="line"/>
      <point x="56" y="996"/>
      <point x="160" y="840"/>
    </contour>
  </outline>
</glyph>
<glyph name="micro" format="2">
  <advance width="1302"/>
  <unicode hex="00B5"/>
  <outline>
    <contour>
      <point x="86" y="-418" type="line"/>
      <point x="486" y="-418" type="line"/>
      <point x="486" y="417" type="line"/>
      <point x="430" y="417" type="line"/>
      <point x="430" y="119"/>
      <point x="535" y="32"/>
      <point x="649" y="32" type="curve" smooth="yes"/>
      <point x="756" y="32"/>
      <point x="856" y="119"/>
      <point x="856" y="417" type="curve"/>
      <point x="800" y="417" type="line"/>
      <point x="800" y="316" type="line" smooth="yes"/>
      <point x="800" y="113"/>
      <point x="897" y="0"/>
      <point x="1098" y="0" type="curve" smooth="yes"/>
      <point x="1302" y="0" type="line"/>
      <point x="1302" y="304" type="line"/>
      <point x="1244" y="304" type="line" smooth="yes"/>
      <point x="1202" y="304"/>
      <point x="1180" y="328"/>
      <point x="1180" y="370" type="curve" smooth="yes"/>
      <point x="1180" y="1056" type="line"/>
      <point x="780" y="1056" type="line"/>
      <point x="780" y="472" type="line" smooth="yes"/>
      <point x="780" y="364"/>
      <point x="730" y="298"/>
      <point x="633" y="298" type="curve" smooth="yes"/>
      <point x="536" y="298"/>
      <point x="486" y="364"/>
      <point x="486" y="472" type="curve" smooth="yes"/>
      <point x="486" y="1056" type="line"/>
      <point x="86" y="1056" type="line"/>
    </contour>
  </outline>
</glyph>
<glyph name="paragraph" format="2">
  <advance width="1187"/>
  <unicode hex="00B6"/>
  <outline>
    <contour>
      <point x="1087" y="1198" type="line"/>
      <point x="1087" y="1490" type="line"/>
      <point x="549" y="1490" type="line" smooth="yes"/>
      <point x="214" y="1490"/>
      <point x="35" y="1289"/>
      <point x="35" y="1022" type="curve" smooth="yes"/>
      <point x="35" y="751"/>
      <point x="214" y="552"/>
      <point x="549" y="552" type="curve" smooth="yes"/>
      <point x="637" y="552" type="line"/>
      <point x="637" y="1198" type="line"/>
    </contour>
    <contour>
      <point x="817" y="0" type="line"/>
      <point x="1107" y="0" type="line"/>
      <point x="1107" y="1490" type="line"/>
      <point x="817" y="1490" type="line"/>
    </contour>
  </outline>
</glyph>
<glyph name="one.sups" format="2">
  <advance width="562"/>
  <unicode hex="00B9"/>
  <outline>
    <contour>
      <point x="501" y="1696" type="line"/>
      <point x="257" y="1696" type="line"/>
      <point x="36" y="1571" type="line"/>
      <point x="36" y="1345" type="line"/>
      <point x="233" y="1455" type="line"/>
      <point x="234" y="1455" type="line"/>
      <point x="234" y="854" type="line"/>
      <point x="501" y="854" type="line"/>
    </contour>
  </outline>
</glyph>
<glyph name="ordmasculine" format="2">
  <advance width="987"/>
  <unicode hex="00BA"/>
  <anchor x="494" y="647" name="bottom"/>
  <anchor x="494" y="1069" name="center"/>
  <anchor x="949" y="1069" name="ogonek"/>
  <anchor x="494" y="1492" name="top"/>
  <anchor x="494" y="1511" name="tophorn"/>
  <outline>
    <contour>
      <point x="494" y="628" type="curve" smooth="yes"/>
      <point x="765" y="628"/>
      <point x="949" y="800"/>
      <point x="949" y="1069" type="curve" smooth="yes"/>
      <point x="949" y="1338"/>
      <point x="765" y="1511"/>
      <point x="494" y="1511" type="curve" smooth="yes"/>
      <point x="222" y="1511"/>
      <point x="38" y="1338"/>
      <point x="38" y="1069" type="curve" smooth="yes"/>
      <point x="38" y="799"/>
      <point x="223" y="628"/>
    </contour>
    <contour>
      <point x="494" y="868" type="curve" smooth="yes"/>
      <point x="411" y="868"/>
      <point x="347" y="938"/>
      <point x="347" y="1069" type="curve" smooth="yes"/>
      <point x="347" y="1201"/>
      <point x="411" y="1271"/>
      <point x="494" y="1271" type="curve" smooth="yes"/>
      <point x="576" y="1271"/>
      <point x="640" y="1201"/>
      <point x="640" y="1069" type="curve" smooth="yes"/>
      <point x="640" y="938"/>
      <point x="576" y="868"/>
    </contour>
  </outline>
</glyph>
<glyph name="AE" format="2">
  <advance width="2167"/>
  <unicode hex="00C6"/>
  <anchor x="1362" y="1490" name="top"/>
  <outline>
    <contour>
      <point x="0" y="0" type="line"/>
      <point x="428" y="0" type="line"/>
      <point x="849" y="1138" type="line"/>
      <point x="971" y="1138" type="line"/>
      <point x="971" y="0" type="line"/>
      <point x="2107" y="0" type="line"/>
      <point x="2107" y="352" type="line"/>
      <point x="1369" y="352" type="line"/>
      <point x="1369" y="574" type="line"/>
      <point x="2050" y="574" type="line"/>
      <point x="2050" y="914" type="line"/>
      <point x="1369" y="914" type="line"/>
      <point x="1369" y="1138" type="line"/>
      <point x="2107" y="1138" type="line"/>
      <point x="2107" y="1490" type="line"/>
      <point x="580" y="1490" type="line"/>
    </contour>
    <contour>
      <point x="356" y="278" type="line"/>
      <point x="1084" y="278" type="line"/>
      <point x="1084" y="580" type="line"/>
      <point x="356" y="580" type="line"/>
    </contour>
  </outline>
</glyph>
<glyph name="multiply" format="2">
  <advance width="1388"/>
  <unicode hex="00D7"/>
  <outline>
    <contour>
      <point x="1023" y="32" type="line"/>
      <point x="1267" y="276" type="line"/>
      <point x="367" y="1178" type="line"/>
      <point x="121" y="930" type="line"/>
    </contour>
    <contour>
      <point x="367" y="32" type="line"/>
      <point x="1267" y="930" type="line"/>
      <point x="1023" y="1178" type="line"/>
      <point x="121" y="276" type="line"/>
    </contour>
  </outline>
</glyph>
<glyph name="Thorn" format="2">
  <advance width="1396"/>
  <unicode hex="00DE"/>
  <outline>
    <contour>
      <point x="82" y="1490" type="line"/>
      <point x="82" y="0" type="line"/>
      <point x="488" y="0" type="line"/>
      <point x="488" y="1490" type="line"/>
    </contour>
    <contour>
      <point x="270" y="1240" type="line"/>
      <point x="270" y="940" type="line"/>
      <point x="658" y="940" type="line" smooth="yes"/>
      <point x="819" y="940"/>
      <point x="872" y="844"/>
      <point x="872" y="762" type="curve" smooth="yes"/>
      <point x="872" y="684"/>
      <point x="819" y="591"/>
      <point x="658" y="590" type="curve" smooth="yes"/>
      <point x="270" y="590" type="line"/>
      <point x="270" y="294" type="line"/>
      <point x="658" y="294" type="line" smooth="yes"/>
      <point x="1046" y="294"/>
      <point x="1258" y="486"/>
      <point x="1258" y="766" type="curve" smooth="yes"/>
      <point x="1258" y="1044"/>
      <point x="1046" y="1239"/>
      <point x="658" y="1240" type="curve" smooth="yes"/>
    </contour>
  </outline>
</glyph>
<glyph name="germandbls" format="2">
  <advance width="1389"/>
  <unicode hex="00DF"/>
  <outline>
    <contour>
      <point x="80" y="0" type="line"/>
      <point x="482" y="0" type="line"/>
      <point x="482" y="1012" type="line" smooth="yes"/>
      <point x="482" y="1119"/>
      <point x="550" y="1184"/>
      <point x="662" y="1184" type="curve" smooth="yes"/>
      <point x="769" y="1184"/>
      <point x="830" y="1124"/>
      <point x="830" y="1036" type="curve" smooth="yes"/>
      <point x="830" y="956"/>
      <point x="777" y="898"/>
      <point x="700" y="898" type="curve" smooth="yes"/>
      <point x="632" y="898" type="line"/>
      <point x="632" y="606" type="line"/>
      <point x="738" y="606" type="line" smooth="yes"/>
      <point x="866" y="606"/>
      <point x="946" y="552"/>
      <point x="946" y="460" type="curve" smooth="yes"/>
      <point x="946" y="369"/>
      <point x="874" y="314"/>
      <point x="760" y="314" type="curve" smooth="yes"/>
      <point x="626" y="314" type="line"/>
      <point x="626" y="0" type="line"/>
      <point x="846" y="0" type="line" smooth="yes"/>
      <point x="1142" y="0"/>
      <point x="1354" y="132"/>
      <point x="1354" y="410" type="curve" smooth="yes"/>
      <point x="1354" y="620"/>
      <point x="1239" y="779"/>
      <point x="1042" y="788" type="curve"/>
      <point x="1042" y="806" type="line"/>
      <point x="1172" y="836"/>
      <point x="1244" y="951"/>
      <point x="1244" y="1094" type="curve" smooth="yes"/>
      <point x="1244" y="1377"/>
      <point x="965" y="1510"/>
      <point x="648" y="1510" type="curve" smooth="yes"/>
      <point x="299" y="1510"/>
      <point x="80" y="1351"/>
      <point x="80" y="1088" type="curve" smooth="yes"/>
    </contour>
  </outline>
</glyph>
<glyph name="ae" format="2">
  <advance width="1834"/>
  <unicode hex="00E6"/>
  <anchor x="904" y="1056" name="top"/>
  <outline>
    <contour>
      <point x="450" y="-19" type="curve" smooth="yes"/>
      <point x="623" y="-19"/>
      <point x="851" y="29"/>
      <point x="942" y="292" type="curve"/>
      <point x="996" y="292" type="line"/>
      <point x="996" y="706" type="line" smooth="yes"/>
      <point x="996" y="936"/>
      <point x="844" y="1080"/>
      <point x="584" y="1080" type="curve" smooth="yes"/>
      <point x="275" y="1080"/>
      <point x="108" y="905"/>
      <point x="94" y="706" type="curve"/>
      <point x="460" y="706" type="line"/>
      <point x="467" y="768"/>
      <point x="513" y="802"/>
      <point x="592" y="802" type="curve" smooth="yes"/>
      <point x="665" y="802"/>
      <point x="713" y="772"/>
      <point x="713" y="726" type="curve" smooth="yes"/>
      <point x="713" y="374" type="line" smooth="yes"/>
      <point x="713" y="280"/>
      <point x="626" y="230"/>
      <point x="540" y="230" type="curve" smooth="yes"/>
      <point x="472" y="230"/>
      <point x="424" y="262"/>
      <point x="424" y="316" type="curve" smooth="yes"/>
      <point x="424" y="384"/>
      <point x="493" y="432"/>
      <point x="592" y="432" type="curve" smooth="yes"/>
      <point x="1792" y="432" type="line"/>
      <point x="1792" y="539" type="line" smooth="yes"/>
      <point x="1792" y="856"/>
      <point x="1563" y="1080"/>
      <point x="1239" y="1080" type="curve" smooth="yes"/>
      <point x="1059" y="1080"/>
      <point x="948" y="1009"/>
      <point x="850" y="891" type="curve"/>
      <point x="850" y="183" type="line"/>
      <point x="913" y="63"/>
      <point x="1071" y="-24"/>
      <point x="1247" y="-24" type="curve" smooth="yes"/>
      <point x="1525" y="-24"/>
      <point x="1749" y="129"/>
      <point x="1788" y="345" type="curve"/>
      <point x="1434" y="345" type="line"/>
      <point x="1412" y="288"/>
      <point x="1348" y="254"/>
      <point x="1263" y="254" type="curve" smooth="yes"/>
      <point x="1144" y="254"/>
      <point x="1074" y="323"/>
      <point x="1074" y="440" type="curve" smooth="yes"/>
      <point x="1074" y="617" type="line" smooth="yes"/>
      <point x="1074" y="728"/>
      <point x="1139" y="794"/>
      <point x="1250" y="794" type="curve" smooth="yes"/>
      <point x="1361" y="794"/>
      <point x="1426" y="728"/>
      <point x="1426" y="617" type="curve"/>
      <point x="1610" y="656" type="line"/>
      <point x="680" y="656" type="line" smooth="yes"/>
      <point x="310" y="656"/>
      <point x="50" y="566"/>
      <point x="50" y="292" type="curve" smooth="yes"/>
      <point x="50" y="82"/>
      <point x="198" y="-19"/>
    </contour>
  </outline>
</glyph>
<glyph name="eth" format="2">
  <advance width="1224"/>
  <unicode hex="00F0"/>
  <outline>
    <contour>
      <point x="926" y="1394" type="line"/>
      <point x="926" y="1556" type="line"/>
      <point x="188" y="1170" type="line"/>
      <point x="188" y="1006" type="line"/>
    </contour>
    <contour>
      <point x="604" y="-24" type="curve" smooth="yes"/>
      <point x="963" y="-23"/>
      <point x="1178" y="225"/>
      <point x="1178" y="590" type="curve" smooth="yes"/>
      <point x="1178" y="1135"/>
      <point x="709" y="1496"/>
      <point x="188" y="1564" type="curve"/>
      <point x="188" y="1370" type="line"/>
      <point x="390" y="1311"/>
      <point x="673" y="1154"/>
      <point x="788" y="930" type="curve"/>
      <point x="772" y="930" type="line"/>
      <point x="709" y="989"/>
      <point x="618" y="1026"/>
      <point x="504" y="1026" type="curve" smooth="yes"/>
      <point x="220" y="1026"/>
      <point x="46" y="794"/>
      <point x="46" y="512" type="curve" smooth="yes"/>
      <point x="46" y="189"/>
      <point x="271" y="-23"/>
    </contour>
    <contour>
      <point x="616" y="270" type="curve" smooth="yes"/>
      <point x="499" y="269"/>
      <point x="424" y="371"/>
      <point x="424" y="542" type="curve" smooth="yes"/>
      <point x="424" y="703"/>
      <point x="488" y="798"/>
      <point x="616" y="798" type="curve" smooth="yes"/>
      <point x="743" y="798"/>
      <point x="810" y="704"/>
      <point x="810" y="542" type="curve" smooth="yes"/>
      <point x="810" y="369"/>
      <point x="733" y="269"/>
    </contour>
  </outline>
</glyph>
<glyph name="divide" format="2">
  <advance width="1388"/>
  <unicode hex="00F7"/>
  <outline>
    <contour>
      <point x="1232" y="756" type="line"/>
      <point x="156" y="756" type="line"/>
      <point x="156" y="454" type="line"/>
      <point x="1232" y="454" type="line"/>
    </contour>
    <contour>
      <point x="694" y="-24" type="curve" smooth="yes"/>
      <point x="806" y="-23"/>
      <point x="898" y="68"/>
      <point x="898" y="184" type="curve" smooth="yes"/>
      <point x="898" y="295"/>
      <point x="806" y="386"/>
      <point x="694" y="386" type="curve" smooth="yes"/>
      <point x="579" y="386"/>
      <point x="488" y="295"/>
      <point x="488" y="184" type="curve" smooth="yes"/>
      <point x="488" y="68"/>
      <point x="579" y="-23"/>
    </contour>
    <contour>
      <point x="694" y="824" type="curve" smooth="yes"/>
      <point x="807" y="823"/>
      <point x="898" y="916"/>
      <point x="898" y="1030" type="curve" smooth="yes"/>
      <point x="898" y="1143"/>
      <point x="807" y="1234"/>
      <point x="694" y="1234" type="curve" smooth="yes"/>
      <point x="580" y="1234"/>
      <point x="488" y="1143"/>
      <point x="488" y="1030" type="curve" smooth="yes"/>
      <point x="488" y="916"/>
      <point x="580" y="823"/>
    </contour>
  </outline>
</glyph>
<glyph name="thorn" format="2">
  <advance width="1282"/>
  <unicode hex="00FE"/>
  <outline>
    <contour>
      <point x="780" y="-24" type="curve" smooth="yes"/>
      <point x="1057" y="-24"/>
      <point x="1236" y="194"/>
      <point x="1236" y="530" type="curve" smooth="yes"/>
      <point x="1236" y="853"/>
      <point x="1049" y="1080"/>
      <point x="784" y="1080" type="curve" smooth="yes"/>
      <point x="647" y="1080"/>
      <point x="555" y="1027"/>
      <point x="493" y="924" type="curve"/>
      <point x="488" y="924" type="line"/>
      <point x="488" y="1490" type="line"/>
      <point x="86" y="1490" type="line"/>
      <point x="86" y="-418" type="line"/>
      <point x="488" y="-418" type="line"/>
      <point x="488" y="156" type="line"/>
      <point x="492" y="156" type="line"/>
      <point x="540" y="40"/>
      <point x="640" y="-24"/>
    </contour>
    <contour>
      <point x="661" y="290" type="curve" smooth="yes"/>
      <point x="552" y="290"/>
      <point x="474" y="384"/>
      <point x="474" y="530" type="curve" smooth="yes"/>
      <point x="474" y="675"/>
      <point x="552" y="768"/>
      <point x="661" y="768" type="curve" smooth="yes"/>
      <point x="770" y="768"/>
      <point x="832" y="675"/>
      <point x="832" y="530" type="curve" smooth="yes"/>
      <point x="832" y="384"/>
      <point x="770" y="290"/>
    </contour>
  </outline>
</glyph>
<glyph name="idotless" format="2">
  <advance width="572"/>
  <unicode hex="0131"/>
  <anchor x="286" y="0" name="bottom"/>
  <anchor x="286" y="594" name="cross"/>
  <anchor x="486" y="0" name="ogonek"/>
  <anchor x="286" y="1056" name="top"/>
  <outline>
    <contour>
      <point x="86" y="0" type="line"/>
      <point x="486" y="0" type="line"/>
      <point x="486" y="1056" type="line"/>
      <point x="86" y="1056" type="line"/>
    </contour>
  </outline>
</glyph>
<glyph name="kgreenlandic" format="2">
  <advance width="1262"/>
  <unicode hex="0138"/>
  <outline>
    <contour>
      <point x="488" y="1056" type="line"/>
      <point x="86" y="1056" type="line"/>
      <point x="86" y="0" type="line"/>
      <point x="488" y="0" type="line"/>
    </contour>
    <contour>
      <point x="1282" y="1056" type="line"/>
      <point x="822" y="1056" type="line"/>
      <point x="582" y="672" type="line"/>
      <point x="404" y="672" type="line"/>
      <point x="444" y="368" type="line"/>
      <point x="808" y="368" type="line"/>
    </contour>
    <contour>
      <point x="800" y="0" type="line"/>
      <point x="1282" y="0" type="line"/>
      <point x="924" y="556" type="line"/>
      <point x="584" y="392" type="line"/>
    </contour>
  </outline>
</glyph>
<glyph name="OE" format="2">
  <advance width="2174"/>
  <unicode hex="0152"/>
  <anchor x="1537" y="0" name="bottom"/>
  <anchor x="1535" y="0" name="cedilla"/>
  <anchor x="2114" y="0" name="ogonek"/>
  <anchor x="960" y="1490" name="tonos"/>
  <anchor x="1537" y="1490" name="top"/>
  <outline>
    <contour>
      <point x="794" y="0" type="curve"/>
      <point x="1202" y="0" type="line"/>
      <point x="1202" y="344" type="line"/>
      <point x="814" y="344" type="line" smooth="yes"/>
      <point x="571" y="344"/>
      <point x="460" y="473"/>
      <point x="460" y="744" type="curve" smooth="yes"/>
      <point x="460" y="1017"/>
      <point x="575" y="1146"/>
      <point x="826" y="1146" type="curve" smooth="yes"/>
      <point x="1208" y="1146" type="line"/>
      <point x="1208" y="1490" type="line"/>
      <point x="800" y="1490" type="line" smooth="yes"/>
      <point x="340" y="1490"/>
      <point x="40" y="1197"/>
      <point x="40" y="744" type="curve" smooth="yes"/>
      <point x="40" y="292"/>
      <point x="335" y="0"/>
    </contour>
    <component base="E" xOffset="880"/>
  </outline>
</glyph>
<glyph name="Btopbar" format="2">
  <advance width="1308"/>
  <unicode hex="0182"/>
  <outline>
    <contour>
      <point x="80" y="0" type="line"/>
      <point x="636" y="0" type="line" smooth="yes"/>
      <point x="1011" y="0"/>
      <point x="1262" y="204"/>
      <point x="1262" y="500" type="curve" smooth="yes"/>
      <point x="1262" y="797"/>
      <point x="1011" y="989"/>
      <point x="636" y="990" type="curve" smooth="yes"/>
      <point x="484" y="990" type="line"/>
      <point x="484" y="1164" type="line"/>
      <point x="1128" y="1164" type="line"/>
      <point x="1128" y="1490" type="line"/>
      <point x="80" y="1490" type="line"/>
    </contour>
    <contour>
      <point x="484" y="318" type="line"/>
      <point x="484" y="680" type="line"/>
      <point x="636" y="680" type="line" smooth="yes"/>
      <point x="781" y="680"/>
      <point x="860" y="605"/>
      <point x="860" y="504" type="curve" smooth="yes"/>
      <point x="860" y="396"/>
      <point x="781" y="317"/>
      <point x="636" y="318" type="curve" smooth="yes"/>
    </contour>
  </outline>
</glyph>
<glyph name="Tonesix" format="2">
  <advance width="1720"/>
  <unicode hex="0184"/>
  <anchor x="746" y="1218" name="cross"/>
  <outline>
    <contour>
      <point x="294.194" y="890.948" type="line"/>
      <point x="640.339" y="1490" type="line"/>
      <point x="247.661" y="1490" type="line"/>
      <point x="-0.194" y="1061.052" type="line"/>
    </contour>
    <component base="Softsign-cy" xOffset="384"/>
  </outline>
</glyph>
<glyph name="Dtopbar" format="2">
  <advance width="1396"/>
  <unicode hex="018B"/>
  <outline>
    <contour>
      <point x="1290" y="0" type="line"/>
      <point x="1290" y="1502" type="line"/>
      <point x="242" y="1502" type="line"/>
      <point x="242" y="1184" type="line"/>
      <point x="900" y="1184" type="line"/>
      <point x="900" y="990" type="line"/>
      <point x="734" y="990" type="line" smooth="yes"/>
      <point x="359" y="990"/>
      <point x="110" y="794"/>
      <point x="110" y="500" type="curve" smooth="yes"/>
      <point x="110" y="207"/>
      <point x="359" y="0"/>
      <point x="734" y="0" type="curve" smooth="yes"/>
    </contour>
    <contour>
      <point x="900" y="312" type="line"/>
      <point x="734" y="312" type="line" smooth="yes"/>
      <point x="586" y="312"/>
      <point x="498" y="396"/>
      <point x="498" y="504" type="curve" smooth="yes"/>
      <point x="498" y="605"/>
      <point x="586" y="681"/>
      <point x="734" y="680" type="curve" smooth="yes"/>
      <point x="900" y="680" type="line"/>
    </contour>
  </outline>
</glyph>
<glyph name="deltaturn" format="2">
  <advance width="1466"/>
  <unicode hex="018D"/>
  <outline>
    <contour>
      <point x="1168" y="-376" type="line"/>
      <point x="1168" y="-192" type="line"/>
      <point x="1119" y="-145"/>
      <point x="947" y="29"/>
      <point x="872" y="84" type="curve"/>
      <point x="886" y="84"/>
      <point x="910" y="84"/>
      <point x="910" y="84" type="curve" smooth="yes"/>
      <point x="1104" y="122"/>
      <point x="1290" y="311"/>
      <point x="1290" y="608" type="curve" smooth="yes"/>
      <point x="1290" y="628" type="line" smooth="yes"/>
      <point x="1290" y="931"/>
      <point x="1092" y="1132"/>
      <point x="734" y="1132" type="curve" smooth="yes"/>
      <point x="374" y="1132"/>
      <point x="179" y="905"/>
      <point x="178" y="570" type="curve" smooth="yes"/>
      <point x="178" y="550" type="line" smooth="yes"/>
      <point x="178" y="340"/>
      <point x="316" y="169"/>
      <point x="510" y="24" type="curve" smooth="yes"/>
      <point x="604" y="-47"/>
      <point x="650" y="-55"/>
      <point x="686" y="-76" type="curve"/>
      <point x="280" y="-76" type="line"/>
      <point x="280" y="-376" type="line"/>
    </contour>
    <contour>
      <point x="914" y="550" type="line"/>
      <point x="915" y="387"/>
      <point x="874" y="262"/>
      <point x="738" y="262" type="curve" smooth="yes"/>
      <point x="726" y="262"/>
      <point x="714" y="262"/>
      <point x="702" y="268" type="curve"/>
      <point x="621" y="308"/>
      <point x="554" y="404"/>
      <point x="554" y="550" type="curve" smooth="yes"/>
      <point x="554" y="570" type="line" smooth="yes"/>
      <point x="554" y="721"/>
      <point x="586" y="832"/>
      <point x="734" y="832" type="curve" smooth="yes"/>
      <point x="895" y="832"/>
      <point x="915" y="704"/>
      <point x="914" y="570" type="curve" smooth="yes"/>
    </contour>
  </outline>
</glyph>
<glyph name="Schwa" format="2">
  <advance width="1508"/>
  <unicode hex="018F"/>
  <outline>
    <contour>
      <point x="752" y="-24" type="curve" smooth="yes"/>
      <point x="1196" y="-24"/>
      <point x="1468" y="273"/>
      <point x="1468" y="744" type="curve" smooth="yes"/>
      <point x="1468" y="1242"/>
      <point x="1159" y="1514"/>
      <point x="752" y="1514" type="curve" smooth="yes"/>
      <point x="389" y="1514"/>
      <point x="94" y="1300"/>
      <point x="67" y="976" type="curve"/>
      <point x="491" y="976" type="line"/>
      <point x="512" y="1087"/>
      <point x="594" y="1154"/>
      <point x="745" y="1154" type="curve" smooth="yes"/>
      <point x="964" y="1154"/>
      <point x="1048" y="1009"/>
      <point x="1048" y="744" type="curve" smooth="yes"/>
      <point x="1048" y="469"/>
      <point x="960" y="336"/>
      <point x="745" y="336" type="curve" smooth="yes"/>
      <point x="572" y="336"/>
      <point x="462" y="419"/>
      <point x="462" y="543" type="curve"/>
      <point x="376" y="535" type="line"/>
      <point x="1137" y="535" type="line"/>
      <point x="1137" y="832" type="line"/>
      <point x="56" y="832" type="line"/>
      <point x="56" y="617" type="line" smooth="yes"/>
      <point x="56" y="229"/>
      <point x="339" y="-24"/>
    </contour>
  </outline>
</glyph>
<glyph name="florin" format="2">
  <advance width="1042"/>
  <unicode hex="0192"/>
  <outline>
    <contour>
      <point x="912" y="1082" type="line"/>
      <point x="686" y="1082" type="line"/>
      <point x="686" y="1160" type="line" smooth="yes"/>
      <point x="686" y="1228"/>
      <point x="739" y="1262"/>
      <point x="816" y="1262" type="curve" smooth="yes"/>
      <point x="873" y="1262"/>
      <point x="899" y="1260"/>
      <point x="930" y="1254" type="curve"/>
      <point x="950" y="1538" type="line"/>
      <point x="893" y="1548"/>
      <point x="844" y="1556"/>
      <point x="776" y="1556" type="curve" smooth="yes"/>
      <point x="477" y="1556"/>
      <point x="305" y="1420"/>
      <point x="304" y="1160" type="curve" smooth="yes"/>
      <point x="304" y="1082" type="line"/>
      <point x="144" y="1082" type="line"/>
      <point x="144" y="814" type="line"/>
      <point x="304" y="814" type="line"/>
      <point x="304" y="6" type="line" smooth="yes"/>
      <point x="304" y="-70"/>
      <point x="300" y="-120"/>
      <point x="200" y="-120" type="curve" smooth="yes"/>
      <point x="169" y="-120"/>
      <point x="131" y="-113"/>
      <point x="106" y="-108" type="curve"/>
      <point x="92" y="-404" type="line"/>
      <point x="157" y="-416"/>
      <point x="209" y="-418"/>
      <point x="266" y="-418" type="curve" smooth="yes"/>
      <point x="529" y="-418"/>
      <point x="685" y="-271"/>
      <point x="686" y="6" type="curve" smooth="yes"/>
      <point x="686" y="814" type="line"/>
      <point x="912" y="814" type="line"/>
    </contour>
  </outline>
</glyph>
<glyph name="Gamma1" format="2">
  <advance width="1650"/>
  <unicode hex="0194"/>
  <outline>
    <contour>
      <point x="82" y="1490" type="line"/>
      <point x="786" y="168" type="line" smooth="yes"/>
      <point x="834" y="79"/>
      <point x="866" y="-36"/>
      <point x="866" y="-116" type="curve" smooth="yes"/>
      <point x="866" y="-165"/>
      <point x="853" y="-186"/>
      <point x="824" y="-186" type="curve" smooth="yes"/>
      <point x="796" y="-186"/>
      <point x="784" y="-164"/>
      <point x="784" y="-118" type="curve" smooth="yes"/>
      <point x="784" y="-38"/>
      <point x="815" y="74"/>
      <point x="866" y="168" type="curve" smooth="yes"/>
      <point x="1566" y="1490" type="line"/>
      <point x="1098" y="1490" type="line"/>
      <point x="722" y="688" type="line" smooth="yes"/>
      <point x="422" y="46"/>
      <point x="386" y="-55"/>
      <point x="386" y="-140" type="curve" smooth="yes"/>
      <point x="386" y="-327"/>
      <point x="565" y="-442"/>
      <point x="824" y="-442" type="curve" smooth="yes"/>
      <point x="1079" y="-442"/>
      <point x="1250" y="-315"/>
      <point x="1250" y="-152" type="curve" smooth="yes"/>
      <point x="1250" y="-28"/>
      <point x="1143" y="245"/>
      <point x="932" y="686" type="curve" smooth="yes"/>
      <point x="548" y="1490" type="line"/>
    </contour>
  </outline>
</glyph>
<glyph name="hv" format="2">
  <advance width="2030"/>
  <unicode hex="0195"/>
  <outline>
    <contour>
      <point x="1314" y="-24" type="curve" smooth="yes"/>
      <point x="1785" y="-24"/>
      <point x="1944" y="323"/>
      <point x="1944" y="1012" type="curve" smooth="yes"/>
      <point x="1944" y="1056" type="line"/>
      <point x="1544" y="1056" type="line"/>
      <point x="1544" y="1012" type="line" smooth="yes"/>
      <point x="1544" y="573"/>
      <point x="1492" y="306"/>
      <point x="1326" y="306" type="curve" smooth="yes"/>
      <point x="1255" y="306"/>
      <point x="1212" y="353"/>
      <point x="1212" y="430" type="curve" smooth="yes"/>
      <point x="1212" y="666" type="line" smooth="yes"/>
      <point x="1212" y="906"/>
      <point x="1054" y="1080"/>
      <point x="819" y="1080" type="curve" smooth="yes"/>
      <point x="658" y="1080"/>
      <point x="538" y="996"/>
      <point x="488" y="856" type="curve"/>
      <point x="486" y="856" type="line"/>
      <point x="486" y="1490" type="line"/>
      <point x="86" y="1490" type="line"/>
      <point x="86" y="0" type="line"/>
      <point x="486" y="0" type="line"/>
      <point x="486" y="584" type="line" smooth="yes"/>
      <point x="486" y="692"/>
      <point x="552" y="758"/>
      <point x="649" y="758" type="curve" smooth="yes"/>
      <point x="750" y="758"/>
      <point x="812" y="692"/>
      <point x="812" y="584" type="curve" smooth="yes"/>
      <point x="812" y="430" type="line" smooth="yes"/>
      <point x="812" y="164"/>
      <point x="975" y="-24"/>
    </contour>
  </outline>
</glyph>
<glyph name="Khook" format="2">
  <advance width="1538"/>
  <unicode hex="0198"/>
  <outline>
    <contour>
      <point x="80" y="0" type="line"/>
      <point x="484" y="0" type="line"/>
      <point x="484" y="318" type="line"/>
      <point x="664" y="504" type="line"/>
      <point x="1048" y="0" type="line"/>
      <point x="1532" y="0" type="line"/>
      <point x="924" y="792" type="line"/>
      <point x="1226" y="1096" type="line" smooth="yes"/>
      <point x="1289" y="1159"/>
      <point x="1331" y="1196"/>
      <point x="1424" y="1152" type="curve"/>
      <point x="1544" y="1434" type="line"/>
      <point x="1311" y="1562"/>
      <point x="1104" y="1521"/>
      <point x="926" y="1342" type="curve" smooth="yes"/>
      <point x="504" y="914" type="line"/>
      <point x="484" y="914" type="line"/>
      <point x="484" y="1490" type="line"/>
      <point x="80" y="1490" type="line"/>
    </contour>
  </outline>
</glyph>
<glyph name="mcapturn" format="2">
  <advance width="1990"/>
  <unicode hex="019C"/>
  <outline>
    <contour>
      <point x="1474" y="286" type="line"/>
      <point x="1518" y="0" type="line"/>
      <point x="1852" y="0" type="line"/>
      <point x="1852" y="1490" type="line"/>
      <point x="1474" y="1490" type="line"/>
    </contour>
    <contour>
      <point x="1522" y="504" type="line"/>
      <point x="1523" y="375"/>
      <point x="1468" y="280"/>
      <point x="1316" y="280" type="curve" smooth="yes"/>
      <point x="1223" y="280"/>
      <point x="1180" y="335"/>
      <point x="1180" y="414" type="curve"/>
      <point x="1180" y="1490" type="line"/>
      <point x="808" y="1490" type="line"/>
      <point x="808" y="414" type="line"/>
      <point x="808" y="99"/>
      <point x="956" y="-20"/>
      <point x="1188" y="-20" type="curve" smooth="yes"/>
      <point x="1459" y="-20"/>
      <point x="1622" y="204"/>
      <point x="1622" y="506" type="curve"/>
    </contour>
    <contour>
      <point x="856" y="504" type="line"/>
      <point x="857" y="372"/>
      <point x="801" y="280"/>
      <point x="650" y="280" type="curve" smooth="yes"/>
      <point x="557" y="280"/>
      <point x="513" y="335"/>
      <point x="514" y="414" type="curve" smooth="yes"/>
      <point x="514" y="1490" type="line"/>
      <point x="142" y="1490" type="line"/>
      <point x="142" y="414" type="line" smooth="yes"/>
      <point x="142" y="102"/>
      <point x="257" y="-20"/>
      <point x="522" y="-20" type="curve" smooth="yes"/>
      <point x="804" y="-20"/>
      <point x="961" y="195"/>
      <point x="962" y="506" type="curve"/>
    </contour>
  </outline>
</glyph>
<glyph name="Ohorn" format="2">
  <advance width="1528"/>
  <unicode hex="01A0"/>
  <anchor x="764" y="0" name="bottom"/>
  <anchor x="764" y="745" name="center"/>
  <anchor x="1488" y="744" name="ogonek"/>
  <anchor x="194" y="1490" name="tonos"/>
  <anchor x="764" y="1490" name="top"/>
  <anchor x="764" y="1514" name="tophorn"/>
  <outline>
    <contour>
      <point x="764" y="1282" type="line"/>
      <point x="919" y="1282"/>
      <point x="1075" y="1258"/>
      <point x="1230" y="1258" type="curve" smooth="yes"/>
      <point x="1374" y="1258"/>
      <point x="1488" y="1320"/>
      <point x="1488" y="1470" type="curve" smooth="yes"/>
      <point x="1488" y="1730" type="line"/>
      <point x="1140" y="1730" type="line"/>
      <point x="1140" y="1522" type="line" smooth="yes"/>
      <point x="1140" y="1501"/>
      <point x="1129" y="1490"/>
      <point x="1108" y="1490" type="curve" smooth="yes"/>
      <point x="943" y="1490"/>
      <point x="879" y="1514"/>
      <point x="764" y="1514" type="curve"/>
    </contour>
    <component base="O"/>
  </outline>
</glyph>
<glyph name="ohorn" format="2">
  <advance width="1244"/>
  <unicode hex="01A1"/>
  <anchor x="622" y="0" name="bottom"/>
  <anchor x="622" y="528" name="center"/>
  <anchor x="1198" y="528" name="ogonek"/>
  <anchor x="622" y="1056" name="top"/>
  <anchor x="622" y="1080" name="tophorn"/>
  <outline>
    <contour>
      <point x="622" y="864" type="line"/>
      <point x="733" y="864"/>
      <point x="845" y="864"/>
      <point x="956" y="864" type="curve" smooth="yes"/>
      <point x="1129" y="864"/>
      <point x="1238" y="957"/>
      <point x="1238" y="1104" type="curve" smooth="yes"/>
      <point x="1238" y="1296" type="line"/>
      <point x="938" y="1296" type="line"/>
      <point x="938" y="1104" type="line" smooth="yes"/>
      <point x="938" y="1074"/>
      <point x="921" y="1057"/>
      <point x="890" y="1057" type="curve" smooth="yes"/>
      <point x="828" y="1057"/>
      <point x="744" y="1080"/>
      <point x="622" y="1080" type="curve"/>
    </contour>
    <component base="o"/>
  </outline>
</glyph>
<glyph name="OI" format="2">
  <advance width="1978"/>
  <unicode hex="01A2"/>
  <outline>
    <contour>
      <point x="1362" y="966" type="line"/>
      <point x="984" y="966" type="line"/>
      <point x="984" y="340" type="line"/>
      <point x="949" y="317"/>
      <point x="879" y="290"/>
      <point x="784" y="290" type="curve" smooth="yes"/>
      <point x="542" y="290"/>
      <point x="473" y="451"/>
      <point x="472" y="690" type="curve" smooth="yes"/>
      <point x="472" y="776" type="line"/>
      <point x="74" y="774" type="line"/>
      <point x="74" y="690" type="line" smooth="yes"/>
      <point x="74" y="241"/>
      <point x="331" y="-20"/>
      <point x="770" y="-20" type="curve" smooth="yes"/>
      <point x="1067" y="-20"/>
      <point x="1281" y="96"/>
      <point x="1362" y="178" type="curve"/>
    </contour>
    <contour>
      <point x="1362" y="1312" type="line"/>
      <point x="1281" y="1396"/>
      <point x="1070" y="1510"/>
      <point x="770" y="1510" type="curve" smooth="yes"/>
      <point x="331" y="1510"/>
      <point x="74" y="1251"/>
      <point x="74" y="800" type="curve" smooth="yes"/>
      <point x="74" y="698" type="line"/>
      <point x="472" y="696" type="line"/>
      <point x="472" y="800" type="line" smooth="yes"/>
      <point x="472" y="1053"/>
      <point x="530" y="1198"/>
      <point x="786" y="1198" type="curve" smooth="yes"/>
      <point x="859" y="1198"/>
      <point x="937" y="1187"/>
      <point x="984" y="1152" type="curve"/>
      <point x="984" y="530" type="line"/>
      <point x="1362" y="536" type="line"/>
    </contour>
    <contour>
      <point x="1898" y="1490" type="line"/>
      <point x="1618" y="1490" type="line"/>
      <point x="1148" y="1266" type="line"/>
      <point x="1148" y="832" type="line"/>
      <point x="1526" y="1016" type="line"/>
      <point x="1526" y="-418" type="line"/>
      <point x="1898" y="-418" type="line"/>
    </contour>
  </outline>
</glyph>
<glyph name="oi" format="2">
  <advance width="1644"/>
  <unicode hex="01A3"/>
  <outline>
    <contour>
      <point x="600" y="282" type="curve" smooth="yes"/>
      <point x="446" y="282"/>
      <point x="446" y="416"/>
      <point x="446" y="532" type="curve" smooth="yes"/>
      <point x="446" y="550" type="line" smooth="yes"/>
      <point x="446" y="710"/>
      <point x="457" y="832"/>
      <point x="594" y="832" type="curve"/>
      <point x="661" y="832"/>
      <point x="699" y="809"/>
      <point x="726" y="766" type="curve"/>
      <point x="726" y="638" type="line"/>
      <point x="1102" y="602" type="line"/>
      <point x="1102" y="824" type="line"/>
      <point x="1048" y="943"/>
      <point x="873" y="1132"/>
      <point x="610" y="1132" type="curve" smooth="yes"/>
      <point x="251" y="1132"/>
      <point x="74" y="899"/>
      <point x="74" y="550" type="curve" smooth="yes"/>
      <point x="74" y="532" type="line" smooth="yes"/>
      <point x="74" y="209"/>
      <point x="251" y="-20"/>
      <point x="610" y="-20" type="curve"/>
      <point x="903" y="-20"/>
      <point x="1028" y="105"/>
      <point x="1102" y="248" type="curve"/>
      <point x="1102" y="686" type="line"/>
      <point x="726" y="686" type="line"/>
      <point x="726" y="328" type="line"/>
      <point x="702" y="297"/>
      <point x="658" y="282"/>
    </contour>
    <contour>
      <point x="1572" y="1118" type="line"/>
      <point x="1328" y="1118" type="line"/>
      <point x="942" y="962" type="line"/>
      <point x="942" y="646" type="line"/>
      <point x="1194" y="718" type="line"/>
      <point x="1194" y="-418" type="line"/>
      <point x="1572" y="-418" type="line"/>
    </contour>
  </outline>
</glyph>
<glyph name="YR" format="2">
  <advance width="1586"/>
  <unicode hex="01A6"/>
  <outline>
    <contour>
      <point x="78" y="1388" type="line"/>
      <point x="466" y="1388" type="line"/>
      <point x="466" y="1592" type="line"/>
      <point x="78" y="1592" type="line"/>
    </contour>
    <contour>
      <point x="78" y="1490" type="line" name="hr01"/>
      <point x="78" y="0" type="line"/>
      <point x="470" y="0" type="line"/>
      <point x="470" y="1176" type="line"/>
      <point x="694" y="1176" type="line" smooth="yes"/>
      <point x="816" y="1176"/>
      <point x="888" y="1111"/>
      <point x="888" y="1000" type="curve" smooth="yes"/>
      <point x="888" y="890"/>
      <point x="819" y="829"/>
      <point x="694" y="830" type="curve" smooth="yes"/>
      <point x="316" y="830" type="line"/>
      <point x="318" y="518" type="line"/>
      <point x="828" y="518" type="line"/>
      <point x="962" y="600" type="line"/>
      <point x="1148" y="675"/>
      <point x="1278" y="777"/>
      <point x="1278" y="1048" type="curve" smooth="yes"/>
      <point x="1278" y="1335"/>
      <point x="1046" y="1489"/>
      <point x="694" y="1490" type="curve" smooth="yes"/>
    </contour>
    <contour>
      <point x="1090" y="-344" type="line"/>
      <point x="1508" y="-344" type="line"/>
      <point x="1508" y="-328" type="line"/>
      <point x="988" y="640" type="line"/>
      <point x="574" y="640" type="line"/>
    </contour>
  </outline>
</glyph>
<glyph name="tonetwo" format="2">
  <advance width="1144"/>
  <unicode hex="01A8"/>
  <anchor x="568" y="0" name="bottom"/>
  <anchor x="560" y="0" name="cedilla"/>
  <anchor x="586" y="1056" name="top"/>
  <outline>
    <contour>
      <point x="64" y="705" type="curve"/>
      <point x="428" y="705" type="line"/>
      <point x="430" y="766"/>
      <point x="489" y="813"/>
      <point x="566" y="813" type="curve" smooth="yes"/>
      <point x="643" y="813"/>
      <point x="686" y="784"/>
      <point x="686" y="745" type="curve" smooth="yes"/>
      <point x="686" y="712"/>
      <point x="651" y="688"/>
      <point x="588" y="677" type="curve" smooth="yes"/>
      <point x="362" y="639" type="line" smooth="yes"/>
      <point x="140" y="602"/>
      <point x="36" y="511"/>
      <point x="36" y="353" type="curve" smooth="yes"/>
      <point x="36" y="129"/>
      <point x="244" y="-27"/>
      <point x="560" y="-27" type="curve" smooth="yes"/>
      <point x="874" y="-27"/>
      <point x="1087" y="122"/>
      <point x="1108" y="345" type="curve"/>
      <point x="714" y="345" type="line"/>
      <point x="705" y="282"/>
      <point x="652" y="239"/>
      <point x="566" y="239" type="curve" smooth="yes"/>
      <point x="487" y="239"/>
      <point x="442" y="266"/>
      <point x="442" y="307" type="curve" smooth="yes"/>
      <point x="442" y="341"/>
      <point x="480" y="364"/>
      <point x="560" y="377" type="curve" smooth="yes"/>
      <point x="758" y="409" type="line" smooth="yes"/>
      <point x="970" y="443"/>
      <point x="1084" y="552"/>
      <point x="1084" y="723" type="curve" smooth="yes"/>
      <point x="1084" y="941"/>
      <point x="898" y="1077"/>
      <point x="582" y="1077" type="curve" smooth="yes"/>
      <point x="263" y="1077"/>
      <point x="70" y="934"/>
    </contour>
  </outline>
</glyph>
<glyph name="eshlooprev" format="2">
  <advance width="1458"/>
  <unicode hex="01AA"/>
  <outline>
    <contour>
      <point x="696" y="896" type="line"/>
      <point x="696" y="8" type="line" smooth="yes"/>
      <point x="696" y="-282"/>
      <point x="873" y="-442"/>
      <point x="1150" y="-442" type="curve" smooth="yes"/>
      <point x="1216" y="-442"/>
      <point x="1268" y="-439"/>
      <point x="1326" y="-428" type="curve"/>
      <point x="1326" y="-134" type="line"/>
      <point x="1280" y="-140"/>
      <point x="1251" y="-142"/>
      <point x="1218" y="-142" type="curve" smooth="yes"/>
      <point x="1126" y="-142"/>
      <point x="1072" y="-87"/>
      <point x="1072" y="8" type="curve" smooth="yes"/>
      <point x="1072" y="1100" type="line"/>
    </contour>
    <contour>
      <point x="132" y="1100" type="curve" smooth="yes"/>
      <point x="134" y="847"/>
      <point x="343" y="642"/>
      <point x="600" y="642" type="curve" smooth="yes"/>
      <point x="858" y="642"/>
      <point x="1072" y="849"/>
      <point x="1072" y="1100" type="curve" smooth="yes"/>
      <point x="1072" y="1347"/>
      <point x="858" y="1556"/>
      <point x="600" y="1556" type="curve" smooth="yes"/>
      <point x="340" y="1556"/>
      <point x="131" y="1347"/>
    </contour>
    <contour>
      <point x="604" y="954" type="curve" smooth="yes"/>
      <point x="515" y="954"/>
      <point x="454" y="1004"/>
      <point x="456" y="1102" type="curve" smooth="yes"/>
      <point x="456" y="1196"/>
      <point x="515" y="1246"/>
      <point x="604" y="1246" type="curve" smooth="yes"/>
      <point x="678" y="1246"/>
      <point x="746" y="1199"/>
      <point x="746" y="1102" type="curve" smooth="yes"/>
      <point x="748" y="1004"/>
      <point x="681" y="954"/>
    </contour>
  </outline>
</glyph>
<glyph name="thook" format="2">
  <advance width="844"/>
  <unicode hex="01AD"/>
  <anchor x="582" y="1056" name="_topr"/>
  <anchor x="472" y="0" name="bottom"/>
  <anchor x="420" y="1490" name="top"/>
  <outline>
    <contour>
      <point x="182" y="1056" type="line"/>
      <point x="182" y="340" type="line" smooth="yes"/>
      <point x="182" y="104"/>
      <point x="304" y="0"/>
      <point x="580" y="0" type="curve" smooth="yes"/>
      <point x="670" y="0"/>
      <point x="764" y="0"/>
      <point x="800" y="0" type="curve"/>
      <point x="800" y="304" type="line"/>
      <point x="778" y="304"/>
      <point x="726" y="304"/>
      <point x="690" y="304" type="curve" smooth="yes"/>
      <point x="611" y="304"/>
      <point x="582" y="333"/>
      <point x="582" y="410" type="curve" smooth="yes"/>
      <point x="582" y="1056" type="line"/>
    </contour>
    <contour>
      <point x="800" y="1056" type="line"/>
      <point x="20" y="1056" type="line"/>
      <point x="20" y="752" type="line"/>
      <point x="800" y="752" type="line"/>
    </contour>
    <component base="_part.top_r_hook" xOffset="98"/>
  </outline>
</glyph>
<glyph name="Uhorn" format="2">
  <advance width="1444"/>
  <unicode hex="01AF"/>
  <anchor x="722" y="0" name="bottom"/>
  <anchor x="1364" y="530" name="ogonek"/>
  <anchor x="850" y="0" name="right"/>
  <anchor x="960" y="1490" name="rtophorn"/>
  <anchor x="722" y="1490" name="top"/>
  <outline>
    <contour>
      <point x="960" y="1258" type="line"/>
      <point x="1261" y="1258" type="line" smooth="yes"/>
      <point x="1405" y="1258"/>
      <point x="1519" y="1320"/>
      <point x="1519" y="1470" type="curve" smooth="yes"/>
      <point x="1519" y="1730" type="line"/>
      <point x="1171" y="1730" type="line"/>
      <point x="1171" y="1522" type="line" smooth="yes"/>
      <point x="1171" y="1501"/>
      <point x="1160" y="1490"/>
      <point x="1139" y="1490" type="curve" smooth="yes"/>
      <point x="960" y="1490" type="line"/>
    </contour>
    <component base="U"/>
  </outline>
</glyph>
<glyph name="uhorn" format="2">
  <advance width="1411"/>
  <unicode hex="01B0"/>
  <anchor x="657" y="0" name="bottom"/>
  <anchor x="1180" y="0" name="ogonek"/>
  <anchor x="780" y="1056" name="rtophorn"/>
  <anchor x="633" y="1056" name="top"/>
  <outline>
    <contour>
      <point x="948" y="824" type="line"/>
      <point x="1113" y="824" type="line" smooth="yes"/>
      <point x="1257" y="824"/>
      <point x="1371" y="886"/>
      <point x="1371" y="1036" type="curve" smooth="yes"/>
      <point x="1371" y="1296" type="line"/>
      <point x="1071" y="1296" type="line"/>
      <point x="1071" y="1088" type="line" smooth="yes"/>
      <point x="1071" y="1067"/>
      <point x="1060" y="1056"/>
      <point x="1039" y="1056" type="curve" smooth="yes"/>
      <point x="948" y="1056" type="line"/>
    </contour>
    <component base="u"/>
  </outline>
</glyph>
<glyph name="Upsilon2" format="2">
  <advance width="1586"/>
  <unicode hex="01B1"/>
  <outline>
    <contour>
      <point x="56" y="666" type="curve" smooth="yes"/>
      <point x="57" y="265"/>
      <point x="362" y="-20"/>
      <point x="792" y="-20" type="curve" smooth="yes"/>
      <point x="1223" y="-20"/>
      <point x="1528" y="265"/>
      <point x="1528" y="666" type="curve"/>
      <point x="1528" y="893"/>
      <point x="1430" y="1053"/>
      <point x="1272" y="1152" type="curve"/>
      <point x="1272" y="1164" type="line"/>
      <point x="1528" y="1164" type="line"/>
      <point x="1528" y="1490" type="line"/>
      <point x="898" y="1490" type="line"/>
      <point x="898" y="1082" type="line"/>
      <point x="1031" y="1030"/>
      <point x="1116" y="881"/>
      <point x="1116" y="706" type="curve" smooth="yes"/>
      <point x="1116" y="489"/>
      <point x="982" y="334"/>
      <point x="792" y="334" type="curve" smooth="yes"/>
      <point x="604" y="334"/>
      <point x="470" y="489"/>
      <point x="470" y="706" type="curve"/>
      <point x="470" y="881"/>
      <point x="554" y="1030"/>
      <point x="688" y="1082" type="curve"/>
      <point x="688" y="1490" type="line"/>
      <point x="56" y="1490" type="line"/>
      <point x="56" y="1164" type="line"/>
      <point x="312" y="1164" type="line"/>
      <point x="312" y="1152" type="line"/>
      <point x="156" y="1053"/>
      <point x="57" y="893"/>
    </contour>
  </outline>
</glyph>
<glyph name="Vcursive" format="2">
  <advance width="1388"/>
  <unicode hex="01B2"/>
  <outline>
    <contour>
      <point x="696" y="-20" type="curve" smooth="yes"/>
      <point x="1070" y="-20"/>
      <point x="1305" y="177"/>
      <point x="1304" y="520" type="curve" smooth="yes"/>
      <point x="1304" y="1058" type="line" smooth="yes"/>
      <point x="1304" y="1350"/>
      <point x="1144" y="1510"/>
      <point x="850" y="1510" type="curve" smooth="yes"/>
      <point x="792" y="1510"/>
      <point x="747" y="1505"/>
      <point x="686" y="1492" type="curve"/>
      <point x="686" y="1182" type="line"/>
      <point x="727" y="1187"/>
      <point x="759" y="1190"/>
      <point x="790" y="1190" type="curve" smooth="yes"/>
      <point x="889" y="1190"/>
      <point x="909" y="1161"/>
      <point x="910" y="1058" type="curve" smooth="yes"/>
      <point x="910" y="520" type="line" smooth="yes"/>
      <point x="910" y="378"/>
      <point x="857" y="290"/>
      <point x="696" y="290" type="curve" smooth="yes"/>
      <point x="535" y="290"/>
      <point x="476" y="378"/>
      <point x="476" y="520" type="curve" smooth="yes"/>
      <point x="476" y="1490" type="line"/>
      <point x="86" y="1490" type="line"/>
      <point x="86" y="520" type="line" smooth="yes"/>
      <point x="86" y="175"/>
      <point x="334" y="-20"/>
    </contour>
  </outline>
</glyph>
<glyph name="Yhook" format="2">
  <advance width="1698"/>
  <unicode hex="01B3"/>
  <outline>
    <contour>
      <point x="824" y="850" type="line"/>
      <point x="860" y="850" type="line"/>
      <point x="860" y="884" type="line"/>
      <point x="824" y="884" type="line"/>
    </contour>
    <contour>
      <point x="36" y="1490" type="line"/>
      <point x="642" y="550" type="line"/>
      <point x="642" y="0" type="line"/>
      <point x="1042" y="0" type="line"/>
      <point x="1042" y="550" type="line"/>
      <point x="1390" y="1080" type="line" smooth="yes"/>
      <point x="1450" y="1174"/>
      <point x="1492" y="1204"/>
      <point x="1610" y="1172" type="curve"/>
      <point x="1692" y="1470" type="line"/>
      <point x="1481" y="1542"/>
      <point x="1236" y="1520"/>
      <point x="1090" y="1280" type="curve" smooth="yes"/>
      <point x="842" y="870" type="line"/>
      <point x="470" y="1490" type="line"/>
    </contour>
  </outline>
</glyph>
<glyph name="yhook" format="2">
  <advance width="1486"/>
  <unicode hex="01B4"/>
  <anchor x="982" y="0" name="bottom"/>
  <anchor x="813" y="0" name="ogonek"/>
  <anchor x="572" y="1056" name="top"/>
  <outline>
    <contour>
      <point x="800" y="1056" type="line"/>
      <point x="1212" y="1056" type="line"/>
      <point x="1224" y="1088" type="line" smooth="yes"/>
      <point x="1244" y="1142"/>
      <point x="1253" y="1176"/>
      <point x="1310" y="1176" type="curve" smooth="yes"/>
      <point x="1371" y="1176"/>
      <point x="1422" y="1176"/>
      <point x="1446" y="1176" type="curve"/>
      <point x="1446" y="1490" type="line"/>
      <point x="1402" y="1490"/>
      <point x="1314" y="1490"/>
      <point x="1223" y="1490" type="curve" smooth="yes"/>
      <point x="942" y="1490"/>
      <point x="893" y="1352"/>
      <point x="817" y="1110" type="curve" smooth="yes"/>
    </contour>
    <component base="y"/>
  </outline>
</glyph>
<glyph name="Ezh" format="2">
  <advance width="1383"/>
  <unicode hex="01B7"/>
  <anchor x="690" y="1490" name="top"/>
  <outline>
    <contour>
      <point x="40" y="136" type="line"/>
      <point x="45" y="-199"/>
      <point x="317" y="-442"/>
      <point x="688" y="-442" type="curve" smooth="yes"/>
      <point x="1071" y="-442"/>
      <point x="1348" y="-164"/>
      <point x="1348" y="222" type="curve" smooth="yes"/>
      <point x="1348" y="534"/>
      <point x="1154" y="759"/>
      <point x="854" y="792" type="curve"/>
      <point x="854" y="806" type="line"/>
      <point x="1310" y="1198" type="line"/>
      <point x="1310" y="1490" type="line"/>
      <point x="120" y="1490" type="line"/>
      <point x="120" y="1158" type="line"/>
      <point x="824" y="1158" type="line"/>
      <point x="824" y="1146" type="line"/>
      <point x="464" y="832" type="line"/>
      <point x="464" y="552" type="line"/>
      <point x="658" y="552" type="line" smooth="yes"/>
      <point x="812" y="552"/>
      <point x="924" y="425"/>
      <point x="924" y="214" type="curve" smooth="yes"/>
      <point x="924" y="26"/>
      <point x="837" y="-108"/>
      <point x="682" y="-108" type="curve" smooth="yes"/>
      <point x="550" y="-108"/>
      <point x="452" y="-9"/>
      <point x="446" y="136" type="curve"/>
    </contour>
  </outline>
</glyph>
<glyph name="Ezhreversed" format="2">
  <advance width="1385"/>
  <unicode hex="01B8"/>
  <anchor x="693" y="1490" name="top"/>
  <outline>
    <contour>
      <point x="1345" y="136" type="curve"/>
      <point x="937" y="136" type="line"/>
      <point x="932" y="-9"/>
      <point x="834" y="-108"/>
      <point x="701" y="-108" type="curve" smooth="yes"/>
      <point x="547" y="-108"/>
      <point x="461" y="26"/>
      <point x="461" y="214" type="curve" smooth="yes"/>
      <point x="461" y="425"/>
      <point x="572" y="553"/>
      <point x="725" y="552" type="curve" smooth="yes"/>
      <point x="919" y="552" type="line"/>
      <point x="919" y="832" type="line"/>
      <point x="559" y="1146" type="line"/>
      <point x="559" y="1158" type="line"/>
      <point x="1263" y="1158" type="line"/>
      <point x="1263" y="1490" type="line"/>
      <point x="73" y="1490" type="line"/>
      <point x="73" y="1198" type="line"/>
      <point x="531" y="806" type="line"/>
      <point x="531" y="792" type="line"/>
      <point x="230" y="759"/>
      <point x="35" y="534"/>
      <point x="35" y="222" type="curve" smooth="yes"/>
      <point x="35" y="-164"/>
      <point x="313" y="-442"/>
      <point x="695" y="-442" type="curve" smooth="yes"/>
      <point x="1067" y="-442"/>
      <point x="1339" y="-199"/>
    </contour>
  </outline>
</glyph>
<glyph name="ezhreversed" format="2">
  <advance width="1306"/>
  <unicode hex="01B9"/>
  <anchor x="650" y="1056" name="top"/>
  <outline>
    <contour>
      <point x="652" y="-458" type="curve" smooth="yes"/>
      <point x="1078" y="-458"/>
      <point x="1256" y="-200"/>
      <point x="1256" y="78" type="curve"/>
      <point x="866" y="78" type="line"/>
      <point x="866" y="-63"/>
      <point x="786" y="-148"/>
      <point x="654" y="-148" type="curve" smooth="yes"/>
      <point x="535" y="-148"/>
      <point x="452" y="-80"/>
      <point x="452" y="17" type="curve" smooth="yes"/>
      <point x="452" y="115"/>
      <point x="552" y="182"/>
      <point x="676" y="182" type="curve" smooth="yes"/>
      <point x="864" y="182" type="line"/>
      <point x="864" y="450" type="line"/>
      <point x="570" y="717" type="line"/>
      <point x="570" y="718" type="line"/>
      <point x="1184" y="718" type="line"/>
      <point x="1184" y="1056" type="line"/>
      <point x="82" y="1056" type="line"/>
      <point x="82" y="764" type="line"/>
      <point x="493" y="404" type="line"/>
      <point x="493" y="403" type="line"/>
      <point x="141" y="360"/>
      <point x="40" y="151"/>
      <point x="40" y="-14" type="curve" smooth="yes"/>
      <point x="40" y="-269"/>
      <point x="287" y="-458"/>
    </contour>
  </outline>
</glyph>
<glyph name="ezhtail" format="2">
  <advance width="1196"/>
  <unicode hex="01BA"/>
  <outline>
    <contour>
      <point x="156" y="1056" type="line" name="hr00"/>
      <point x="156" y="756" type="line"/>
      <point x="508" y="756" type="line"/>
      <point x="318" y="640" type="line"/>
      <point x="318" y="430" type="line"/>
      <point x="540" y="430" type="line"/>
      <point x="1080" y="844" type="line"/>
      <point x="1080" y="1056" type="line"/>
    </contour>
    <contour>
      <point x="462" y="-119" type="curve" smooth="yes"/>
      <point x="462" y="-58"/>
      <point x="548" y="-37"/>
      <point x="648" y="-12" type="curve" smooth="yes"/>
      <point x="783" y="22"/>
      <point x="1078" y="91"/>
      <point x="1078" y="337" type="curve" smooth="yes"/>
      <point x="1078" y="524"/>
      <point x="907" y="674"/>
      <point x="606" y="674" type="curve" smooth="yes"/>
      <point x="430" y="674" type="line"/>
      <point x="430" y="430" type="line"/>
      <point x="606" y="430" type="line" smooth="yes"/>
      <point x="673" y="430"/>
      <point x="722" y="411"/>
      <point x="722" y="356" type="curve" smooth="yes"/>
      <point x="722" y="281"/>
      <point x="632" y="268"/>
      <point x="525" y="248" type="curve" smooth="yes"/>
      <point x="367" y="219"/>
      <point x="98" y="161"/>
      <point x="98" y="-87" type="curve" smooth="yes"/>
      <point x="98" y="-303"/>
      <point x="302" y="-442"/>
      <point x="594" y="-442" type="curve" smooth="yes"/>
      <point x="934" y="-442"/>
      <point x="1107" y="-254"/>
      <point x="1112" y="-72" type="curve"/>
      <point x="764" y="-72" type="line"/>
      <point x="759" y="-166"/>
      <point x="677" y="-192"/>
      <point x="596" y="-192" type="curve" smooth="yes"/>
      <point x="524" y="-192"/>
      <point x="462" y="-171"/>
    </contour>
  </outline>
</glyph>
<glyph name="Tonefive" format="2">
  <advance width="1348"/>
  <unicode hex="01BC"/>
  <outline>
    <contour>
      <point x="362" y="1490" type="line"/>
      <point x="40" y="1490" type="line"/>
      <point x="40" y="1166" type="line"/>
      <point x="362" y="1166" type="line"/>
    </contour>
    <component base="five" xOffset="78"/>
  </outline>
</glyph>
<glyph name="tonefive" format="2">
  <advance width="1466"/>
  <unicode hex="01BD"/>
  <outline>
    <contour>
      <point x="636" y="454" type="line" name="hr00"/>
      <point x="655" y="463"/>
      <point x="702" y="466"/>
      <point x="772" y="466" type="curve" smooth="yes"/>
      <point x="865" y="466"/>
      <point x="924" y="431"/>
      <point x="924" y="378" type="curve" smooth="yes"/>
      <point x="924" y="317"/>
      <point x="876" y="286"/>
      <point x="782" y="286" type="curve" smooth="yes"/>
      <point x="684" y="286"/>
      <point x="626" y="297"/>
      <point x="616" y="346" type="curve"/>
      <point x="240" y="334" type="line"/>
      <point x="240" y="84"/>
      <point x="489" y="-18"/>
      <point x="782" y="-18" type="curve" smooth="yes"/>
      <point x="1147" y="-18"/>
      <point x="1298" y="134"/>
      <point x="1298" y="344" type="curve" smooth="yes"/>
      <point x="1298" y="564"/>
      <point x="1147" y="696"/>
      <point x="888" y="696" type="curve" smooth="yes"/>
      <point x="780" y="696"/>
      <point x="702" y="675"/>
      <point x="656" y="654" type="curve"/>
      <point x="682" y="798" type="line"/>
      <point x="1208" y="798" type="line"/>
      <point x="1208" y="1082" type="line"/>
      <point x="380" y="1082" type="line"/>
      <point x="290" y="466" type="line"/>
    </contour>
    <contour>
      <point x="496" y="1082" type="line"/>
      <point x="168" y="1082" type="line"/>
      <point x="168" y="798" type="line"/>
      <point x="496" y="798" type="line"/>
    </contour>
  </outline>
</glyph>
<glyph name="glottalstopbarinv" format="2">
  <advance width="1196"/>
  <unicode hex="01BE"/>
  <outline>
    <contour>
      <point x="744" y="312" type="curve" smooth="yes" name="hr00"/>
      <point x="745" y="253"/>
      <point x="689" y="230"/>
      <point x="610" y="230" type="curve" smooth="yes"/>
      <point x="529" y="230"/>
      <point x="448" y="259"/>
      <point x="440" y="350" type="curve"/>
      <point x="92" y="350" type="line"/>
      <point x="92" y="183"/>
      <point x="271" y="-20"/>
      <point x="600" y="-20" type="curve" smooth="yes"/>
      <point x="911" y="-20"/>
      <point x="1104" y="125"/>
      <point x="1104" y="318" type="curve" smooth="yes"/>
      <point x="1104" y="663"/>
      <point x="736" y="532"/>
      <point x="734" y="838" type="curve" smooth="yes"/>
      <point x="734" y="1358" type="line"/>
      <point x="356" y="1358" type="line"/>
      <point x="356" y="846" type="line" smooth="yes"/>
      <point x="358" y="416"/>
      <point x="745" y="454"/>
    </contour>
    <contour>
      <point x="918" y="1082" type="line"/>
      <point x="222" y="1082" type="line"/>
      <point x="222" y="814" type="line"/>
      <point x="918" y="814" type="line"/>
    </contour>
  </outline>
</glyph>
<glyph name="wynn" format="2">
  <advance width="1408"/>
  <unicode hex="01BF"/>
  <outline>
    <contour>
      <point x="548" y="910" type="line"/>
      <point x="526" y="1118" type="line"/>
      <point x="170" y="1118" type="line"/>
      <point x="170" y="-416" type="line"/>
      <point x="548" y="-416" type="line"/>
    </contour>
    <contour>
      <point x="526" y="574" type="line"/>
      <point x="513" y="762"/>
      <point x="556" y="834"/>
      <point x="702" y="834" type="curve" smooth="yes"/>
      <point x="830" y="834"/>
      <point x="860" y="721"/>
      <point x="860" y="588" type="curve" smooth="yes"/>
      <point x="860" y="532" type="line" smooth="yes"/>
      <point x="860" y="256"/>
      <point x="664" y="90"/>
      <point x="376" y="82" type="curve"/>
      <point x="420" y="-212" type="line"/>
      <point x="949" y="-99"/>
      <point x="1238" y="105"/>
      <point x="1238" y="532" type="curve" smooth="yes"/>
      <point x="1238" y="588" type="line" smooth="yes"/>
      <point x="1238" y="913"/>
      <point x="1080" y="1132"/>
      <point x="796" y="1132" type="curve" smooth="yes"/>
      <point x="519" y="1132"/>
      <point x="423" y="867"/>
      <point x="376" y="570" type="curve"/>
    </contour>
  </outline>
</glyph>
<glyph name="pipe" format="2">
  <advance width="628"/>
  <unicode hex="01C0"/>
  <outline>
    <contour>
      <point x="412" y="1446" type="line"/>
      <point x="216" y="1446" type="line"/>
      <point x="216" y="0" type="line"/>
      <point x="412" y="0" type="line"/>
    </contour>
  </outline>
</glyph>
<glyph name="uni01F6" format="2">
  <advance width="2220"/>
  <unicode hex="01F6"/>
  <outline>
    <contour>
      <point x="1566" y="-24" type="curve" smooth="yes"/>
      <point x="1899" y="-24"/>
      <point x="2134" y="170"/>
      <point x="2134" y="446" type="curve" smooth="yes"/>
      <point x="2134" y="1056" type="line"/>
      <point x="1734" y="1056" type="line"/>
      <point x="1734" y="472" type="line" smooth="yes"/>
      <point x="1734" y="365"/>
      <point x="1671" y="298"/>
      <point x="1571" y="298" type="curve" smooth="yes"/>
      <point x="1471" y="298"/>
      <point x="1408" y="365"/>
      <point x="1408" y="472" type="curve" smooth="yes"/>
      <point x="1408" y="1490" type="line"/>
      <point x="992" y="1490" type="line"/>
      <point x="992" y="933" type="line"/>
      <point x="496" y="933" type="line"/>
      <point x="496" y="1490" type="line"/>
      <point x="80" y="1490" type="line"/>
      <point x="80" y="0" type="line"/>
      <point x="496" y="0" type="line"/>
      <point x="496" y="581" type="line"/>
      <point x="992" y="581" type="line"/>
      <point x="992" y="446" type="line" smooth="yes"/>
      <point x="992" y="170"/>
      <point x="1229" y="-24"/>
    </contour>
  </outline>
</glyph>
<glyph name="uni01F7" format="2">
  <advance width="1662"/>
  <unicode hex="01F7"/>
  <outline>
    <contour>
      <point x="580" y="1490" type="line"/>
      <point x="194" y="1490" type="line"/>
      <point x="194" y="-418" type="line"/>
      <point x="580" y="-418" type="line"/>
    </contour>
    <contour>
      <point x="418" y="-192" type="line"/>
      <point x="1129" y="29"/>
      <point x="1472" y="358"/>
      <point x="1474" y="774" type="curve" smooth="yes"/>
      <point x="1474" y="826" type="line" smooth="yes"/>
      <point x="1474" y="1263"/>
      <point x="1204" y="1510"/>
      <point x="834" y="1510" type="curve" smooth="yes"/>
      <point x="657" y="1510"/>
      <point x="527" y="1452"/>
      <point x="470" y="1376" type="curve"/>
      <point x="470" y="962" type="line"/>
      <point x="518" y="1091"/>
      <point x="679" y="1198"/>
      <point x="838" y="1198" type="curve" smooth="yes"/>
      <point x="1063" y="1198"/>
      <point x="1072" y="980"/>
      <point x="1072" y="830" type="curve" smooth="yes"/>
      <point x="1072" y="774" type="line" smooth="yes"/>
      <point x="1072" y="468"/>
      <point x="847" y="282"/>
      <point x="418" y="126" type="curve"/>
    </contour>
  </outline>
</glyph>
<glyph name="uni021C" format="2">
  <advance width="1394"/>
  <unicode hex="021C"/>
  <outline>
    <contour>
      <point x="232" y="306" type="line"/>
      <point x="1001" y="495"/>
      <point x="1264" y="706"/>
      <point x="1264" y="1062" type="curve" smooth="yes"/>
      <point x="1264" y="1370"/>
      <point x="1045" y="1510"/>
      <point x="680" y="1510" type="curve" smooth="yes"/>
      <point x="345" y="1510"/>
      <point x="109" y="1335"/>
      <point x="110" y="1088" type="curve"/>
      <point x="498" y="1088" type="line"/>
      <point x="498" y="1157"/>
      <point x="567" y="1198"/>
      <point x="680" y="1198" type="curve" smooth="yes"/>
      <point x="816" y="1198"/>
      <point x="878" y="1145"/>
      <point x="878" y="1006" type="curve" smooth="yes"/>
      <point x="878" y="827"/>
      <point x="763" y="755"/>
      <point x="232" y="600" type="curve"/>
    </contour>
    <contour>
      <point x="706" y="504" type="line"/>
      <point x="849" y="524"/>
      <point x="894" y="495"/>
      <point x="894" y="366" type="curve" smooth="yes"/>
      <point x="894" y="133"/>
      <point x="647" y="-52"/>
      <point x="232" y="-128" type="curve"/>
      <point x="232" y="-436" type="line"/>
      <point x="865" y="-373"/>
      <point x="1284" y="-56"/>
      <point x="1284" y="358" type="curve" smooth="yes"/>
      <point x="1284" y="612"/>
      <point x="1064" y="759"/>
      <point x="744" y="734" type="curve"/>
    </contour>
  </outline>
</glyph>
<glyph name="uni021D" format="2">
  <advance width="1198"/>
  <unicode hex="021D"/>
  <outline>
    <contour>
      <point x="248" y="120" type="line"/>
      <point x="827" y="290"/>
      <point x="1076" y="488"/>
      <point x="1076" y="774" type="curve" smooth="yes"/>
      <point x="1076" y="1012"/>
      <point x="916" y="1132"/>
      <point x="596" y="1132" type="curve" smooth="yes"/>
      <point x="283" y="1132"/>
      <point x="99" y="994"/>
      <point x="100" y="762" type="curve"/>
      <point x="478" y="762" type="line"/>
      <point x="478" y="823"/>
      <point x="518" y="858"/>
      <point x="590" y="858" type="curve" smooth="yes"/>
      <point x="667" y="858"/>
      <point x="702" y="821"/>
      <point x="702" y="738" type="curve" smooth="yes"/>
      <point x="702" y="593"/>
      <point x="592" y="509"/>
      <point x="248" y="386" type="curve"/>
    </contour>
    <contour>
      <point x="572" y="360" type="line"/>
      <point x="654" y="379"/>
      <point x="718" y="324"/>
      <point x="718" y="216" type="curve" smooth="yes"/>
      <point x="718" y="79"/>
      <point x="609" y="-17"/>
      <point x="248" y="-166" type="curve"/>
      <point x="248" y="-436" type="line"/>
      <point x="809" y="-303"/>
      <point x="1096" y="-88"/>
      <point x="1096" y="196" type="curve" smooth="yes"/>
      <point x="1096" y="418"/>
      <point x="921" y="528"/>
      <point x="604" y="504" type="curve"/>
    </contour>
  </outline>
</glyph>
<glyph name="uni0220" format="2">
  <advance width="1400"/>
  <unicode hex="0220"/>
  <outline>
    <contour>
      <point x="1266" y="-416" type="line"/>
      <point x="1266" y="1088" type="line" smooth="yes"/>
      <point x="1266" y="1340"/>
      <point x="1063" y="1510"/>
      <point x="784" y="1510" type="curve" smooth="yes"/>
      <point x="565" y="1510"/>
      <point x="371" y="1405"/>
      <point x="222" y="1218" type="curve"/>
      <point x="222" y="862" type="line"/>
      <point x="379" y="1091"/>
      <point x="548" y="1214"/>
      <point x="726" y="1214" type="curve" smooth="yes"/>
      <point x="828" y="1214"/>
      <point x="886" y="1173"/>
      <point x="886" y="1088" type="curve" smooth="yes"/>
      <point x="886" y="-416" type="line"/>
    </contour>
    <contour>
      <point x="514" y="1490" type="line"/>
      <point x="136" y="1490" type="line"/>
      <point x="136" y="0" type="line"/>
      <point x="514" y="0" type="line"/>
    </contour>
  </outline>
</glyph>
<glyph name="uni0222" format="2">
  <advance width="1396"/>
  <unicode hex="0222"/>
  <outline>
    <contour>
      <point x="690" y="954" type="line"/>
      <point x="319" y="954"/>
      <point x="106" y="782"/>
      <point x="106" y="482" type="curve" smooth="yes"/>
      <point x="106" y="178"/>
      <point x="336" y="-20"/>
      <point x="690" y="-20" type="curve" smooth="yes"/>
      <point x="712" y="-20" type="line" smooth="yes"/>
      <point x="1063" y="-20"/>
      <point x="1290" y="178"/>
      <point x="1290" y="486" type="curve" smooth="yes"/>
      <point x="1290" y="783"/>
      <point x="1077" y="954"/>
      <point x="712" y="954" type="curve" smooth="yes"/>
    </contour>
    <contour>
      <point x="712" y="684" type="line"/>
      <point x="822" y="684"/>
      <point x="892" y="608"/>
      <point x="892" y="486" type="curve" smooth="yes"/>
      <point x="892" y="361"/>
      <point x="823" y="285"/>
      <point x="712" y="286" type="curve" smooth="yes"/>
      <point x="690" y="286" type="line" smooth="yes"/>
      <point x="578" y="286"/>
      <point x="504" y="364"/>
      <point x="504" y="482" type="curve" smooth="yes"/>
      <point x="504" y="605"/>
      <point x="577" y="684"/>
      <point x="690" y="684" type="curve" smooth="yes"/>
    </contour>
    <contour>
      <point x="688" y="998" type="line"/>
      <point x="556" y="998"/>
      <point x="504" y="1018"/>
      <point x="504" y="1114" type="curve" smooth="yes"/>
      <point x="504" y="1170"/>
      <point x="522" y="1198"/>
      <point x="578" y="1208" type="curve"/>
      <point x="578" y="1510" type="line"/>
      <point x="274" y="1516"/>
      <point x="106" y="1365"/>
      <point x="106" y="1114" type="curve" smooth="yes"/>
      <point x="106" y="859"/>
      <point x="314" y="730"/>
      <point x="688" y="730" type="curve" smooth="yes"/>
      <point x="708" y="730" type="line" smooth="yes"/>
      <point x="1081" y="730"/>
      <point x="1296" y="861"/>
      <point x="1296" y="1114" type="curve" smooth="yes"/>
      <point x="1296" y="1363"/>
      <point x="1123" y="1516"/>
      <point x="822" y="1510" type="curve"/>
      <point x="822" y="1208" type="line"/>
      <point x="876" y="1197"/>
      <point x="898" y="1169"/>
      <point x="898" y="1114" type="curve" smooth="yes"/>
      <point x="898" y="1021"/>
      <point x="841" y="998"/>
      <point x="708" y="998" type="curve" smooth="yes"/>
    </contour>
  </outline>
</glyph>
<glyph name="uni0223" format="2">
  <advance width="1394"/>
  <unicode hex="0223"/>
  <outline>
    <contour>
      <point x="688" y="928" type="line" name="hr00"/>
      <point x="351" y="928"/>
      <point x="114" y="800"/>
      <point x="114" y="474" type="curve" smooth="yes"/>
      <point x="114" y="157"/>
      <point x="351" y="-20"/>
      <point x="688" y="-20" type="curve" smooth="yes"/>
      <point x="708" y="-20" type="line" smooth="yes"/>
      <point x="1043" y="-20"/>
      <point x="1278" y="157"/>
      <point x="1278" y="474" type="curve" smooth="yes"/>
      <point x="1278" y="800"/>
      <point x="1040" y="928"/>
      <point x="708" y="928" type="curve" smooth="yes"/>
    </contour>
    <contour>
      <point x="708" y="666" type="line"/>
      <point x="842" y="666"/>
      <point x="900" y="582"/>
      <point x="900" y="474" type="curve" smooth="yes"/>
      <point x="900" y="367"/>
      <point x="842" y="282"/>
      <point x="708" y="282" type="curve" smooth="yes"/>
      <point x="688" y="282" type="line" smooth="yes"/>
      <point x="560" y="282"/>
      <point x="494" y="367"/>
      <point x="494" y="474" type="curve" smooth="yes"/>
      <point x="494" y="582"/>
      <point x="560" y="666"/>
      <point x="688" y="666" type="curve" smooth="yes"/>
    </contour>
    <contour>
      <point x="706" y="966" type="curve" smooth="yes"/>
      <point x="688" y="966" type="line" smooth="yes"/>
      <point x="545" y="966"/>
      <point x="494" y="1018"/>
      <point x="494" y="1134" type="curve" smooth="yes"/>
      <point x="494" y="1216"/>
      <point x="534" y="1257"/>
      <point x="574" y="1266" type="curve"/>
      <point x="574" y="1556" type="line"/>
      <point x="295" y="1559"/>
      <point x="114" y="1420"/>
      <point x="114" y="1144" type="curve" smooth="yes"/>
      <point x="114" y="823"/>
      <point x="351" y="707"/>
      <point x="688" y="706" type="curve" smooth="yes"/>
      <point x="706" y="706" type="line" smooth="yes"/>
      <point x="1046" y="706"/>
      <point x="1278" y="823"/>
      <point x="1278" y="1144" type="curve" smooth="yes"/>
      <point x="1278" y="1425"/>
      <point x="1095" y="1559"/>
      <point x="818" y="1556" type="curve"/>
      <point x="818" y="1266" type="line"/>
      <point x="860" y="1257"/>
      <point x="906" y="1216"/>
      <point x="906" y="1134" type="curve" smooth="yes"/>
      <point x="906" y="1021"/>
      <point x="851" y="966"/>
    </contour>
  </outline>
</glyph>
<glyph name="zhook" format="2">
  <advance width="1148"/>
  <unicode hex="0225"/>
  <outline>
    <contour>
      <point x="858" y="-208" type="line"/>
      <point x="1184" y="-208" type="line"/>
      <point x="1184" y="-142" type="line" smooth="yes"/>
      <point x="1184" y="145"/>
      <point x="1048" y="302"/>
      <point x="804" y="302" type="curve" smooth="yes"/>
      <point x="576" y="302" type="line"/>
      <point x="576" y="304" type="line"/>
      <point x="1040" y="784" type="line"/>
      <point x="1040" y="1056" type="line"/>
      <point x="98" y="1056" type="line"/>
      <point x="98" y="752" type="line"/>
      <point x="575" y="752" type="line"/>
      <point x="575" y="750" type="line"/>
      <point x="98" y="256" type="line"/>
      <point x="98" y="0" type="line"/>
      <point x="756" y="0" type="line" smooth="yes"/>
      <point x="827" y="0"/>
      <point x="858" y="-38"/>
      <point x="858" y="-126" type="curve" smooth="yes"/>
    </contour>
  </outline>
</glyph>
<glyph name="jdotless" format="2">
  <advance width="574"/>
  <unicode hex="0237"/>
  <anchor x="432" y="0" name="_right"/>
  <anchor x="228" y="-398" name="bottom"/>
  <anchor x="288" y="686" name="cross"/>
  <anchor x="288" y="1056" name="top"/>
  <outline>
    <contour>
      <point x="88" y="1056" type="line"/>
      <point x="88" y="0" type="line" smooth="yes"/>
      <point x="88" y="-82"/>
      <point x="59" y="-114"/>
      <point x="-12" y="-114" type="curve" smooth="yes"/>
      <point x="-86" y="-114" type="line"/>
      <point x="-86" y="-418" type="line"/>
      <point x="68" y="-418" type="line" smooth="yes"/>
      <point x="349" y="-418"/>
      <point x="488" y="-292"/>
      <point x="488" y="-38" type="curve" smooth="yes"/>
      <point x="488" y="1056" type="line"/>
    </contour>
  </outline>
</glyph>
<glyph name="uni0238" format="2">
  <advance width="1986"/>
  <unicode hex="0238"/>
  <outline>
    <contour>
      <point x="1872" y="564" type="line" smooth="yes"/>
      <point x="1872" y="905"/>
      <point x="1709" y="1132"/>
      <point x="1448" y="1132" type="curve" smooth="yes"/>
      <point x="1162" y="1132"/>
      <point x="1055" y="870"/>
      <point x="1008" y="546" type="curve"/>
      <point x="1008" y="542" type="line"/>
      <point x="1055" y="247"/>
      <point x="1162" y="-20"/>
      <point x="1450" y="-20" type="curve" smooth="yes"/>
      <point x="1709" y="-20"/>
      <point x="1872" y="212"/>
      <point x="1872" y="544" type="curve"/>
    </contour>
    <contour>
      <point x="1494" y="544" type="line" smooth="yes"/>
      <point x="1494" y="399"/>
      <point x="1473" y="280"/>
      <point x="1334" y="280" type="curve" smooth="yes"/>
      <point x="1215" y="280"/>
      <point x="1151" y="369"/>
      <point x="1150" y="536" type="curve" smooth="yes"/>
      <point x="1150" y="556" type="line" smooth="yes"/>
      <point x="1150" y="740"/>
      <point x="1215" y="834"/>
      <point x="1334" y="834" type="curve" smooth="yes"/>
      <point x="1456" y="834"/>
      <point x="1494" y="733"/>
      <point x="1494" y="564" type="curve"/>
    </contour>
    <contour>
      <point x="804" y="262" type="line"/>
      <point x="842" y="0" type="line"/>
      <point x="1182" y="0" type="line"/>
      <point x="1182" y="1490" type="line"/>
      <point x="804" y="1490" type="line"/>
    </contour>
    <contour>
      <point x="114" y="544" type="line"/>
      <point x="115" y="212"/>
      <point x="278" y="-20"/>
      <point x="536" y="-20" type="curve" smooth="yes"/>
      <point x="825" y="-20"/>
      <point x="932" y="247"/>
      <point x="978" y="542" type="curve"/>
      <point x="978" y="546" type="line"/>
      <point x="932" y="870"/>
      <point x="825" y="1132"/>
      <point x="540" y="1132" type="curve" smooth="yes"/>
      <point x="278" y="1132"/>
      <point x="115" y="905"/>
      <point x="114" y="564" type="curve" smooth="yes"/>
    </contour>
    <contour>
      <point x="494" y="564" type="line"/>
      <point x="493" y="733"/>
      <point x="531" y="834"/>
      <point x="654" y="834" type="curve" smooth="yes"/>
      <point x="772" y="834"/>
      <point x="836" y="740"/>
      <point x="836" y="556" type="curve" smooth="yes"/>
      <point x="836" y="536" type="line" smooth="yes"/>
      <point x="836" y="369"/>
      <point x="772" y="280"/>
      <point x="654" y="280" type="curve" smooth="yes"/>
      <point x="513" y="280"/>
      <point x="493" y="399"/>
      <point x="494" y="544" type="curve" smooth="yes"/>
    </contour>
  </outline>
</glyph>
<glyph name="Cstroke" format="2">
  <advance width="1494"/>
  <unicode hex="023B"/>
  <anchor x="750" y="6" name="cedilla"/>
  <anchor x="757" y="745" name="center"/>
  <anchor x="758" y="1490" name="top"/>
  <anchor x="1456" y="928" name="topr"/>
  <outline>
    <contour>
      <point x="388" y="-190" type="line"/>
      <point x="594" y="-190" type="line"/>
      <point x="1160" y="1678" type="line"/>
      <point x="952" y="1678" type="line"/>
    </contour>
    <component base="C"/>
  </outline>
</glyph>
<glyph name="cstroke" format="2">
  <advance width="1194"/>
  <unicode hex="023C"/>
  <anchor x="610" y="0" name="bottom"/>
  <anchor x="610" y="0" name="cedilla"/>
  <anchor x="618" y="528" name="center"/>
  <anchor x="610" y="1056" name="top"/>
  <anchor x="1150" y="618" name="topr"/>
  <outline>
    <contour>
      <point x="285" y="-418" type="line"/>
      <point x="491" y="-418" type="line"/>
      <point x="961" y="1490" type="line"/>
      <point x="755" y="1490" type="line"/>
    </contour>
    <component base="c"/>
  </outline>
</glyph>
<glyph name="uni023F" format="2">
  <advance width="1144"/>
  <unicode hex="023F"/>
  <anchor x="576" y="0" name="bottom"/>
  <anchor x="573" y="0" name="cedilla"/>
  <anchor x="36" y="345" name="rthook"/>
  <anchor x="576" y="1056" name="top"/>
  <outline>
    <contour>
      <point x="350" y="312" type="curve"/>
      <point x="112" y="168" type="line"/>
      <point x="274" y="-108" type="line" smooth="yes"/>
      <point x="355" y="-246"/>
      <point x="468" y="-418"/>
      <point x="686" y="-418" type="curve" smooth="yes"/>
      <point x="844" y="-418"/>
      <point x="951" y="-335"/>
      <point x="1034" y="-268" type="curve"/>
      <point x="924" y="-76" type="line"/>
      <point x="871" y="-119"/>
      <point x="804" y="-162"/>
      <point x="702" y="-162" type="curve" smooth="yes"/>
      <point x="605" y="-162"/>
      <point x="559" y="-116"/>
    </contour>
    <component base="s"/>
  </outline>
</glyph>
<glyph name="uni0240" format="2">
  <advance width="1148"/>
  <unicode hex="0240"/>
  <outline>
    <contour>
      <point x="98" y="0" type="line"/>
      <point x="576" y="0" type="line"/>
      <point x="576" y="304" type="line"/>
      <point x="1040" y="784" type="line"/>
      <point x="1040" y="1056" type="line"/>
      <point x="98" y="1056" type="line"/>
      <point x="98" y="752" type="line"/>
      <point x="575" y="752" type="line"/>
      <point x="575" y="750" type="line"/>
      <point x="98" y="256" type="line"/>
    </contour>
    <contour>
      <point x="1193" y="-420" type="curve" smooth="yes"/>
      <point x="1298" y="-420"/>
      <point x="1387" y="-389"/>
      <point x="1478" y="-335" type="curve"/>
      <point x="1352" y="-67" type="line"/>
      <point x="1299" y="-96"/>
      <point x="1236" y="-116"/>
      <point x="1193" y="-116" type="curve" smooth="yes"/>
      <point x="1095" y="-116"/>
      <point x="1029" y="-25"/>
      <point x="987" y="116" type="curve" smooth="yes"/>
      <point x="945" y="250"/>
      <point x="879" y="302"/>
      <point x="749" y="302" type="curve" smooth="yes"/>
      <point x="512" y="302" type="line"/>
      <point x="512" y="0" type="line"/>
      <point x="682" y="0" type="line" smooth="yes"/>
      <point x="699" y="0"/>
      <point x="710" y="-8"/>
      <point x="715" y="-26" type="curve" smooth="yes"/>
      <point x="792" y="-288"/>
      <point x="962" y="-420"/>
    </contour>
  </outline>
</glyph>
<glyph name="uni0241" format="2">
  <advance width="1196"/>
  <unicode hex="0241"/>
  <outline>
    <contour>
      <point x="432" y="552" type="line" name="hr00"/>
      <point x="432" y="238" type="line"/>
      <point x="572" y="238" type="line" smooth="yes"/>
      <point x="925" y="238"/>
      <point x="1130" y="468"/>
      <point x="1130" y="788" type="curve" smooth="yes"/>
      <point x="1130" y="952" type="line" smooth="yes"/>
      <point x="1130" y="1277"/>
      <point x="922" y="1510"/>
      <point x="574" y="1510" type="curve" smooth="yes"/>
      <point x="291" y="1510"/>
      <point x="61" y="1335"/>
      <point x="66" y="1044" type="curve"/>
      <point x="440" y="1044" type="line"/>
      <point x="436" y="1123"/>
      <point x="480" y="1192"/>
      <point x="584" y="1192" type="curve" smooth="yes"/>
      <point x="730" y="1192"/>
      <point x="732" y="1039"/>
      <point x="732" y="952" type="curve" smooth="yes"/>
      <point x="732" y="788" type="line" smooth="yes"/>
      <point x="732" y="640"/>
      <point x="707" y="553"/>
      <point x="584" y="552" type="curve" smooth="yes"/>
    </contour>
    <contour>
      <point x="796" y="552" type="line"/>
      <point x="402" y="552" type="line"/>
      <point x="402" y="0" type="line"/>
      <point x="796" y="0" type="line"/>
    </contour>
  </outline>
</glyph>
<glyph name="uni0242" format="2">
  <advance width="1198"/>
  <unicode hex="0242"/>
  <outline>
    <contour>
      <point x="106" y="680" type="curve" name="hr00"/>
      <point x="484" y="680" type="line"/>
      <point x="484" y="788"/>
      <point x="516" y="832"/>
      <point x="600" y="832" type="curve" smooth="yes"/>
      <point x="680" y="832"/>
      <point x="714" y="788"/>
      <point x="714" y="696" type="curve" smooth="yes"/>
      <point x="714" y="571"/>
      <point x="655" y="518"/>
      <point x="536" y="518" type="curve" smooth="yes"/>
      <point x="456" y="518" type="line"/>
      <point x="456" y="322" type="line"/>
      <point x="682" y="322" type="line" smooth="yes"/>
      <point x="939" y="322"/>
      <point x="1092" y="464"/>
      <point x="1092" y="702" type="curve" smooth="yes"/>
      <point x="1092" y="965"/>
      <point x="899" y="1132"/>
      <point x="594" y="1132" type="curve" smooth="yes"/>
      <point x="302" y="1132"/>
      <point x="105" y="951"/>
    </contour>
    <contour>
      <point x="408" y="518" type="line"/>
      <point x="408" y="0" type="line"/>
      <point x="786" y="0" type="line"/>
      <point x="786" y="518" type="line"/>
    </contour>
  </outline>
</glyph>
<glyph name="uni0244" format="2">
  <advance width="1550"/>
  <unicode hex="0244"/>
  <anchor x="784" y="0" name="bottom"/>
  <anchor x="1426" y="530" name="ogonek"/>
  <anchor x="912" y="0" name="right"/>
  <anchor x="1022" y="1490" name="rtophorn"/>
  <anchor x="784" y="1490" name="top"/>
  <outline>
    <contour>
      <point x="1578" y="834" type="line"/>
      <point x="-28" y="834" type="line"/>
      <point x="-28" y="614" type="line"/>
      <point x="1578" y="614" type="line"/>
    </contour>
    <component base="U" xOffset="62"/>
  </outline>
</glyph>
<glyph name="uni0245" format="2">
  <advance width="1586"/>
  <unicode hex="0245"/>
  <outline>
    <contour>
      <point x="1078" y="0" type="line"/>
      <point x="1514" y="0" type="line"/>
      <point x="1008" y="1490" type="line"/>
      <point x="726" y="1490" type="line"/>
      <point x="778" y="1100" type="line"/>
    </contour>
    <contour>
      <point x="808" y="1100" type="line"/>
      <point x="856" y="1490" type="line"/>
      <point x="574" y="1490" type="line"/>
      <point x="68" y="0" type="line"/>
      <point x="504" y="0" type="line"/>
    </contour>
  </outline>
</glyph>
<glyph name="uni0246" format="2">
  <advance width="1294"/>
  <unicode hex="0246"/>
  <anchor x="657" y="0" name="bottom"/>
  <anchor x="655" y="0" name="cedilla"/>
  <anchor x="1234" y="0" name="ogonek"/>
  <anchor x="80" y="1490" name="tonos"/>
  <anchor x="657" y="1490" name="top"/>
  <outline>
    <contour>
      <point x="306" y="-190" type="line"/>
      <point x="472" y="-190" type="line"/>
      <point x="1010" y="1678" type="line"/>
      <point x="846" y="1678" type="line"/>
    </contour>
    <component base="E"/>
  </outline>
</glyph>
<glyph name="uni0247" format="2">
  <advance width="1194"/>
  <unicode hex="0247"/>
  <anchor x="599" y="0" name="bottom"/>
  <anchor x="608" y="0" name="cedilla"/>
  <anchor x="1148" y="345" name="ogonek"/>
  <anchor x="599" y="1056" name="top"/>
  <outline>
    <contour>
      <point x="262" y="-418" type="line"/>
      <point x="378" y="-418" type="line"/>
      <point x="962" y="1490" type="line"/>
      <point x="844" y="1490" type="line"/>
    </contour>
    <component base="e"/>
  </outline>
</glyph>
<glyph name="uni024C" format="2">
  <advance width="1390"/>
  <unicode hex="024C"/>
  <anchor x="732" y="0" name="bottom"/>
  <anchor x="724" y="1490" name="top"/>
  <outline>
    <contour>
      <point x="366" y="526" type="line"/>
      <point x="366" y="812" type="line"/>
      <point x="-4" y="812" type="line"/>
      <point x="-4" y="526" type="line"/>
    </contour>
    <component base="R" xOffset="44"/>
  </outline>
</glyph>
<glyph name="uni024E" format="2">
  <advance width="1534"/>
  <unicode hex="024E"/>
  <anchor x="754" y="0" name="bottom"/>
  <anchor x="756" y="307" name="cross"/>
  <anchor x="956" y="0" name="ogonek"/>
  <anchor x="0" y="1490" name="tonos"/>
  <anchor x="748" y="1490" name="top"/>
  <outline>
    <contour>
      <point x="1522" y="1176" type="line"/>
      <point x="10" y="1176" type="line"/>
      <point x="10" y="986" type="line"/>
      <point x="1522" y="986" type="line"/>
    </contour>
    <component base="Y"/>
  </outline>
</glyph>
<glyph name="uni024F" format="2">
  <advance width="1228"/>
  <unicode hex="024F"/>
  <anchor x="992" y="0" name="bottom"/>
  <anchor x="823" y="0" name="ogonek"/>
  <anchor x="582" y="1056" name="top"/>
  <outline>
    <contour>
      <point x="1232" y="724" type="line" name="hr00"/>
      <point x="-4" y="724" type="line"/>
      <point x="-4" y="552" type="line"/>
      <point x="1232" y="552" type="line"/>
    </contour>
    <component base="y" xOffset="10"/>
  </outline>
</glyph>
<glyph name="bhook" format="2">
  <advance width="1280"/>
  <unicode hex="0253"/>
  <anchor x="486" y="1056" name="_topr"/>
  <anchor x="620" y="0" name="bottom"/>
  <anchor x="484" y="1490" name="top"/>
  <outline>
    <contour>
      <point x="778" y="-24" type="curve" smooth="yes"/>
      <point x="1055" y="-24"/>
      <point x="1234" y="194"/>
      <point x="1234" y="523" type="curve" smooth="yes"/>
      <point x="1234" y="836"/>
      <point x="1047" y="1056"/>
      <point x="782" y="1056" type="curve" smooth="yes"/>
      <point x="645" y="1056"/>
      <point x="553" y="1005"/>
      <point x="491" y="905" type="curve"/>
      <point x="486" y="896" type="line"/>
      <point x="486" y="1056" type="line"/>
      <point x="86" y="1056" type="line"/>
      <point x="86" y="0" type="line"/>
      <point x="482" y="0" type="line"/>
      <point x="482" y="156" type="line"/>
      <point x="486" y="156" type="line"/>
      <point x="534" y="40"/>
      <point x="638" y="-24"/>
    </contour>
    <contour>
      <point x="659" y="290" type="curve" smooth="yes"/>
      <point x="550" y="290"/>
      <point x="472" y="381"/>
      <point x="472" y="523" type="curve" smooth="yes"/>
      <point x="472" y="663"/>
      <point x="550" y="753"/>
      <point x="659" y="753" type="curve" smooth="yes"/>
      <point x="768" y="753"/>
      <point x="830" y="663"/>
      <point x="830" y="523" type="curve" smooth="yes"/>
      <point x="830" y="381"/>
      <point x="768" y="290"/>
    </contour>
    <component base="_part.top_r_hook" xOffset="2"/>
  </outline>
</glyph>
<glyph name="erev" format="2">
  <advance width="1190"/>
  <unicode hex="0258"/>
  <outline>
    <contour>
      <point x="546" y="-20" type="curve" smooth="yes"/>
      <point x="919" y="-20"/>
      <point x="1137" y="233"/>
      <point x="1136" y="520" type="curve" smooth="yes"/>
      <point x="1136" y="558" type="line" smooth="yes"/>
      <point x="1136" y="870"/>
      <point x="956" y="1132"/>
      <point x="578" y="1132" type="curve" smooth="yes"/>
      <point x="258" y="1132"/>
      <point x="57" y="934"/>
      <point x="56" y="590" type="curve" smooth="yes"/>
      <point x="56" y="434" type="line"/>
      <point x="996" y="434" type="line"/>
      <point x="996" y="664" type="line"/>
      <point x="420" y="664" type="line"/>
      <point x="420" y="678" type="line" smooth="yes"/>
      <point x="420" y="782"/>
      <point x="484" y="832"/>
      <point x="576" y="832" type="curve" smooth="yes"/>
      <point x="753" y="832"/>
      <point x="758" y="652"/>
      <point x="758" y="558" type="curve" smooth="yes"/>
      <point x="758" y="520" type="line" smooth="yes"/>
      <point x="758" y="364"/>
      <point x="665" y="282"/>
      <point x="504" y="282" type="curve" smooth="yes"/>
      <point x="424" y="282"/>
      <point x="325" y="303"/>
      <point x="258" y="378" type="curve"/>
      <point x="88" y="162" type="line"/>
      <point x="162" y="73"/>
      <point x="322" y="-20"/>
    </contour>
  </outline>
</glyph>
<glyph name="schwahook" format="2">
  <advance width="1742"/>
  <unicode hex="025A"/>
  <outline>
    <contour>
      <point x="595" y="-24" type="curve" smooth="yes"/>
      <point x="919" y="-24"/>
      <point x="1148" y="205"/>
      <point x="1148" y="528" type="curve" smooth="yes"/>
      <point x="1148" y="851"/>
      <point x="916" y="1080"/>
      <point x="587" y="1080" type="curve" smooth="yes"/>
      <point x="309" y="1080"/>
      <point x="85" y="927"/>
      <point x="46" y="711" type="curve"/>
      <point x="400" y="711" type="line"/>
      <point x="422" y="768"/>
      <point x="486" y="802"/>
      <point x="571" y="802" type="curve" smooth="yes"/>
      <point x="690" y="802"/>
      <point x="760" y="733"/>
      <point x="760" y="616" type="curve" smooth="yes"/>
      <point x="760" y="439" type="line" smooth="yes"/>
      <point x="760" y="328"/>
      <point x="695" y="262"/>
      <point x="584" y="262" type="curve" smooth="yes"/>
      <point x="473" y="262"/>
      <point x="408" y="328"/>
      <point x="408" y="439" type="curve"/>
      <point x="224" y="367" type="line"/>
      <point x="1030" y="495" type="line"/>
      <point x="1030" y="721" type="line"/>
      <point x="42" y="567" type="line"/>
      <point x="42" y="517" type="line" smooth="yes"/>
      <point x="42" y="200"/>
      <point x="271" y="-24"/>
    </contour>
    <contour>
      <point x="1526" y="171" type="curve" smooth="yes"/>
      <point x="1589" y="171"/>
      <point x="1657" y="183"/>
      <point x="1722" y="207" type="curve"/>
      <point x="1664" y="444" type="line"/>
      <point x="1634" y="436"/>
      <point x="1612" y="432"/>
      <point x="1595" y="432" type="curve" smooth="yes"/>
      <point x="1524" y="432"/>
      <point x="1498" y="497"/>
      <point x="1452" y="790" type="curve"/>
      <point x="1067" y="727" type="line"/>
      <point x="1067" y="499" type="line"/>
      <point x="1211" y="521" type="line"/>
      <point x="1263" y="267"/>
      <point x="1350" y="171"/>
    </contour>
  </outline>
</glyph>
<glyph name="epsilon1revhook" format="2">
  <advance width="1670"/>
  <unicode hex="025D"/>
  <anchor x="564" y="1056" name="top"/>
  <outline>
    <contour>
      <point x="1454" y="323" type="curve" smooth="yes"/>
      <point x="1517" y="323"/>
      <point x="1585" y="335"/>
      <point x="1650" y="359" type="curve"/>
      <point x="1592" y="596" type="line"/>
      <point x="1562" y="588"/>
      <point x="1540" y="584"/>
      <point x="1523" y="584" type="curve" smooth="yes"/>
      <point x="1452" y="584"/>
      <point x="1408" y="675"/>
      <point x="1362" y="968" type="curve"/>
      <point x="995" y="810" type="line"/>
      <point x="995" y="579" type="line"/>
      <point x="1144" y="649" type="line"/>
      <point x="1191" y="419"/>
      <point x="1278" y="323"/>
    </contour>
    <component base="epsilon1rev"/>
  </outline>
</glyph>
<glyph name="g.sc" format="2">
  <advance width="1103"/>
  <unicode hex="0262"/>
  <anchor x="549" y="0" name="bottom"/>
  <anchor x="868" y="322" name="cross"/>
  <anchor x="553" y="1056" name="top"/>
  <anchor x="1061" y="688" name="topr"/>
  <outline>
    <contour>
      <point x="564" y="-17" type="curve" smooth="yes"/>
      <point x="868" y="-17"/>
      <point x="1072" y="158"/>
      <point x="1072" y="445" type="curve" smooth="yes"/>
      <point x="1072" y="622" type="line"/>
      <point x="565" y="622" type="line"/>
      <point x="565" y="364" type="line"/>
      <point x="779" y="364" type="line"/>
      <point x="711" y="370" type="line"/>
      <point x="711" y="330"/>
      <point x="673" y="303"/>
      <point x="575" y="303" type="curve" smooth="yes"/>
      <point x="451" y="303"/>
      <point x="400" y="377"/>
      <point x="400" y="529" type="curve" smooth="yes"/>
      <point x="400" y="679"/>
      <point x="452" y="754"/>
      <point x="573" y="754" type="curve" smooth="yes"/>
      <point x="640" y="754"/>
      <point x="674" y="739"/>
      <point x="684" y="688" type="curve"/>
      <point x="1061" y="688" type="line"/>
      <point x="1046" y="927"/>
      <point x="823" y="1073"/>
      <point x="560" y="1073" type="curve" smooth="yes"/>
      <point x="265" y="1073"/>
      <point x="22" y="888"/>
      <point x="22" y="527" type="curve" smooth="yes"/>
      <point x="22" y="188"/>
      <point x="236" y="-17"/>
    </contour>
  </outline>
</glyph>
